<?xml version="1.0" standalone="no"?><!DOCTYPE svg PUBLIC "-//W3C//DTD SVG 1.1//EN" "http://www.w3.org/Graphics/SVG/1.1/DTD/svg11.dtd"><svg t="1508664686781" class="icon" style="" viewBox="0 0 1024 1024" version="1.1" xmlns="http://www.w3.org/2000/svg" p-id="3120" xmlns:xlink="http://www.w3.org/1999/xlink" width="200" height="200"><defs><style type="text/css"></style></defs><path d="M1003.673 651.475l4.69-17.196 4.067-17.165 3.437-17.508 2.777-17.166 1.289-8.76 0.897-9.069 0.944-8.751 0.937-8.679 0.272-9.11 0.664-9.029v-9.033l0.353-9.11-0.353-13.129-0.313-12.745-0.936-12.826-0.935-12.898-1.257-12.706-1.562-12.464-1.913-12.594-2.468-12.153-2.457-12.161-2.857-12.194-2.81-11.887-3.443-11.843-3.794-11.567-4.068-11.539-4.259-11.567-4.42-11.217-5.035-11.303-4.971-11.216-5.629-10.905-5.588-10.943-5.94-10.641-6.251-10.59-6.846-10.634-6.918-10.319-7.158-10.322-7.54-10.007-7.784-10.006-7.771-9.657-8.486-10.043-8.721-9.386-8.758-9.655-9.414-9.343-9.311-9.071-9.688-9.07-9.696-8.398-9.693-8.486-9.968-8.054-10.008-7.854-10.327-7.509-10.321-7.151-10.279-6.883-10.672-6.603-10.592-6.216-10.904-6.182-10.943-5.667-10.954-5.276-11.216-5.357-11.256-4.649-11.494-4.734-11.571-4.41-11.608-3.715-11.577-3.754-11.84-3.482-11.922-3.084-12.122-2.817-12.2-2.466-12.192-2.186-12.505-1.913-12.473-1.57-12.515-1.522-12.777-0.933-12.786-0.629-12.857-0.622h-26.196l-13.169 0.622-13.098 0.629-12.828 0.933-12.504 1.522-12.472 1.57-12.464 1.913-12.553 2.185-12.152 2.467-12.164 2.817-11.92 3.083-11.849 3.483-11.49 3.754-11.608 3.713-11.575 4.412-11.216 4.734-11.219 4.649-11.304 5.357-10.902 5.276-10.946 5.667-10.592 6.182-10.67 6.214-10.634 6.604-10.246 6.884-10.279 7.151-10.008 7.509-10.048 7.854-10.008 8.054-9.965 8.486-9.385 8.4-9.696 9.069-9.383 9.07-9.301 9.343-8.751 9.655-8.839 9.386-8.367 10.043-8.166 9.657-7.509 10.006-7.502 10.007-7.078 10.322-7.268 10.319-6.533 10.634-6.252 10.59-5.942 10.641-5.907 10.943-5.315 10.905-5.004 11.216-5.005 11.303-4.723 11.217-4.026 11.567-4.028 11.539-3.794 11.567-3.403 11.843-3.084 11.887-2.896 12.194-2.426 12.16-2.266 12.152-1.795 12.596-1.606 12.464-1.212 12.706-1.248 12.9-0.624 12.824-0.352 12.745L0 510.899l0.313 13.096 0.352 13.178 0.624 12.818 1.248 12.746 1.212 12.828 1.606 12.505 1.795 12.472 2.265 12.233 2.427 12.201 2.896 12.113 3.083 12.241 3.403 11.801 3.795 11.567 4.028 11.851 4.026 11.294 4.723 11.528 5.003 11.264 5.006 11.257 5.315 10.948 5.907 10.901 5.942 10.874 6.252 10.67 6.533 10.631 7.268 10.594 7.078 10.36 7.502 9.966 7.509 10.288 8.166 9.727 8.367 10.009 8.839 9.695 8.75 9.616 9.302 9.381 9.383 9.111 9.696 9.03 9.385 8.759 9.965 8.087 10.008 8.133 10.048 7.822 10.008 7.462 10.279 7.197 10.246 6.876 10.632 6.646 10.672 6.18 10.592 6.173 10.946 5.667 10.902 5.589 11.304 5.043 11.219 5.004 11.216 4.378 11.575 4.381 11.608 4.025 11.49 3.477 11.849 3.443 11.92 3.089 12.162 2.851 12.153 2.505 12.554 2.146 12.464 1.883 12.472 1.952 12.505 1.137 12.829 1.01 13.096 0.593 13.171 0.623h13.136l18.414-0.273 18.052-0.623 17.87-1.571 17.79-1.952 17.469-2.467 16.892-3.123 17.157-3.792 16.539-3.988 16.302-5.003 16.219-5.318 15.907-5.9 15.636-6.292 15.29-7.238 15.324-7.421 15.053-8.133 14.618-8.448 10.007-6.253 9.735-6.211 9.304-6.292 8.751-6.535 8.718-6.212 8.133-6.573 7.783-6.604 7.499-6.525 6.88-6.919 6.925-6.57 6.211-6.8 5.98-6.924 5.59-7.107 5.284-6.929 4.721-7.186 4.654-7.231 4.066-7.155 3.796-7.152 3.442-7.158 3.083-7.58 2.857-7.471 2.185-7.459 2.155-7.511 1.56-7.821 1.25-7.543 0.945-7.742 0.311-7.853 0.314-7.821-0.314-8.087-0.311-7.822-0.945-8.133-1.25-8.128-1.56-6.569-1.601-6.838-1.843-6.253-1.914-6.573-2.464-6.175-2.458-6.018-2.857-5.94-3.091-5.911-3.434-5.59-3.484-5.625-4.067-5.669-4.025-5.276-4.373-4.963-4.34-5.044-5.082-5.004-5.004-5.005-5.318-4.649-5.594-4.419-5.942-4.34-5.858-4.339-6.296-4.108-6.571-4.027-6.796-3.746-7.238-4.067-7.191-3.443-7.469-3.402-7.772-3.474-8.175-3.13-8.364-3.164-8.522-3.092-8.717-2.815-9.07-2.81-23.38-8.134 7.392-4.339 7.228-4.695 6.845-4.69 6.295-5.044 5.979-5.276 5.515-5.314 5.046-5.59 4.682-5.939 4.379-5.908 3.756-6.293 3.713-6.567 2.85-6.565 2.821-6.803 2.184-6.918 1.608-7.155 1.522-7.583 0.585-8.679 0.353-8.133-0.353-8.48-0.585-8.366-1.522-8.133-2.232-8.166-2.46-7.782-3.167-8.096-3.758-7.813-4.369-7.861-5.003-7.732-5.558-7.513-6.293-7.539-6.876-7.51-7.549-7.149-7.774-7.197-8.718-7.541-8.759-7.12-9.113-6.564-9.382-6.292-9.616-5.909-10.006-5.669-10.319-4.924-10.632-5.004-10.906-4.416-11.261-4.339-11.571-3.828-11.841-3.363-12.2-3.09-12.465-3.163-12.906-2.506-13.019-2.184-15.05-2.154-14.933-1.913-15.673-1.523-15.595-1.328-15.91-1.138-16.268-1.016-16.259-0.624-16.773-0.314-16.925-0.271-17.237 0.273h-17.436l-17.791 0.624-18.133 0.936-18.412 1.017-18.495 0.937-18.717 1.529v161.519l14.932-1.951 15.049-1.875 15.013-1.209 15.283-1.257 15.051-0.897 15.244-0.665 15.321-0.391h30.889l15.324 0.703 15.634 0.624 15.676 1.251 15.556 1.217 15.595 1.601 15.946 1.833 15.957 1.922 12.818 2.186 12.2 2.464 11.138 2.813 10.711 2.816 9.737 3.474 8.991 3.444 8.406 3.753 7.502 4.029 3.442 1.913 3.089 2.154 3.163 2.457 2.778 2.193 2.889 2.578 2.155 2.466 2.457 2.497 1.882 2.467 1.912 2.85 1.875 2.818 1.607 2.812 1.171 3.13 0.937 2.809 0.945 3.088 0.663 3.095 0.585 3.481v5.627l-0.585 2.85-0.664 3.09-2.466 6.838-3.443 7.82-2.224 3.092-2.468 3.201-2.739 2.779-3.514 2.146-3.442 2.193-3.747 1.873-4.066 1.564-4.34 1.295-4.692 0.935-5.356 0.898-5.314 0.352h-11.85l-6.251-0.352-6.524-0.898-7.278-0.935-18.687-2.233-18.365-1.875-18.455-1.562-18.14-1.255-17.783-0.898-17.79-0.624-17.827-0.311-17.47-0.313-17.203 0.313-17.198 0.311-17.165 0.624-16.885 0.898-16.54 1.257-16.531 1.56-16.3 1.875-16.221 2.233v164.61l22.783-2.579 22.211-2.426 21.848-1.913 21.855-1.527 20.991-0.937 20.873-0.899 20.287-0.391h20.016l19.662 0.665 19.349 0.625 18.768 1.247 18.454 1.842 18.132 1.915 17.83 2.424 17.123 2.892 16.885 3.09 13.45 2.495 12.466 3.13 11.887 3.092 10.906 3.443 10.28 4.099 9.462 4.066 4.339 2.186 4.029 2.154 4.064 2.186 3.747 2.546 3.524 2.498 3.362 2.466 3.123 2.778 2.777 2.578 2.85 2.81 2.508 2.818 2.11 2.737 2.228 3.203 1.833 3.091 1.609 3.09 1.601 3.124 0.937 3.44 1.247 3.17 0.555 3.395 0.664 3.481 0.664 3.717v2.81l0.314 3.089-0.314 3.171v2.771l-0.664 3.089-0.664 2.819-0.906 3.201-0.895 2.821-1.291 3.08-1.529 2.859-1.601 3.081-1.832 3.172-4.066 6.212-4.965 6.26-3.17 3.747-3.746 3.405-3.796 3.401-4.066 3.203-3.989 3.089-4.419 3.09-4.299 2.851-4.731 2.819-4.69 2.777-4.967 2.537-5.353 2.537-5.317 2.468-5.63 2.186-5.9 2.192-5.869 1.833-6.363 1.882-6.222 1.913-6.524 1.562-6.531 1.568-7.229 1.21-14.389 2.498-15.05 2.194-15.908 1.522-16.811 1.328-17.51 0.624h-28.11l-9.693-0.384-9.697-0.552-9.615-0.626-9.423-1.016-9.383-1.21-9.022-1.248-9.384-1.568-8.99-1.873-9.11-2.154-8.72-2.264-8.797-2.468-8.75-2.499-8.72-3.088-8.487-3.124-8.406-3.17-8.399-3.674-8.406-3.827-8.133-3.756-8.166-4.34-7.782-4.418-7.822-4.612-7.855-4.77-7.78-4.966-7.461-5.273-7.51-5.629-7.502-5.67-7.51-5.908-7.189-6.252-7.158-6.213-6.918-6.603-7.117-6.806-6.642-6.878-6.527-7.235-6.532-7.111-6.213-7.238-5.981-7.189-5.667-7.469-5.591-7.541-5.314-7.511-4.971-7.813-5.003-7.469-4.725-8.127-4.339-7.822-4.067-8.095-4.068-8.124-3.754-8.135-3.715-8.448-3.514-8.044-3.09-8.799-2.851-8.365-2.737-8.872-2.466-8.678-2.226-8.718-2.186-9.071-1.841-9.11-1.602-9.033-1.528-9.382-1.009-9.301-1.176-9.458-0.665-9.3-0.625-9.737-0.313-9.695v-19.389l0.313-9.616 0.625-9.695 0.664-9.385 1.177-9.381 1.009-9.383 1.528-9.03 1.602-9.342 1.841-8.761 2.186-9.102 2.226-8.719 2.466-9.073 2.737-8.364 2.851-8.793 3.09-8.444 3.514-8.448 3.715-8.406 3.754-8.124 4.067-8.095 4.067-8.093 4.339-8.207 4.726-7.741 5.003-7.854 4.971-7.55 5.314-7.743 5.591-7.541 5.667-7.501 5.981-7.156 6.213-7.189 6.532-7.119 6.527-7.196 6.642-6.959 7.117-6.795 7.232-6.604 7.117-6.263 7.269-6.214 7.511-5.94 7.42-5.593 7.51-5.67 7.5-5.276 7.824-5.043 7.78-4.965 7.855-4.651 8.133-4.377 8.086-4.381 8.173-4.099 8.053-3.754 8.442-3.443 8.406-3.435 8.527-3.13 8.676-3.092 8.44-2.537 9.11-2.506 8.678-2.457 9.11-1.881 9.032-1.835 9.07-1.64 9.023-1.562 9.383-1.255 9.694-0.937 9.344-0.626 9.697-0.625 9.693-0.273 9.656-0.271 9.737 0.273 9.653 0.273 9.734 0.623 9.384 0.626 9.384 0.937 9.301 1.256 9.03 1.561 9.104 1.64 9.03 1.835 9.071 1.881 8.759 2.457 8.791 2.506 8.719 2.537 8.406 3.092 8.757 3.13 8.133 3.435 8.4 3.443 8.134 3.754 8.167 4.099 8.053 4.381 7.864 4.377 8.093 4.651 7.502 4.965 7.851 5.041 7.431 5.276 7.51 5.672 7.19 5.593 7.47 5.94 7.227 6.213 6.918 6.263 7.159 6.603 6.914 6.797 6.455 6.959 6.606 6.804 6.523 7.197 6.261 7.232 5.98 7.148 5.549 7.469 5.667 7.509 5.316 7.542 5.003 7.782 4.695 7.814 4.611 7.863 4.692 8.044 4.066 7.861 4.067 8.406 3.712 8.167 3.788 8.406 3.485 8.406 3.049 8.448 2.849 8.709 2.819 8.757 2.457 8.762 2.276 8.759 2.185 9.061 1.84 9.071 1.561 8.991 1.249 9.383 1.25 9.383 0.944 9.381 0.976 9.385 0.624 9.695 0.273 9.616v9.774l-1.873 41.158 8.085 5.043 8.135 4.694 8.133 5.316 7.773 5.273 7.51 5.631 7.543 5.635 7.51 5.587 7.189 6.294 7.156 6.291 7.19 6.182 6.566 6.566 6.806 6.524 6.604 7.197 6.221 6.838 6.291 7.549 6.253 7.501z" fill="#C11E22" p-id="3121"></path></svg>