<?xml version="1.0" standalone="no"?><!DOCTYPE svg PUBLIC "-//W3C//DTD SVG 1.1//EN" "http://www.w3.org/Graphics/SVG/1.1/DTD/svg11.dtd"><svg t="1508678262488" class="icon" style="" viewBox="0 0 1811 1024" version="1.1" xmlns="http://www.w3.org/2000/svg" p-id="1641" xmlns:xlink="http://www.w3.org/1999/xlink" width="353.7109375" height="200"><defs><style type="text/css"></style></defs><path d="M1557.36929733 1027.2148182c-184.92308518-247.43115252-426.4204433-395.28833658-719.12727001-456.00813614C547.07961346 510.73073639 269.5730572 560.96478834 5.8036449 697.92979921c33.32679801-49.6650578 79.00889674-86.16196476 123.22786692-122.41501887 339.36434413-277.83169548 725.46748997-420.89307138 1167.33205865-394.06906295 147.77589874 8.9413358 286.77303128 49.09606364 404.06710276 145.74377603 10.97345748 9.10390541 21.70306106 18.61423537 31.86367049 28.61227518 89.16950514 87.95023254 92.33961512 107.70245621 39.09802383 219.30658721-70.55526977 148.58874781-140.70411501 297.25877993-214.02307022 452.10646239" fill="#053B78" p-id="1642"></path><path d="M337.93363569 191.11861696c64.2150498-65.4343224 137.04629515-110.22228776 222.8018364-130.05579674a446.82294541 446.82294541 0 0 1 309.12637079 36.82204721c27.39300259 13.81842824 51.69717948 12.43658604 80.22816933-3.25139427C1127.53489015-3.15222959 1315.54680102-43.55081133 1516.48300675 2.78156687c49.6650578 11.46116734 96.81028302 30.40054193 129.7306565 72.91253067 19.18322952 24.87317105 29.34383894 52.10360299 19.9960786 84.0485588-14.95641655 51.45332455-32.35137932 59.01281814-80.47202427 36.25305306-89.9010689-42.51198874-185.73593426-61.12622411-284.25319974-67.46644511-188.17448048-12.11144578-371.47186852 17.31367745-551.8430015 68.36057848-32.67651854 9.34776035-61.37007905 10.32317904-95.34715652-1.54441284-91.28291213-32.0262401-185.16694011-37.87875124-278.80711315-6.17765035a147.45075952 147.45075952 0 0 1-22.75976508 5.52737191c-2.76368545 0.56899415-5.93379542-1.30055792-14.7938459-3.57653453" fill="#47B334" p-id="1643"></path></svg>