<?xml version="1.0" encoding="utf-8"?>
<!-- Generator: Adobe Illustrator 18.1.0, SVG Export Plug-In . SVG Version: 6.00 Build 0)  -->
<svg version="1.1" id="图层_1" xmlns="http://www.w3.org/2000/svg" xmlns:xlink="http://www.w3.org/1999/xlink" x="0px" y="0px"
	 viewBox="0 0 85 85" enable-background="new 0 0 85 85" xml:space="preserve">
<g opacity="0.3">
	<path fill="#CFE6F5" d="M42.5,5C63.2,5,80,21.8,80,42.5S63.2,80,42.5,80S5,63.2,5,42.5S21.8,5,42.5,5 M42.5,0C19,0,0,19,0,42.5
		S19,85,42.5,85S85,66,85,42.5S66,0,42.5,0L42.5,0z"/>
</g>
<linearGradient id="SVGID_1_" gradientUnits="userSpaceOnUse" x1="-3.610112e-007" y1="63.75" x2="85" y2="63.75" gradientTransform="matrix(4.489659e-011 1 -1 4.489659e-011 85 0)">
	<stop  offset="0" style="stop-color:#FFFFFF"/>
	<stop  offset="1" style="stop-color:#FFFFFF;stop-opacity:0"/>
</linearGradient>
<path fill="none" stroke="url(#SVGID_1_)" stroke-width="5" stroke-miterlimit="10" d="M42.5,82.5c-22.1,0-40-17.9-40-40
	s17.9-40,40-40"/>
<rect x="40" y="13.6" fill="#FFFFFF" width="5" height="31.1"/>
<rect x="40" y="39.8" fill="#FFFFFF" width="27.4" height="5"/>
</svg>
