<?xml version="1.0" standalone="no"?><!DOCTYPE svg PUBLIC "-//W3C//DTD SVG 1.1//EN" "http://www.w3.org/Graphics/SVG/1.1/DTD/svg11.dtd"><svg t="1508664683028" class="icon" style="" viewBox="0 0 1024 1024" version="1.1" xmlns="http://www.w3.org/2000/svg" p-id="2996" xmlns:xlink="http://www.w3.org/1999/xlink" width="200" height="200"><defs><style type="text/css"></style></defs><path d="M798.17386667 546.95253333V771.41333333h-248.49066667v-72.63573333h169.30133333V615.76533333h-169.30133333V391.30453333h169.30133333V315.392h-169.30133333V242.75626667h248.49066667v224.4608h-168.7552v75.91253333h168.7552v3.82293333zM228.5568 546.95253333V771.41333333h248.49066667v-72.63573333h-169.30133334V615.76533333h169.30133334V391.30453333h-169.30133334V315.392h169.30133334V242.75626667H228.5568v224.4608h169.30133333v75.91253333h-169.30133333v3.82293333z" fill="#E50012" p-id="2997"></path><path d="M512 4.64213333c-280.1664 0-507.904 227.19146667-507.904 507.904 0 280.1664 227.19146667 507.904 507.904 507.904 280.1664 0 507.904-227.19146667 507.904-507.904-0.54613333-280.71253333-227.7376-507.904-507.904-507.904z m1.6384 911.49653334c-223.91466667 0-405.77706667-181.8624-405.77706667-405.77706667s181.8624-405.77706667 405.77706667-405.77706667 405.77706667 181.8624 405.77706667 405.77706667-181.8624 405.77706667-405.77706667 405.77706667z" fill="#E50012" p-id="2998"></path></svg>