<?xml version="1.0" standalone="no"?><!DOCTYPE svg PUBLIC "-//W3C//DTD SVG 1.1//EN" "http://www.w3.org/Graphics/SVG/1.1/DTD/svg11.dtd"><svg t="1508678281312" class="icon" style="" viewBox="0 0 1183 1024" version="1.1" xmlns="http://www.w3.org/2000/svg" p-id="2265" xmlns:xlink="http://www.w3.org/1999/xlink" width="231.0546875" height="200"><defs><style type="text/css"></style></defs><path d="M589.224424 406.825718a2600.372018 2600.372018 0 0 1-158.796604 274.322685c-150.308128 9.109584-296.889608 31.46947-430.42782 67.907804A2038.890416 2038.890416 0 0 0 431.670036 0h0.414072c36.024262 133.538213 90.060655 272.045289 157.140316 406.825718z" fill="#BC2026" p-id="2266"></path><path d="M1024.828144 1021.722604a2038.890416 2038.890416 0 0 0-868.101901-1.242216l-0.207036-0.414072 4.554792-4.554792 4.554792-4.761827 4.554792-4.554792 4.554791-4.761828 4.554792-4.761828 4.554792-4.968863 4.554792-4.554792 4.554791-4.761828 4.554792-4.968863 4.554792-4.761828 4.554792-4.761828 4.554791-4.968864 4.14072-4.554791 4.554792-4.968864 4.347756-5.1759 4.554791-4.968864 4.347756-4.968863 4.347756-4.968864 4.347756-4.968864 4.554792-4.968863 4.347755-5.1759 4.554792-5.1759 4.347756-5.1759 4.347756-5.175899c58.591185-68.735948 114.283866-143.47594 166.456934-221.528508 105.174282-6.418116 212.211888-6.21108 317.386171 0.621108 83.849575 126.291953 177.636878 242.646179 277.014153 339.953093" fill="#721011" p-id="2267"></path><path d="M1181.140315 750.919531a2229.570562 2229.570562 0 0 0-433.326324-69.15002c-58.177113-87.783259-111.799434-180.535382-158.589567-274.943793 67.07966-134.780429 120.701981-273.080469 155.691063-406.825718a2036.613021 2036.613021 0 0 0 436.224828 750.505459" fill="#E41E26" p-id="2268"></path><path d="M1024.828144 1021.722604c-99.377275-97.306915-193.164577-213.66114-277.014153-339.953093 151.136272 9.730691 298.959968 32.918722 433.119288 69.15002" fill="#BC2026" p-id="2269"></path><path d="M430.42782 681.148403A2241.785685 2241.785685 0 0 1 156.519207 1020.066316L0 749.056207a2142.201375 2142.201375 0 0 1 430.42782-67.907804z" fill="#E41E26" p-id="2270"></path><path d="M744.915487 0a2141.373231 2141.373231 0 0 1-155.691063 406.825718A2227.293166 2227.293166 0 0 1 432.084108 0h312.831379z" fill="#721011" p-id="2271"></path></svg>