<?xml version="1.0" standalone="no"?><!DOCTYPE svg PUBLIC "-//W3C//DTD SVG 1.1//EN" "http://www.w3.org/Graphics/SVG/1.1/DTD/svg11.dtd"><svg class="icon" width="200px" height="200.00px" viewBox="0 0 1024 1024" version="1.1" xmlns="http://www.w3.org/2000/svg"><path d="M508.680857 508.680857m-508.680857 0a508.680857 508.680857 0 1 0 1017.361715 0 508.680857 508.680857 0 1 0-1017.361715 0Z" fill="#6A1684" /><path d="M93.063163 327.234396h185.973721s35.073545 0 41.699114 9.931993h-34.424977v10.593279l52.94096 0.648568s8.609424 5.964283 8.609423 10.593279l-61.550383 0.661285v9.919277h68.175952s7.948138 3.980428 5.977 12.577134H148.02613v11.254564l215.718834-0.661285s1.32257 8.609424 1.32257 11.254564H148.02613v11.241847l217.702689-0.648568s1.32257 6.612851-1.983855 11.241847l-215.718834 1.996572v10.593279l212.437843-1.335287s0 8.609424-5.315715 11.254564l-207.122128 1.32257v9.919277l200.521993-1.322571s-0.686719 10.593279-7.960855 12.577135l-192.561138 0.661285v10.593279l176.690295-1.322571s-3.967711 13.238419-31.118551 11.903132l-33.064256-0.648568v9.919277l53.589528 0.661285s22.509128 0 25.815554 9.257992l-79.417799 1.996572v9.931994h93.304786s8.609424 6.612851 8.609424 10.593279l-214.408981 1.32257v11.915849l219.037977-1.971138s8.609424 5.938849 8.609423 11.903132l-227.634683 1.32257v9.931994h230.953826s2.632423 3.319143 1.32257 9.270708l-232.289113 1.971139v9.919276h232.289113s1.983855 5.951566 0 10.580562l-232.289113 1.335288v10.593278h230.305258s1.983855 6.612851-3.306426 11.915849H148.02613v10.580562l222.344402-0.674002s-0.648568 10.605996-5.302998 11.267281h-78.756513v11.254564l68.175952-0.674002s-4.641713 10.593279-9.257992 11.928566l-58.91796 0.674002v11.241847l39.727975-0.661285s-5.977 12.564417-58.231242 10.593279l-174.731874-0.674002V327.234396h-0.012717z" fill="#FBE900" /><path d="M395.512084 562.842652s-5.938849-48.97325 49.659968-58.243958c0 0 103.224063-21.173841 105.894638 43.021683l1.971138 119.12034 6.625568 20.525272-52.94096 1.322571-3.319142-18.528701s-26.476839 27.799409-69.498523 17.854699c0 0-46.315392-3.306426-46.315392-54.276248 0 0-1.983855-33.738258 29.783265-45.654107 0 0 51.61839-14.573707 67.501949-14.573706 0 0 35.073545-5.964283 5.290281-30.457267 0 0-43.682969-9.919277-44.992822 19.202703l-49.659968 0.686719z m173.396587-55.598818h50.308537l-0.686719 19.202702s27.812126-28.460694 48.985966-25.82827c0 0 53.627679-10.580562 64.208241 52.305109l1.309854 134.991183H683.412732l-0.661285-121.765481s-13.899704-35.073545-49.621818-12.564417c0 0-15.908994 5.951566-13.251136 46.976677l0.661285 87.353221-50.283103-0.648569-1.348004-180.022155z m181.980577-73.466233l46.353543 0.661285 2.632423 137.661757 56.260103-73.466233h57.569956l-52.279675 72.143663 62.872954 115.152629-58.231241 1.983856-40.376543-74.114801-24.492984 33.102406 0.661286 40.376543H752.211818l-1.32257-253.501105zM502.716574 601.235339s-0.648568 19.189985 0 23.157696c0 0-5.951566 19.189985-22.483694 22.509128 0 0-31.792554 19.177268-42.385832-5.290281 0 0-4.616279-14.573707 10.593279-20.525272 0.012717-0.012717 51.643824-13.251136 54.276247-19.851271z" fill="#C8C9CA" /></svg>