<?xml version="1.0" standalone="no"?><!DOCTYPE svg PUBLIC "-//W3C//DTD SVG 1.1//EN" "http://www.w3.org/Graphics/SVG/1.1/DTD/svg11.dtd"><svg t="1508678268726" class="icon" style="" viewBox="0 0 1372 1024" version="1.1" xmlns="http://www.w3.org/2000/svg" p-id="1895" xmlns:xlink="http://www.w3.org/1999/xlink" width="267.96875" height="200"><defs><style type="text/css"></style></defs><path d="M792.94293333 572.98986667l518.56746667 0.23466666 60.91093333-60.91093333-60.91093333-60.91093333-640.31253333-0.39146667 121.74506666 121.97866667zM982.48 122.05653333l-121.9008-122.05653333-121.97866667 121.9008 243.88053334 0.15573333zM1132.608 751.8144l-307.84106667-0.07786667-118.304 118.38186667 3.51893334 3.44 300.64853333 0.07786667 121.97866667-121.82293334zM710.1376 150.44053333l-121.82293333 121.82293334 544.45013333 0.23466666-121.82293333-121.97866666-300.80426667-0.07786667zM821.48266667 601.5296l76.70613333 76.784-45.03786667 45.03786667h307.84106667l122.05653333-121.66613334-461.56586666-0.15573333zM738.44266667 901.94346667l121.82293333 122.05653333 122.05653333-121.9008-243.87946666-0.15573333zM559.77493333 300.80426667l-19.54773333 19.31306666 102.5088 102.5088 640.31253333 0.07786667-121.82293333-121.82293333-601.45066667-0.07786667z" fill="#A98349" p-id="1896"></path><path d="M474.31146667 345.76426667l191.8048-191.88266667-153.88053334-153.80266667-512.23466666 511.60853334 512.07786666 512.31253333 320.03946667-319.88266667-357.80586667-358.35306666z" fill="#003E75" p-id="1897"></path></svg>