<?xml version="1.0" standalone="no"?><!DOCTYPE svg PUBLIC "-//W3C//DTD SVG 1.1//EN" "http://www.w3.org/Graphics/SVG/1.1/DTD/svg11.dtd"><svg t="1508678258310" class="icon" style="" viewBox="0 0 1024 1024" version="1.1" xmlns="http://www.w3.org/2000/svg" p-id="1511" xmlns:xlink="http://www.w3.org/1999/xlink" width="200" height="200"><defs><style type="text/css"></style></defs><path d="M513.13777778 245.64622222c22.41422222 0 72.704 18.09066667 72.704 40.39111111l-32.54044445 339.05777778c0 22.18666667-17.97688889 40.16355555-40.16355555 40.16355556-22.18666667 0-40.16355555-17.97688889-40.16355556-40.16355556l-32.54044444-339.05777778c0-22.41422222 50.28977778-40.39111111 72.704-40.39111111z m0 452.03911111c22.30044445-0.11377778 40.50488889 17.86311111 40.61866667 40.16355556 0.11377778 22.30044445-17.86311111 40.50488889-40.16355556 40.61866666-22.30044445 0.11377778-40.50488889-17.86311111-40.61866667-40.16355555v-0.22755555c-0.11377778-22.18666667 17.74933333-40.16355555 39.936-40.27733334 0-0.11377778 0.11377778-0.11377778 0.22755556-0.11377778z" fill="#FFFFFF" p-id="1512"></path><path d="M983.60888889 211.17155555L947.76888889 165.20533333s-140.85688889 22.98311111-138.01244444-56.09244444c0 0 10.01244445-58.93688889-91.93244445-35.95377778 0 0-24.46222222-22.98311111-22.98311111-35.95377778 0 0 7.168-34.47466667-103.53777778-15.81511111 0 0-163.84 20.13866667-343.49511111 225.62133333 0 0-181.02044445 147.91111111-181.02044445-4.43733333 0 0-99.21422222 100.69333333-45.96622222 181.13422223 0 0 60.416 84.76444445 175.33155556 15.8151111 0 0-35.95377778 278.75555555 148.02488889 424.04977778 0 0 192.512 178.176 413.92355555 114.91555556 0 0 185.344-38.79822222 255.77244445-225.73511111 0 0-32.99555555 33.10933333-47.33155556 30.26488889 0 0 50.28977778-60.30222222 53.13422223-86.24355556 0 0-1.36533333-35.84-30.03733334 20.13866667 0 0 7.168-34.47466667-12.97066666-17.18044445 0 0-97.73511111 113.43644445-139.37777778 119.23911112 0 0-309.02044445 182.49955555-449.87733334-185.344 0 0-60.30222222-173.96622222 81.92-304.6968889 142.336-130.84444445 281.71377778-117.76 409.6-22.9831111 0 0 64.73955555-73.38666667 92.04622222-58.9368889-0.22755555 0.11377778 24.23466667-14.44977778 12.62933334-35.84z" fill="#E50012" p-id="1513"></path><path d="M552.50488889 432.46933333l306.06222222-1.47911111v232.78933333h-306.06222222V432.46933333z" fill="#E50012" p-id="1514"></path></svg>