<?xml version="1.0" standalone="no"?><!DOCTYPE svg PUBLIC "-//W3C//DTD SVG 1.1//EN" "http://www.w3.org/Graphics/SVG/1.1/DTD/svg11.dtd"><svg t="1508383943547" class="icon" style="" viewBox="0 0 1024 1024" version="1.1" xmlns="http://www.w3.org/2000/svg" p-id="1649" xmlns:xlink="http://www.w3.org/1999/xlink" width="200" height="200"><defs><style type="text/css"></style></defs><path d="M828.59703015 1009.15467572L199.67452518 1010.41273042c-103.78951157 0.20967577-188.91787863-84.49933972-189.12755442-188.28885131L9.39375397 193.20137414c-0.20967577-103.78951157 84.49933972-188.91787863 188.28885129-189.12755441L826.60511023 2.92060292c103.78951157-0.20967577 188.91787863 84.49933972 189.12755443 188.28885131l1.25805469 628.92250497c0.10483789 103.78951157-84.60417762 188.81304075-188.3936892 189.02271652z" fill="#FF0000" p-id="1650"></path><path d="M773.76681344 237.86231549s-6.6047871 12.16119529-7.23381445 13.31441209-4.92738085 0.41935157-4.92738085 0.41935156l1.25805468-13.83860154 10.27411327-0.73386523 0.62902735 0.83870312z" fill="" p-id="1651"></path><path d="M744.7966069 154.93362769a17.92727927 40.25774994 80.078 1 0 79.31124801-13.87341193 17.92727927 40.25774994 80.078 1 0-79.31124801 13.87341193Z" fill="" p-id="1652"></path><path d="M720.37470943 151.16846501a17.92727927 40.25774994 80.078 1 0 79.31124906-13.87341192 17.92727927 40.25774994 80.078 1 0-79.31124906 13.87341192Z" fill="" p-id="1653"></path><path d="M713.77777888 160.37986698a17.92727927 40.25774994 80.078 1 0 79.311248-13.87341192 17.92727927 40.25774994 80.078 1 0-79.311248 13.87341192Z" fill="" p-id="1654"></path><path d="M726.56461525 168.35675876a17.92727927 40.25774994 80.078 1 0 79.31124802-13.87341191 17.92727927 40.25774994 80.078 1 0-79.31124802 13.87341191Z" fill="" p-id="1655"></path><path d="M459.14830412 181.24985463a28.30623043 22.015957 90 1 0 44.031914 0 28.30623043 22.015957 90 1 0-44.031914 0Z" fill="" p-id="1656"></path><path d="M446.46291937 257.78151468a120.87808772 28.30623043 0 1 0 241.75617544 0 120.87808772 28.30623043 0 1 0-241.75617544 0Z" fill="" p-id="1657"></path><path d="M528.6558255 241.0074522a120.87808772 28.30623043 0 1 0 241.75617544 0 120.87808772 28.30623043 0 1 0-241.75617544 0Z" fill="" p-id="1658"></path><path d="M577.09093089 406.96583283s0.94354101 16.66922458 67.09624992 6.91930078c0 0-7.96767967 181.57922631 4.92738085 240.9174723 0 0-4.92738085 16.77406248-20.75790232-41.51580463-15.72568358-58.2898671-19.70952341-72.02363076-26.62882418-75.06392958-6.91930076-2.93546093-38.4755058 17.82244138-54.30602725 51.37056634-15.72568358 33.54812495-24.74174215 74.01555068-24.74174217 74.01555068s-10.48378905 7.96767967-10.69346482-4.92738086c-0.20967577-12.89506053 8.70154491-79.99131044 8.70154491-79.99131043s-18.24179294 46.96737493-21.38692966 71.60427919-9.54024803 2.51610937-8.28219335-5.03221873c1.25805468-7.54832811 8.59670702-41.30612885-0.20967578-61.53984171 0 0-8.07251757-3.77416406-60.59630069 75.37844324 0 0-4.40319141 11.74184374-9.54024804 6.81446289-5.03221875-4.92738085 0.62902734-12.58054685 5.66124608-25.16109372 5.03221875-12.68538475 27.25785152-64.58014054 34.17715231-70.97525185 0 0-20.86274021 3.77416406-32.29007027-1.88708203-11.42733006-5.66124609-25.37076949-16.45954881-16.45954881-58.28986711 3.56448827-16.77406248 3.87900195-0.20967577 2.51610938 12.05635741-2.93546093 25.99979684 7.54832811 40.78193939 27.4675273 36.48358588 20.86274021-4.50802929 31.45136715-21.17725387 31.45136714-21.17725387l103.89434945-129.99898419z m245.84485318-259.57861683s-22.015957 22.33047067-68.1446288 21.70144334c-21.38692966-0.20967577-34.80617964-1.46773047-37.5319648-9.85476171-4.19351561-13.2095742 32.29007027-32.49974604 77.99939051-29.98363667 0 0-40.57226361-21.38692966-167.84546265-11.42733007-127.37803693 9.8547617-301.09442145 87.85415222-301.09442144 87.85415222s1.04837891 6.91930076-15.72568358-4.92738085-37.53196479-20.75790231-43.40288666-19.70952341c-5.97575976 1.04837891-16.77406248 0-18.76598239 25.68528317l-52.73345891 128.32157794s34.91101753 25.68528317 76.32198427 9.8547617c41.41096675-15.72568358 41.51580463-69.08816982 31.55620502-86.91061121 0 0 5.97575976-1.04837891 11.84668163 8.9112207 5.97575976 9.8547617 71.08008974 47.3867265 93.82991198 57.2414882 22.74982223 9.8547617 146.03918143 53.15281046 175.70830443 60.70113859 29.66912301 7.44349022 64.16078897 1.57256835 77.99939052-11.32249218 13.83860154-12.89506053 85.8622323-91.83799206 103.68467368-122.45065607 0 0-222.4660036 36.58842377-285.47357576 9.8547617 0 0-9.64508593 4.92738085-14.67730467 1.99191992-4.92738085-2.93546093 1.04837891-20.65306442 5.97575976-18.76598238 4.92738085 1.99191992 8.70154491 6.91930076 8.70154491 6.91930076s72.23330653 26.62882418 292.39287653-12.89506053c0 0 65.10432999-63.11241007 49.37864642-90.78961316z m-347.8521206 46.54802338c-12.26603319 1.36289258-12.47570897-19.08049607-7.33865233-31.76588082 3.56448827-8.70154491 22.33047067-12.16119529 21.9111191 2.3064336-0.52418945 18.45146873-3.04029883 28.09655466-14.57246677 29.45944722z m0 0" fill="#FFFFFF" p-id="1659"></path><path d="M509.994681 826.73674629v-64.05595107H269.70623602v64.26562686h102.11210533v61.22532804c0 11.32249217-1.99191992 16.98373826-5.87092186 20.33855074-3.87900195 3.45965039-9.95959959 5.24189452-17.82244139 5.34673243v19.08049605c20.65306442-0.62902734 35.74972066-5.13705664 45.28996868-13.41924997 9.54024803-8.28219335 14.362791-21.07241599 14.362791-38.16099214v-54.41086515H509.994681v-0.20967579z m-34.70134176-19.81436129H304.30273988v-24.2175527h170.99059936v24.2175527z m0 0M407.88257567 714.14085192h-36.06423432v15.09665623H260.89985322v20.02403708h257.79637269v-20.02403708H407.88257567v-15.09665623z m0 0" fill="#FFFFFF" p-id="1660"></path><path d="M260.89985322 932.308502h20.44338865c43.71740033-38.05615425 55.14473038-92.15250573 55.14473038-92.15250572h-39.52388471c-4.71770507 38.37066792-20.86274021 70.66073818-36.06423432 92.15250572z m0 0M443.21294477 840.15599628s11.32249217 54.20118937 55.03989249 92.15250572h20.44338865c-15.09665623-21.49176755-31.24169136-53.78183781-36.06423433-92.15250572h-39.41904681z m0 0M556.64754226 932.308502H577.09093089c43.71740033-38.05615425 55.0398925-92.15250573 55.03989251-92.15250572h-39.41904681c-4.82254296 38.37066792-20.9675781 70.66073818-36.06423433 92.15250572z m0 0M738.85579591 840.15599628s11.42733006 54.20118937 55.0398925 92.15250572h20.44338865c-15.09665623-21.49176755-31.24169136-53.78183781-36.06423434-92.15250572h-39.41904681z m0 0" fill="#FFFFFF" p-id="1661"></path><path d="M647.22747964 729.23750815l7.12897653-15.20149412h-36.1690722l-7.12897656 15.20149412h-54.51570305v20.02403708h45.1851308l-36.2739101 77.68487685h104.62821469v61.22532804c0 11.84668162-1.99191992 16.98373826-5.87092186 20.33855074-3.98383984 3.45965039-9.95959959 5.24189452-17.82244139 5.34673243v19.08049605c20.54822653-0.62902734 35.64488276-5.13705664 45.28996869-13.41924997 9.54024803-8.28219335 14.362791-21.07241599 14.362791-38.16099214v-54.41086515h99.59599596v-20.02403708h-99.59599596v-42.9835351h-35.95939644v42.9835351h-58.60438077l26.73366207-57.76567765h176.33733178v-20.02403708H647.22747964z m0 0" fill="#FFFFFF" p-id="1662"></path></svg>