<?xml version="1.0" standalone="no"?><!DOCTYPE svg PUBLIC "-//W3C//DTD SVG 1.1//EN" "http://www.w3.org/Graphics/SVG/1.1/DTD/svg11.dtd"><svg t="1508664609398" class="icon" style="" viewBox="0 0 1024 1024" version="1.1" xmlns="http://www.w3.org/2000/svg" p-id="1978" xmlns:xlink="http://www.w3.org/1999/xlink" width="200" height="200"><defs><style type="text/css"></style></defs><path d="M808.58871 767.98525c-60.121941 1.932998-115.686887 3.879996-175.782828 5.810994-38.066963 161.894842-352.843655 118.182885-317.77169-87.269914 17.624983-121.701881 182.079822-174.859829 284.119723-82.956919 22.413978 25.330975 33.408967 48.870952 40.60296 100.429902 50.418951-1.933998 118.424884-3.878996 168.831835-5.811995 2.546998-261.822744-294.834712-394.699615-517.823494-267.646738-213.772791 121.777881-189.094815 492.849519 34.917966 587.620426v5.836994c-122.149881-2.405998-256.13975-97.023905-285.311721-209.458795l1.650998-603.621411C138.982364 144.972858 246.15726 65.932936 343.130165 0l11.647989 5.823994c-6.719993 90.994911-2.457998 241.036765 2.904997 350.539658 60.749941-58.955942 101.682901-120.613882 206.553798-141.093862 67.583934-13.195987 132.287871-5.234995 173.093831 8.729991 306.366701 104.959898 325.439682 500.836511 65.458936 637.092378-5.835994 0-18.482982 11.455989-28.133972 13.350987 0-1.932998 6.079994-10.34299 10.661989-19.174981l23.269977-87.282915z" fill="#1D2087" p-id="1979"></path></svg>