<?xml version="1.0" standalone="no"?><!DOCTYPE svg PUBLIC "-//W3C//DTD SVG 1.1//EN" "http://www.w3.org/Graphics/SVG/1.1/DTD/svg11.dtd"><svg class="icon" width="200px" height="200.00px" viewBox="0 0 1024 1024" version="1.1" xmlns="http://www.w3.org/2000/svg"><path d="M983.04 568.77511111c-92.16-117.19111111-343.83644445-145.408-343.83644445-145.408l101.60355556-62.464-226.64533333-126.63466666L300.032 356.12444445l178.176 100.01066666C767.43111111 453.17688889 853.33333333 609.39377778 853.33333333 609.39377778c71.90755555 233.01688889-351.68711111 248.03555555-351.68711111 248.03555555C260.89244445 883.93955555 147.00088889 668.78577778 147.00088889 668.78577778l-147.00088889 4.66488889c171.91822222 348.61511111 798.26488889 195.69777778 798.26488889 195.69777778C1121.84888889 767.65866667 983.04 568.77511111 983.04 568.77511111z m-468.87822222-154.73777778l-101.60355556-51.65511111 96.93866667-62.57777777 101.60355556 54.84088888-96.93866667 59.392z" fill="#1D2087" /><path d="M527.36 117.41866667c-158.37866667-11.03644445-483.328 8.87466667-523.264 205.14133333-31.85777778 156.21688889 206.96177778 248.03555555 374.10133333 265.44355555-34.13333333 20.25244445-68.38044445 40.16355555-102.51377778 60.416 74.41066667 42.32533333 148.82133333 84.53688889 223.232 126.74844445L703.37422222 655.36l-204.23111111-108.544c-36.40888889-8.41955555-74.97955555 4.77866667-98.98666666 5.12-115.712 1.70666667-276.36622222-124.928-233.24444445-235.29244445C250.76622222 75.776 811.91822222 110.47822222 866.98666667 352.82488889h157.01333333c-76.91377778-186.14044445-338.26133333-224.48355555-496.64-235.40622222z m-19.456 482.64533333l103.19644445 56.20622222-106.26844445 56.20622223-98.53155555-56.20622223 101.60355555-56.20622222z" fill="#5AA472" /></svg>