<?xml version="1.0" standalone="no"?><!DOCTYPE svg PUBLIC "-//W3C//DTD SVG 1.1//EN" "http://www.w3.org/Graphics/SVG/1.1/DTD/svg11.dtd"><svg t="1508664679224" class="icon" style="" viewBox="0 0 1024 1024" version="1.1" xmlns="http://www.w3.org/2000/svg" p-id="2872" xmlns:xlink="http://www.w3.org/1999/xlink" width="200" height="200"><defs><style type="text/css"></style></defs><path d="M486.51377778 270.90488889h50.97244444c11.264 0 20.36622222-9.216 20.36622223-20.36622222V4.32355555C542.60622222 2.73066667 527.24622222 2.27555555 512 2.27555555c-15.24622222 0-30.60622222 0.45511111-45.85244445 2.048v246.21511112c0 11.15022222 9.10222222 20.36622222 20.36622223 20.36622222z" fill="#008566" p-id="2873"></path><path d="M634.88 17.06666667v298.66666666c0 11.264-9.216 20.36622222-20.36622222 20.36622222h-71.33866667c-11.264 0-20.36622222 9.216-19.91111111 19.91111112v150.41422222s1.024-11.71911111 23.43822222-11.71911111h115.712c12.74311111 0 23.43822222-10.24 23.43822223-23.43822223V143.01866667C824.09244445 208.21333333 919.77955555 348.84266667 919.77955555 512c0 207.872-155.30666667 379.22133333-356.352 404.59377778V694.95466667c0-11.264 9.216-20.36622222 20.36622223-20.36622222h81.57866667c11.264 0 20.36622222-9.216 19.9111111-19.91111112V504.37688889s-1.024 11.71911111-23.43822222 11.71911111H546.13333333c-12.74311111 0-23.43822222 10.24-23.43822222 23.43822222v135.62311111h-20.36622222V539.53422222c0-13.19822222-10.69511111-23.43822222-23.43822222-23.43822222H363.17866667c-22.41422222 0-23.43822222-11.71911111-23.43822222-11.71911111v150.41422222c-0.45511111 10.69511111 8.64711111 19.91111111 19.9111111 19.91111111h81.57866667c11.264 0 20.36622222 9.216 20.36622223 20.36622223v221.6391111c-201.50044445-24.80355555-357.26222222-196.49422222-357.26222223-404.70755555 0-163.61244445 96.14222222-304.46933333 234.95111111-369.55022222v328.81777777c0 13.19822222 10.69511111 23.43822222 23.43822222 23.43822223h115.712c22.41422222 0 23.43822222 11.71911111 23.43822223 11.71911111V356.01066667c0.45511111-10.69511111-8.64711111-19.91111111-19.91111111-19.91111112h-71.33866667c-11.264 0-20.36622222-9.216-20.36622222-20.36622222v-299.23555555C167.48088889 71.56622222 2.27555555 272.384 2.27555555 512c0 281.37244445 228.352 509.72444445 509.72444445 509.72444445s509.72444445-228.352 509.72444445-509.72444445c0-239.04711111-164.63644445-439.86488889-386.84444445-494.93333333z" fill="#008566" p-id="2874"></path></svg>