<?xml version="1.0" standalone="no"?><!DOCTYPE svg PUBLIC "-//W3C//DTD SVG 1.1//EN" "http://www.w3.org/Graphics/SVG/1.1/DTD/svg11.dtd"><svg t="1508678266052" class="icon" style="" viewBox="0 0 1024 1024" version="1.1" xmlns="http://www.w3.org/2000/svg" p-id="1765" xmlns:xlink="http://www.w3.org/1999/xlink" width="200" height="200"><defs><style type="text/css"></style></defs><path d="M652.914 395.835c15.538-0.447 31.099-0.142 46.651-0.144 11.681-0.002 12.64-0.924 10.995-12.29-0.244-1.671-2.629-4.327-4.058-4.345-20.345-0.279-40.694-0.195-62.042-0.195 0 3.677 0.287 6.125-0.054 8.485-0.996 6.828 1.897 8.683 8.514 8.492z" fill="#FF6100" p-id="1766"></path><path d="M703.184 415.327c-14.801 0.509-29.633 0.151-44.453 0.151-15.499 0-15.499 0-13.609 16.919 19.727 0 39.111-0.303 58.475 0.158 6.895 0.164 7.263-3.087 7.289-8.386 0.027-5.607-0.525-9.094-7.703-8.846z" fill="#FF6100" p-id="1767"></path><path d="M635.377 627.051c7.807 1.972 16.784 0.17 25.093-1.035 5.164-0.75 8.161-4.886 8.114-10.535-0.047-5.676-3.085-9.153-8.389-10.284-4.684-0.997-9.517-1.291-14.284-1.9-0.020 0.192-0.045 0.382-0.065 0.575-3.15 0-6.295 0.081-9.441-0.018-4.547-0.142-5.584 2.93-4.765 6.207 1.445 5.797-4.703 14.855 3.735 16.988z" fill="#FF6100" p-id="1768"></path><path d="M723.819 641.595c10.737 0 20.115 0 30.402 0-5.093-11.638-9.711-22.191-15.223-34.788-5.516 12.644-10.182 23.338-15.177 34.788z" fill="#FF6100" p-id="1769"></path><path d="M665.088 640.117c-5.36-1.167-10.93-1.383-16.411-2.014-0.020 0.192-0.042 0.381-0.062 0.571-3.87 0-7.743 0.105-11.607-0.031-3.42-0.123-6.13 0.843-5.369 4.74 1.249 6.405-4.357 16.522 3.351 18.59 9.306 2.494 20.063 0.356 30.073-0.804 5.175-0.598 8.025-4.827 8.065-10.516 0.042-5.727-2.771-9.39-8.036-10.535z" fill="#FF6100" p-id="1770"></path><path d="M419.237 441.516c-20.623 0.217-41.257 0.092-61.887 0.092-4.3 0-8.601 0-12.731 0-3.212 18.711-1.697 21.793 13.925 29.401 26.771 13.049 26.594 12.681 54.697-1.036 9.859-4.81 13.283-11.572 12.859-21.889-0.208-5.104-1.879-6.628-6.868-6.575z" fill="#FF6100" p-id="1771"></path><path d="M512 1.104c-282.159 0-510.896 228.734-510.896 510.896s228.734 510.896 510.896 510.896 510.896-228.734 510.896-510.896-228.734-510.896-510.896-510.896zM868.973 357.824c15.798-0.151 31.598-0.035 47.394-0.035 17.986 0 35.977 0.192 53.959-0.108 6.124-0.102 8.819 1.563 8.665 8.177-0.477 20.377 2.13 17.29-17.518 17.371-33.057 0.138-66.114-0.164-99.165 0.192-7.246 0.076-9.251-2.509-9.187-9.285 0.192-19.636-0.169-16.158 15.853-16.314zM766.363 400.233c10.339-12.907 20.818-25.702 31.077-38.67 2.932-3.703 6.070-5.691 11.076-5.43 8.191 0.429 16.421 0.117 24.637 0.117 0.385 0.642 0.771 1.285 1.157 1.925-6.194 7.719-12.395 15.429-18.576 23.15-2.129 2.658-4.78 5.067-6.252 8.052-9.911 20.106-27.354 18.911-46.491 16.283 1.285-2.092 2.148-3.903 3.372-5.428zM540.802 358.809c0.693-1.218 2.681-2.356 4.097-2.393 8.63-0.217 17.268-0.11 27.259-0.11-2.689 5.52-4.555 9.349-7.106 14.582 11.328 0 21.396 0.345 31.431-0.119 6.797-0.315 9.424 2.225 8.645 8.844-0.252 2.153-0.178 4.372-0.017 6.541 0.406 5.382-2.174 7.378-7.353 7.329-13.339-0.131-26.685 0.053-40.023-0.102-3.94-0.045-6.439 1.029-9.006 4.444-2.086 2.78-6.246 5.091-9.735 5.509-7.056 0.841-14.279 0.251-23.274 0.251 9.030-16.202 16.959-30.546 25.077-44.78zM109.024 647.667c-10.199 0.217-20.413 0.186-30.615 0.069-4.244-0.050-6.356 1.414-6.080 5.929 0.22 3.63-0.38 7.348 0.116 10.919 1.047 7.568-2.058 9.545-9.351 9.319-6.252-0.193-7.845-2.333-7.648-8.17 0.375-11.165 0.11-22.354 0.11-33.531 0.001-11.421 0.138-22.845-0.069-34.262-0.081-4.42 0.886-6.736 5.981-6.658 15.791 0.237 31.601-0.226 47.382 0.205 17.36 0.473 27.587 11.999 27.446 29.999-0.127 16.532-9.677 25.806-27.277 26.183zM166.017 632.681c-0.001 11.638-0.199 23.28 0.085 34.908 0.138 5.599-2.693 6.436-7.243 6.102-4.163-0.314-9.115 1.347-9.074-5.841 0.125-23.515 0.158-47.030-0.050-70.547-0.069-7.875 5.398-5.481 9.564-5.967 4.956-0.58 6.93 1.258 6.803 6.439-0.285 11.628-0.086 23.268-0.086 34.908zM162.711 495.653c0 10.862-0.151 20.553 0.057 30.229 0.123 5.666-2.311 7.93-7.871 7.729-6.070-0.221-12.163-0.217-18.234-0.001-5.045 0.181-7.015-2.027-6.918-6.953 0.158-8.021-0.237-16.061 0.119-24.071 0.246-5.454-1.707-7.102-7.121-7.049-25.044 0.244-50.095 0.119-75.141 0.101-9.149-0.006-9.449-0.378-9.551-9.487-0.187-16.167 0.047-14.548 14.78-14.533 22.858 0.022 45.722-0.26 68.571 0.167 6.939 0.129 8.589-2.25 8.505-8.751-0.318-24.316-0.332-48.635 0.006-72.95 0.091-6.527-2.099-8.302-8.397-8.21-22.369 0.323-44.747-0.076-67.116 0.246-6.809 0.101-9.535-1.765-9.316-9.018 0.419-13.865 0.047-13.875 13.843-13.872 59.094 0.001 118.182-0.001 177.276 0.003 10.121 0.001 10.247 0.133 10.311 10.018 0.007 1.458-0.125 2.93 0.017 4.374 0.615 6.189-1.813 8.581-8.309 8.494-22.369-0.323-44.747 0.115-67.116-0.26-6.66-0.11-8.677 1.778-8.563 8.56 0.411 24.31 0.158 48.635 0.158 72.95 0 2.378 0 4.75 0 7.813 3.306 0.175 5.891 0.419 8.473 0.42 24.801 0.031 49.612 0.236 74.407-0.112 7.093-0.101 9.377 2.268 9.221 9.279-0.327 14.873-0.027 14.878-15.207 14.876-22.615-0.002-45.231 0-67.847 0.001-2.629 0-5.262 0-9.060 0zM55.901 398.676c10.427 0 20.431-0.144 30.422 0.164 1.436 0.045 3.31 2.032 4.121 3.574 8.453 16.103 16.742 32.281 25.014 48.48 0.505 0.987 0.407 2.279 0.724 4.238-10.406 0-20.402 0.151-30.383-0.175-1.392-0.047-3.165-2.214-3.993-3.799-8.403-16.123-16.654-32.326-24.91-48.525-0.414-0.823-0.474-1.83-0.996-3.953zM236.398 398.457c-1.094 3.107-1.619 5.363-2.638 7.378-7.305 14.494-14.847 28.873-21.998 43.44-2.352 4.788-5.691 6.844-10.86 6.771-8.309-0.115-16.623-0.031-26.698-0.031 10.133-19.559 19.065-36.976 28.265-54.252 0.837-1.573 3.367-3.099 5.167-3.157 9.169-0.318 18.352-0.144 28.764-0.144zM267.771 663.564c-0.031 3.299-0.987 9.115-2.428 9.417-5.171 1.081-11.13 2.494-15.591-2.609-5.918-6.766-11.895-13.487-17.856-20.214-10.426-11.776-20.861-23.546-31.294-35.313-0.758 0.26-1.516 0.523-2.276 0.782 0 9.383 0.006 18.766-0.002 28.15-0.007 8.263-0.123 16.528-0.018 24.791 0.065 4.989-3.026 5.443-6.769 5.103-3.306-0.303-7.93 1.516-7.916-4.539 0.044-25.029 0.102-50.062 0.198-75.091 0.002-0.655 0.505-1.307 0.745-1.9 9.194-2.428 15.986-0.17 22.279 7.475 14.035 17.035 29.038 33.277 45.166 51.566 0.295-4.281 0.567-6.475 0.571-8.665 0.039-14.827 0.348-29.662-0.123-44.474-0.212-6.715 3.291-6.655 8.117-6.786 4.998-0.135 7.507 0.795 7.423 6.694-0.311 21.869-0.020 43.748-0.234 65.622zM365.328 657.425c-2.452 9.983-10.988 15.633-21.182 16.252-12.828 0.779-25.781 0.796-38.609 0.017-12.921-0.787-22.261-11.302-22.559-24.206-0.267-11.424-0.231-22.86 0.006-34.281 0.252-12.142 8.452-22.661 20.498-23.66 14.186-1.178 28.631-1.27 42.801 0.001 13.060 1.177 21.662 13.402 20.092 26.755-3.394 0-6.946-0.157-10.478 0.042-4.107 0.229-6.044-1.523-5.43-5.563 1.044-6.889-2.491-8.079-8.438-7.911-12.15 0.348-24.319 0.267-36.468 0.027-4.75-0.096-6.615 1.795-6.598 6.346 0.054 14.102 0.058 28.201-0.007 42.308-0.022 4.494 1.659 6.561 6.489 6.479 12.882-0.222 25.774-0.205 38.662-0.003 4.681 0.071 6.885-1.547 6.33-6.33-0.029-0.243 0.001-0.485-0.001-0.727-0.167-14.508 1.566-12.407-12.205-12.628-1.458-0.022-2.918 0.001-4.377-0.002-10.354-0.023-10.839-0.672-8.494-12.238 13.706 0 27.054 0 42.258 0-0.65 9.94 0.007 19.995-2.284 29.324zM450.413 670.169c-0.065 1.266-2.15 2.47-3.394 3.598-0.274 0.246-0.937 0.050-1.423 0.086-20.046 1.479-22.067-0.989-18.773-24.365 2.723 0 5.107 0 7.483 0 5.056 0 10.106 0 16.267 0 0 7.312 0.18 14.006-0.158 20.677zM467.060 665.601c-9.277-18.409-18.524-36.826-28.479-56.622-1.871 3.26-3.212 5.347-4.322 7.547-8.086 16.048-16.123 32.123-24.183 48.183-5.038 10.045-8.294 11.302-20.134 7.444 0.468-1.498 0.739-3.107 1.443-4.498 11.956-23.625 24.071-47.174 35.871-70.877 2.229-4.477 5.249-5.861 9.861-5.492 4.431 0.356 9.027-1.060 11.829 4.581 12.105 24.365 24.549 48.559 36.83 72.834 0.509 1.004 0.642 2.201 0.94 3.269-10.509 4.107-15.161 2.56-19.659-6.372zM477.521 441.61c-7.009 0.007-14.019 0.001-21.534 0.001-1.713 12.561 1.856 26.583-9.825 34.972-9.939 7.138-21.050 12.646-32.126 19.156 11.028 5.825 22.572 8.979 34.833 9.262 10.693 0.244 21.401 0.244 32.097 0.001 5.133-0.117 7.598 1.377 7.532 6.962-0.234 18.863 1.322 15.917-15.217 15.865-18.62-0.061-37.513 2.051-55.413-5.469-8.724-3.664-17.582-7.051-26.116-11.129-5.047-2.411-9.174-2.172-14.41-0.091-14.586 5.799-29.187 12.688-44.449 15.391-15.584 2.757-31.956 1.153-47.985 1.122-1.483-0.003-4.069-2.329-4.234-3.798-0.55-4.803-0.886-9.841 0.112-14.487 0.394-1.839 4.439-3.964 6.924-4.107 14.295-0.815 28.689-0.385 42.911-1.782 8.236-0.807 16.207-4.259 24.301-6.516-0.007-0.762-0.019-1.525-0.031-2.286-6.91-3.434-13.771-6.965-20.738-10.278-14.241-6.769-21.718-17.721-20.273-33.695 0.681-7.526-1.984-9.861-9.351-9.229-7.483 0.642-15.072-0.039-22.602 0.195-5.41 0.169-7.232-2.367-7.438-7.447-0.639-15.851-0.745-15.842 15.038-15.831 6.078 0.003 12.161-0.11 18.24-0.004 4.205 0.074 6.406-1.482 6.028-5.995-0.199-2.414 0.102-4.868-0.039-7.289-0.267-4.479 2.196-6.124 6.199-6.178 4.862-0.065 9.74 0.205 14.586-0.085 6.475-0.386 9.641 2.143 9.162 8.859-0.22 3.107-0.037 6.244-0.037 10.037 3.157 0.251 5.741 0.627 8.319 0.627 21.644 0.042 43.291-0.199 64.925 0.14 6.809 0.109 9.55-1.716 9.216-8.97-0.485-10.533 0.017-10.603 10.41-10.628 1.217-0.003 2.431 0 3.648 0 13.981 0 14.145-0.007 15.168 14.122 0.307 4.24 2.196 5.383 5.951 5.347 7.781-0.071 15.562 0.192 23.338-0.019 5.694-0.151 8.361 1.559 8.203 7.93-0.423 16.949 1.355 15.31-15.321 15.331zM491.083 396.585c-0.779 1.347-2.98 2.271-4.673 2.591-2.348 0.444-4.842 0.142-7.27 0.138-10.093-0.002-10.306 0.007-10.919-10.050-0.276-4.494-2.229-5.767-6.38-5.764-51.518 0.066-103.039 0.081-154.559-0.031-4.794-0.007-6.662 1.747-6.13 6.438 0.831 7.312-2.473 9.763-9.772 9.557-14.598-0.414-14.608-0.071-14.353-14.153 0.262-14.546 7.278-22.017 21.892-22.249 19.922-0.315 39.853-0.081 59.78-0.135 2.841-0.006 5.682-0.307 8.366-0.462 2.197-13.383 2.197-13.383 15.831-13.383 2.674 0 5.369 0.229 8.014-0.044 6.889-0.706 10.8 1.303 9.904 9.174-0.615 5.43 3.761 4.681 7.003 4.691 19.685 0.076 39.366-0.018 59.052 0.117 4.085 0.029 8.409 0.092 12.218 1.351 10.578 3.487 17.566 22.533 11.993 32.209zM580.94 663.445c-0.037 3.328-1.65 9.529-2.333 9.495-5.263-0.212-11.91 0.007-15.418-3.026-8.020-6.947-14.507-15.664-21.591-23.682-7.732-8.746-15.484-17.476-23.12-26.304-1.558-1.799-2.644-4.013-3.949-6.034-0.958 0.582-1.911 1.163-2.871 1.745 0 16.486 0.017 32.963-0.004 49.45-0.006 7.934-5.298 11.556-12.565 8.211-1.404-0.645-2.575-3.412-2.587-5.211-0.169-23.835-0.069-47.673-0.151-71.511-0.017-3.666 1.278-5.068 5.063-5.317 6.946-0.458 12.303 0.948 17.177 6.814 13.055 15.705 26.891 30.757 40.366 46.11 1.578 1.799 2.851 3.863 4.265 5.81 0.781-0.325 1.566-0.65 2.348-0.976 0.187-2.419 0.526-4.842 0.532-7.259 0.053-13.865 0.115-27.73-0.017-41.595-0.050-5.195-0.303-9.169 7.31-9.086 7.15 0.076 7.773 3.293 7.729 8.882-0.17 21.157 0.037 42.323-0.183 63.482zM605.095 423.411c0.017 11.312 0.017 11.312-11.108 11.335-4.859 0.017-9.773-0.385-14.548 0.243-1.839 0.243-4.593 2.645-4.814 4.34-0.645 4.972-0.231 10.086-0.231 16.287 8.409 0 15.668 0.199 22.907-0.065 5.497-0.203 7.843 1.683 7.895 7.516 0.133 15.038 0.351 15.038-14.958 15.038-4.842 0-9.687 0-15.196 0 0 11.414 0 22.407 0 34.585 5.659 0 11.386 0.167 17.101-0.039 8.765-0.307 6.939 5.959 7.241 11.097 0.305 5.212-0.294 9.025-7.165 8.735-9.7-0.411-19.437 0.054-29.149-0.186-9.221-0.231-15.462-6.48-15.662-15.681-0.229-10.443-0.378-20.909 0.035-31.338 0.231-5.923-1.977-7.772-7.584-7.25-4.094 0.382-8.452 0.812-12.315-0.211-2.46-0.65-4.288-3.861-6.256-6.049-0.368-0.405-0.054-1.412-0.069-2.141-0.259-14.016-0.259-14.016 13.718-14.017 11.984-0.001 15.877-5.459 12.066-17.524-0.458-1.45-3.006-2.996-4.703-3.142-5.067-0.444-10.191-0.259-15.294-0.237-3.898 0.017-5.791-1.782-5.79-5.741 0.004-17.684-1.434-16.153 14.429-16.167 20.169-0.017 40.336 0.208 60.498-0.135 7.033-0.123 9.969 2.329 8.963 9.296-0.069 0.473-0.006 0.97-0.005 1.455zM618.682 374.035c0.029-9.57 6.447-16.066 16.067-16.143 28.679-0.231 57.367-0.226 86.052-0.003 9.517 0.071 15.74 6.71 15.818 16.365 0.161 20.662 0.172 41.328 0.007 61.986-0.085 10.734-6.555 16.959-17.526 17.018-21.633 0.123-43.27 0.039-64.903 0.042-2.871 0-5.741 0-9.164 0 0 19.799 0 38.875 0 59.375 6.35 0 12.371 0.215 18.368-0.053 7.911-0.351 7.481 4.861 7.461 10.22-0.019 5.057 0.567 9.917-7.093 9.625-9.708-0.37-19.449 0.061-29.169-0.164-9.951-0.231-15.892-6.011-15.924-16.061-0.142-47.404-0.144-94.804 0.002-142.201zM677.996 668.581c-3.95 2.544-8.874 4.661-13.47 4.919-12.85 0.73-25.757 0.455-38.641 0.434-4.737-0.006-7.027-2.669-7.022-7.41 0.018-22.129 0.007-44.251 0.007-66.382 0.001-5.145 2.687-7.516 7.732-7.497 10.452 0.039 20.914-0.116 31.363 0.116 9.807 0.215 18.362 3.387 22.609 13.005 3.898 8.823 1.13 15.924-8.507 24.611-0.294 0.262-0.294 0.848-0.582 1.781 1.744 0.994 3.584 2.009 5.394 3.072 12.662 7.431 13.442 25.402 1.105 33.347zM682.37 504.323c-7.651-13.129-15.281-26.276-24.013-41.294 10.244 0 18.194-0.277 26.098 0.203 1.888 0.115 4.016 2.465 5.351 4.288 2.689 3.675 4.908 7.693 7.502 11.867 6.058-5.691 10.907-13.063 17.63-15.762 6.627-2.66 15.153-0.58 24.669-0.58-2.19 3.202-3.281 5.164-4.718 6.837-6.953 8.108-14.179 15.987-20.878 24.292-1.792 2.221-3.613 6.318-2.723 8.411 1.961 4.625 4.103 10.207 10.998 9.994 3.879-0.119 7.772-0.050 11.647 0.115 7.799 0.327 6.59 6.148 6.731 11.179 0.135 4.837-0.474 8.97-6.865 8.498-0.484-0.037-0.971 0-1.455 0.007-32.9 0.681-33.371 0.426-49.975-28.053zM775.123 673.953c-2.474 0.51-5.717-2.619-8.574-4.176-0.339-0.186-0.51-0.831-0.597-1.297-2.505-13.458-11.442-15.961-23.433-14.441-6.215 0.787-12.668-0.345-18.889 0.402-2.666 0.323-5.679 2.738-7.361 5.056-2.225 3.069-2.678 7.498-5.076 10.35-1.878 2.233-5.888 4.525-8.361 4.003-4.45-0.945-4.299-5.135-2.619-8.905 6.711-15.045 13.429-30.095 20.155-45.132 3.265-7.3 6.227-14.763 9.986-21.805 1.631-3.056 4.919-5.223 8.597-8.96 3.77 3.513 7.449 5.465 8.851 8.473 10.32 22.191 20.229 44.58 30.155 66.956 1.69 3.815 2.153 8.449-2.832 9.474zM786.657 524.783c0.257-17.739-0.178-35.493 0.234-53.225 0.147-6.361-1.567-8.874-8.127-8.161-4.916 0.529-9.927 0.105-16.516 0.105 2.082-3.329 2.905-4.985 4.034-6.393 10.485-13.086 20.841-26.284 31.702-39.049 2.167-2.548 6.254-4.525 9.616-4.794 8.425-0.676 16.945-0.222 27.957-0.222-10.973 13.926-20.72 26.304-31.418 39.879 3.403 0.461 5.018 0.711 6.638 0.889 1.677 0.183 3.36 0.298 5.682 0.494 0.244 2.161 0.677 4.257 0.682 6.353 0.051 21.146-0.138 42.295 0.138 63.44 0.081 6.305-2.004 8.922-8.434 8.381-4.827-0.407-9.731-0.318-14.576-0.027-5.694 0.346-7.698-1.959-7.619-7.659zM867.57 664.846c-0.157 3.216-2.478 8.23-4.831 8.918-2.622 0.769-7.487-1.586-9.514-4.085-12.54-15.491-24.549-31.413-36.75-47.174-1.586-2.047-3.299-4.012-6.189-7.507-0.393 3.83-0.757 5.818-0.762 7.804-0.053 14.347-0.138 28.695 0.023 43.042 0.054 4.793-1.392 8.79-6.377 8.837-5.099 0.048-6.393-4.085-6.372-8.805 0.101-21.155 0.027-42.31 0.047-63.467 0.003-3.852-0.634-9.010 4.398-9.355 3.706-0.253 8.976 1.355 11.207 4.061 12.205 14.813 23.674 30.235 35.423 45.426 1.586 2.053 3.31 4.003 4.969 5.995 0.717-0.212 1.434-0.438 2.151-0.654 0-4.034-0.001-8.073 0-12.105 0.002-11.43-0.003-22.858 0.007-34.287 0.006-4.643 0.419-9.313 6.671-9.030 5.553 0.246 6.164 4.449 6.132 8.933-0.065 9.483-0.007 18.969-0.007 28.451-0.001 11.674 0.345 23.362-0.229 35.006zM954.69 673.204c-2.814 3.551-6.683 1.566-9.215-1.582-6.848-8.51-13.534-17.152-20.3-25.73-2.083-2.645-4.227-5.249-6.785-8.418-7.822 6.683-16.467 11.769-14.423 24.143 0.886 5.351 1.076 12.822-6.627 12.915-7.839 0.086-6.841-7.212-6.844-12.764-0.006-19.913 0.037-39.829-0.027-59.741-0.017-5.083 0.782-9.724 7.081-9.578 5.906 0.138 6.516 4.912 6.555 9.479 0.086 10.128 0.027 20.26 0.027 31.999 2.787-2.311 4.449-3.487 5.873-4.903 10.318-10.289 20.587-20.623 30.871-30.947 1.029-1.031 1.925-2.726 3.116-2.963 3.394-0.682 6.907-0.774 10.369-1.098-0.501 3.263 0.086 7.429-1.714 9.613-4.605 5.584-10.254 10.308-15.538 15.324-2.987 2.834-6.078 5.549-9.878 9.006 8.652 10.783 16.532 20.602 24.405 30.43 1.364 1.705 3.529 3.328 3.812 5.218 0.473 3.175 0.925 7.474-0.758 9.597zM970.176 440.14c-3.827 0.001-7.651 0-12.199 0 0 22.62 0.023 44.432-0.021 66.249-0.007 3.879-0.007 7.799-0.547 11.627-1.31 9.402-6.666 14.23-16.159 14.301-20.172 0.154-40.355-0.071-60.526 0.154-5.411 0.061-7.241-2.147-7.507-7.255-0.788-15.199-0.485-15.658 14.351-15.664 10.938-0.002 21.879-0.167 32.813 0.065 4.716 0.101 6.445-1.589 6.405-6.33-0.17-18.959-0.221-37.922 0.017-56.878 0.066-5.405-2.304-6.382-7.021-6.342-21.631 0.175-43.271-0.135-64.898 0.198-7.067 0.11-9.462-2.582-9.437-9.386 0.066-19.507 0.147-16.169 16.027-16.214 38.163-0.109 76.329-0.042 114.49-0.027 9.863 0.003 9.965 0.135 10.005 9.671 0.069 15.827 0.069 15.827-15.794 15.833z" fill="#FF6100" p-id="1772"></path><path d="M112.151 605.027c-5.574 0.193-11.161 0.050-16.74 0.050-0.007-0.187-0.027-0.377-0.039-0.567-7.395 0.575-17.662-1.531-21.388 2.468-3.847 4.123-1.339 14.181-1.61 21.643-0.007 0.244 0.021 0.485 0.003 0.727-0.339 4.076 1.638 5.62 5.599 5.584 11.401-0.105 22.807-0.076 34.209-0.029 4.109 0.007 6.325-1.465 6.164-5.993-0.212-6.058-0.237-12.138 0.004-18.194 0.186-4.647-2.073-5.827-6.206-5.684z" fill="#FF6100" p-id="1773"></path></svg>