<?xml version="1.0" standalone="no"?><!DOCTYPE svg PUBLIC "-//W3C//DTD SVG 1.1//EN" "http://www.w3.org/Graphics/SVG/1.1/DTD/svg11.dtd"><svg t="1508678273186" class="icon" style="" viewBox="0 0 1024 1024" version="1.1" xmlns="http://www.w3.org/2000/svg" p-id="2019" xmlns:xlink="http://www.w3.org/1999/xlink" width="200" height="200"><defs><style type="text/css"></style></defs><path d="M727.916 240.503C786.237 263.69 832.302 312.14 852.402 372.5c-14.657-3.404-29.68-4.787-45.378-4.787-27.96 0-54.554 5.146-79.11 15.002V240.503h0.002z m0 543.359c24.555 9.901 51.83 15.34 80.147 15.34C926.787 799.201 1024 702.33 1024 583.29V224.137L864.337 64.82v359.875h-0.68c0.323 5.089 0.68 10.214 0.68 15.344v0.681c0 91.09-56.596 168.848-136.427 200.92v142.223h0.006v-0.001zM591.089 582.63v0.66c0 119.04-96.814 215.911-215.578 215.911-28.279 0-55.235-5.443-79.785-15.34v-142.57c79.509-31.73 136.105-109.83 136.105-200.577v-0.68c0.358-118.385 97.207-215.235 215.895-215.235 28.319 0 55.276 5.448 80.19 15.704v142.212c-79.833 31.723-136.429 109.491-136.429 199.915h-0.4 0.002z m136.827 58.998c-24.914 9.529-51.514 15.002-79.469 15.002-15.661 0-30.72-1.7-45.42-4.772 20.149 60.001 66.171 108.472 124.894 132v-142.23h-0.005z m-432.19-258.913c24.55-9.534 51.511-15.002 79.785-15.002 15.38 0 30.361 1.384 45.061 4.787-20.106-60.364-66.17-108.81-124.851-132.341v142.556h0.005z m0 401.147c-58.68-23.19-104.704-72.004-125.174-132 14.659 3.073 29.68 4.773 45.343 4.773 27.996 0 54.917-5.467 79.831-15.34v142.567z m0-543.703c-24.914-9.912-51.835-15.36-79.831-15.36C96.855 224.799 0 321.649 0 440.714v359.189L159.658 959.18V599.328h0.322c-0.322-4.809-0.322-9.893-0.322-15.044v-0.997c0-90.748 56.237-168.494 136.07-200.576V240.159h-0.002z" fill="#2C5082" p-id="2020"></path></svg>