<?xml version="1.0" standalone="no"?><!DOCTYPE svg PUBLIC "-//W3C//DTD SVG 1.1//EN" "http://www.w3.org/Graphics/SVG/1.1/DTD/svg11.dtd"><svg class="icon" width="200px" height="200.00px" viewBox="0 0 1024 1024" version="1.1" xmlns="http://www.w3.org/2000/svg"><path d="M527.98255279 435.35660569h36.47906474l81.9715999 2.8710184 11.47581759 0.8173424 65.57934392 4.91850239 21.31282237 2.4602832 51.23457194 6.14761199 39.34492315 6.5562832 37.70817435 6.55834718 11.06611438 2.4602832 21.31488637 4.9164384 10.24670799 2.46028319 19.67297758 4.9174704 18.85460317 4.9185024 9.01553439 2.45821919 17.21475838 4.9174704 16.39535198 5.73790879 15.57284959 5.73894079 7.37775359 2.8689544L510.36015521-0.32920735 4.17959183 505.44165281l8.19819199-2.86998639 8.60686319-2.8689544 9.01759839-2.8689544 18.85357117-5.73790879 9.83803679-2.86895439 10.24670799-2.8679224 10.24773999-2.4602832 10.65744318-2.46028319 22.13222877-4.91747041 11.47581759-2.46028318 11.88758478-2.45821921 11.88448879-2.05057999 24.59251197-4.09703199 51.23457193-8.199224 10.65641118-1.63778079 75.00561351-8.60892719 89.75905669-6.5583472 81.5629287-2.86792239h47.95385034z m6.05989216 541.37582263L958.28649635 551.11272361l-5.50054926-0.34468733-29.91142958-1.71827665-19.59660972-1.02890198h-73.57113632l-68.41733837 2.75027462-8.93813454 0.68627867-37.47287881 2.75027463-19.94129705 1.37565331-28.53474427 2.06296397-26.47281229 2.06296396-8.59551121 1.030966-8.25082388 0.68731066-8.25185589 1.03096598-7.90613656 1.03199798-15.12909046 2.06193198-14.43971578 2.06399596-13.75034115 2.06193198-6.53254725 1.03199798-12.37675182 2.06193198-11.69047317 2.06296397-11.00109851 2.06399596-10.31378786 2.06399597-9.6254452 2.06296397-4.46958327 1.37565332-8.25185588 2.74924262-6.87517057 2.06399598-3.43861729 1.37462131-3.09392995 1.02993399-3.09392996 1.37565331-8.25185589 4.12386394-9.62441319 5.50054927-6.18889192 4.12592794-3.43655329 2.75027462-4.12592794 5.15482994-3.09392996 5.15689393-2.06296397 5.15689392-0.68627865 3.43655329v5.15689393l0.34159132 1.71827664v2.06502797l0.34262333 1.02993399 1.37668532 5.50054925 3.43655329 6.87620258 1.03096598 1.37565331 3.09392996 3.09392996 9.96910053 8.5965432 5.50261325 3.78020862 4.8122066 3.09496195 4.12592794 2.74924264 3.78020862 2.40765129 3.09496196 2.06193198 2.40661929 1.71930864 2.06399598 1.37565331 1.37255732 1.37358932 1.3766853 1.03199798 2.06296398 2.06193198 5.15689392 6.87723457 4.8122066 9.6254452 2.4076513 9.62750919v13.40771781l-0.68731065 3.4365533-0.68937465 2.40765129-1.028902 2.06296397-1.03199799 2.4066193-1.37565331 2.4076513-3.43655328 4.8122066-2.06296398 2.4076513-2.40661929 2.4045553-5.50054926 4.8153026-3.09289797 2.4045553-6.87826656 4.8132386-3.78020861 2.4076513-4.12592794 2.40661929-8.93813455 4.81323861-4.81220659 2.40661929-10.31481986 4.81323861-5.50054926 2.40661929-11.69047317 4.8132386-6.18889191 2.4066193-13.06303049 4.8122066-6.87517057 2.4076513-14.4397158 4.8122066-7.56454522 2.4076513-7.90923256 2.4045553-8.25082388 2.4076513 178.08570018 179.46238548z" fill="#FFB200" /><path d="M510.35809121 1017.36218896l505.76982816-507.40760897-6.55834718-0.4107352-35.65759437-2.04748399-23.36237036-1.23014161h-87.7095087l-81.56602468 3.2776256-10.6564112 0.8204384-44.67312874 3.2776256-23.77310557 1.64087679-34.01774956 2.4592512-31.55849836 2.4602832-10.24773999 1.2280776-9.83700478 0.8204384-9.83700479 1.2280776-9.42833358 1.2301416-18.03313278 2.4571872-17.21372639 2.46028319-16.39535197 2.4602832-7.78642479 1.2280776-14.75653918 2.46028319-13.93610079 2.4602832-13.11463038 2.46028319-12.29625599 2.4602832-11.47684957 2.4592512-5.3261416 1.6388128-9.83803679 3.27762559-8.19922398 2.46028319-4.096 1.6408768-3.6893928 1.22807761-3.68836079 1.6388128-9.83700479 4.91643839-11.47581759 6.55834719-7.37878559 4.91850239-4.09703199 3.2776256-4.9174704 6.14657999-3.6873288 6.147612-2.4602832 6.14864399-0.8204384 4.096v6.148644l0.40970321 2.04954799v2.4582192l0.40867121 1.2301416 1.63984479 6.55834719 4.09806399 8.19612799 1.2280776 1.6408768 3.6883608 3.68732879 11.88655279 10.24773998 6.55834718 4.5098312 5.7379088 3.6873288 4.9185024 3.2776256 4.50776719 2.86895439 3.6883608 2.4592512 2.86792239 2.05057999 2.4602832 1.64087679 1.63984479 1.63674881 1.63778081 1.2301416 2.46028319 2.4582192 6.148644 8.19819198 5.73790878 11.47684959 2.8689544 11.47581759v15.98564878l-0.8204384 4.09703199-0.8183744 2.8689544-1.2301416 2.46028319-1.22807759 2.8689544-1.6408768 2.8689544-4.097032 5.73790879-2.46028319 2.86895439-2.8689544 2.86895441-6.55731519 5.73894079-3.6883608 2.86895439-8.19819199 5.73790879-4.50776719 2.86895441-4.9164384 2.86895439-10.65641119 5.73790879-5.73790879 2.8699864-12.29728798 5.73790878-6.55834719 2.86895441-13.93610079 5.73790879-7.37672158 2.86998639-15.57388159 5.73790879-8.19922399 2.86895441-17.21166238 5.73790878-9.01966239 2.8689544-9.42730158 2.8689544-9.83700478 2.8689544L510.76160242 1024.32714337z" fill="#0035D9" /></svg>