<?xml version="1.0" standalone="no"?><!DOCTYPE svg PUBLIC "-//W3C//DTD SVG 1.1//EN" "http://www.w3.org/Graphics/SVG/1.1/DTD/svg11.dtd"><svg t="1508664639391" class="icon" style="" viewBox="0 0 1024 1024" version="1.1" xmlns="http://www.w3.org/2000/svg" p-id="2240" xmlns:xlink="http://www.w3.org/1999/xlink" width="200" height="200"><defs><style type="text/css"></style></defs><path d="M1023.57 508.634c0-131.2-177.792-237.514-397.056-237.514-175.488 0-324.426 68.202-376.764 162.678v-0.104c-4.845 8.786-7.565 18.327-7.565 28.328 0 23.546 14.852 44.518 38.057 58.21l201.276 116.182c10.41 5.684 22.832 9.05 36.224 9.05 13.409 0 25.858-3.359 36.266-8.98l190.923-110.333c12.866-7.44 21.054-19.098 21.054-32.102 0-12.616-7.759-23.879-19.916-31.388l-70.937-41.04-157.39 90.85-119.027-68.813c46.01-41.422 131.645-69.277 229.811-69.277 146.732 0 265.634 62.275 265.634 139.18-3.123 118.994-177.653 211.076-389.7 205.6-212.17-5.586-381.594-106.716-378.457-225.696h-0.055c1.527-156.988 207.286-282.283 459.569-279.833 22.512 0.256 44.495 1.45 66.037 3.603-51.783-19.078-116.42-30.41-186.787-30.41-56.113 0-108.757 7.286-154.031 19.875C128.18 256.81 0.354 373.145 0.354 508.634c0 181.43 229.048 328.542 511.656 328.542 282.582 0 511.63-147.113 511.63-328.542h-0.07z" fill="#003F8D" p-id="2241"></path></svg>