<?xml version="1.0" standalone="no"?><!DOCTYPE svg PUBLIC "-//W3C//DTD SVG 1.1//EN" "http://www.w3.org/Graphics/SVG/1.1/DTD/svg11.dtd"><svg t="1509609281483" class="icon" style="" viewBox="0 0 1024 1024" version="1.1" xmlns="http://www.w3.org/2000/svg" p-id="2884" xmlns:xlink="http://www.w3.org/1999/xlink" width="200" height="200"><defs><style type="text/css"></style></defs><path d="M827.45721244 1009.15467572L198.53470747 1010.41273042c-103.78951157 0.20967577-188.91787863-84.49933972-189.12755441-188.28885131L8.25393625 193.20137414c-0.20967577-103.78951157 84.49933972-188.91787863 188.28885131-189.12755441L825.46529253 2.92060292c103.78951157-0.20967577 188.91787863 84.49933972 189.12755441 188.28885131l1.25805469 628.92250497c0.10483789 103.78951157-84.60417762 188.81304075-188.39368919 189.02271652z" fill="#3586FF" p-id="2885"></path><path d="M855.97311866 413.67545781v125.80546858l26.52398628 26.52398629-55.24956828 57.45116398-55.87859562-55.77375773 38.26583003-34.80617964v-99.28148228c-162.49873024 66.99141201-214.39348603 87.74931433-250.45772036 104.10402524-35.95939643 16.24987303-61.95919327 16.24987303-97.70891392 2.72578516s-205.79677901-75.48328114-290.29611873-115.95070687c-56.29794718-27.04817575-60.07211125-44.03191401 0.94354101-66.99141202 79.46712098-30.19331246 211.03867353-78.52357997 280.7558707-105.04756625 41.20129095-16.77406248 63.11241007-25.79012106 100.85405064-6.70962499 67.62043935 27.99171675 222.15148992 85.96707019 298.89282575 117.62811311 66.99141201 29.04009566 21.91111911 38.58034369 3.3548125 50.32218742M566.83021672 587.39184233c39.31420893-16.24987303 92.25734362-42.9835351 149.91818338-67.72527724v198.66780245s-74.7494159 79.46712098-206.00645478 79.46712098c-141.42631425 0-217.74829852-79.46712098-217.74829853-79.46712098V532.87613929c44.55610345 18.13695505 94.6686151 33.75780074 155.26491579 54.41086516 37.42712691 13.41924998 84.81385339 18.03211716 118.57165414 0.10483788" fill="#FFFFFF" p-id="2886"></path></svg>