<?xml version="1.0" standalone="no"?><!DOCTYPE svg PUBLIC "-//W3C//DTD SVG 1.1//EN" "http://www.w3.org/Graphics/SVG/1.1/DTD/svg11.dtd"><svg t="1508664669365" class="icon" style="" viewBox="0 0 1024 1024" version="1.1" xmlns="http://www.w3.org/2000/svg" p-id="2625" xmlns:xlink="http://www.w3.org/1999/xlink" width="200" height="200"><defs><style type="text/css"></style></defs><path d="M264.79152559 388.88751949l307.21536711-78.59906844 157.19498362 314.36159695c0 0 230.39734044-150.49637892 164.31599543-373.03192076 0 0-110.75237283-315.12760178-585.85842591-107.92162032 0 0-352.49163378 152.19230781-292.93866971 480.95669333 0 0 32.1722179 282.20198806 550.1493445 125.04798375 0 0 82.17375898-28.59122286 135.75944737-107.17137676 0 0-189.37035378 35.71223365-246.51497244 35.71223365 0 0-55.971968 13.06306844-84.29209397-40.98600635L264.79152559 388.88751949z" fill="#13227a" p-id="2626"></path><path d="M1014.98485943 431.74598298c0 0 46.43000178 460.83250794-471.55027606 514.41819632 0 0-341.16547454 53.41546463-464.38828496-200.06605613 0 0 269.24609727 200.06605613 606.41132191 22.31187099C685.45446806 768.41314641 932.82686171 642.52665498 1014.98485943 431.74598298z" fill="#13227a" p-id="2627"></path></svg>