<?xml version="1.0" standalone="no"?><!DOCTYPE svg PUBLIC "-//W3C//DTD SVG 1.1//EN" "http://www.w3.org/Graphics/SVG/1.1/DTD/svg11.dtd"><svg t="1508678254590" class="icon" style="" viewBox="0 0 1024 1024" version="1.1" xmlns="http://www.w3.org/2000/svg" p-id="1388" xmlns:xlink="http://www.w3.org/1999/xlink" width="200" height="200"><defs><style type="text/css"></style></defs><path d="M93.622857 564.14476233l-4.38857099 27.79428499h147.74857099l7.314286-27.79428499H93.622857z m377.417143 27.79428499l4.388571-27.79428499H308.662857l-7.314286 27.79428499h169.691429z m95.08571399-140.43428499l-23.40571399 112.64-7.31428601 27.79428499-23.40571399 112.64H277.942857l-4.38857099 26.33142901h273.55428499l36.571429-166.765714 23.40571399-112.64h327.68l-24.86857099 112.64H648.04571399l-59.97714299 279.405714H248.68571399l-4.38857099 26.331428h380.342857l36.571429-165.30285701 23.405714-112.64h220.891428l-23.405714 112.64H725.577143l-35.108572 165.30285701-24.868571 112.64H155.062857l59.977143-277.94285701H0l24.868571-112.64 4.388572-27.79428499 24.86857099-112.64h212.11428601l59.977143-277.942858h234.05714301l29.25714299-140.43428499H1024l-24.868571 112.64H630.491429l-4.388572 27.79428499-23.405714 112.64h-234.057143l-7.31428601 26.331429h275.01714301l4.388572-26.331429 24.868571-112.64H994.742857l-24.86857099 112.64H708.022857l-29.25714301 138.971429H337.92l-7.31428601 26.331429h235.52z" fill="#067E40" p-id="1389"></path></svg>