<?xml version="1.0" standalone="no"?><!DOCTYPE svg PUBLIC "-//W3C//DTD SVG 1.1//EN" "http://www.w3.org/Graphics/SVG/1.1/DTD/svg11.dtd"><svg t="1508678277597" class="icon" style="" viewBox="0 0 1024 1024" version="1.1" xmlns="http://www.w3.org/2000/svg" p-id="2142" xmlns:xlink="http://www.w3.org/1999/xlink" width="200" height="200"><defs><style type="text/css"></style></defs><path d="M469.572243 719.083292L608.451155 368.359964l144.779122 350.710529H469.572243v0.012799z m-290.684532 0l138.891711-350.710529L462.545745 719.083292H178.887711z m721.451055-80.030397h108.30277l-5.887411 20.017198h-92.995501l-9.419858-20.017198z m-21.220278-49.415859H1018.010199l-3.481252 21.169083h-125.965003l-9.445456-21.169083z m-21.130687-49.454254H1023.89761l-2.342166 21.19468H867.407659l-9.419858-21.19468z m-20.004399-49.415859H1023.89761v21.169083H846.212979l-8.229577-21.169083z m-21.20748-49.441456h202.424558l2.354964 21.181882H825.005499l-8.229577-21.181882zM795.568443 391.89681h214.212179l4.735526 21.181882h-209.515048l-9.432657-21.181882zM511.974403 0h21.143485l22.410559 2.354965 21.130687 1.177482 20.0044 3.519648 21.207479 3.532447 20.004399 4.709929 20.0044 5.887411 20.0044 5.874612 9.419858 3.532447 9.432656 3.532447 18.80132 8.229577 18.865314 8.255174 17.611039 9.40706 17.662233 9.419858 17.662234 10.584541 16.510349 11.774823 16.459154 11.774822 15.320068 11.749225 15.243276 12.965104 15.320068 14.129787 14.116988 14.116988 14.129787 14.129787 12.977902 15.307269 5.887412 8.229578 5.887411 8.255174 12.913908 16.471953 10.635737 16.471953 10.571743 16.484751 10.571743 17.649435 8.229577 18.839716 9.432656 17.649435 7.090491 18.839716 7.026498 19.991601 7.090491 18.839716H783.793621L648.459954 47.073693 507.226077 403.671633 358.914509 50.606139 97.667033 724.970703 216.554345 873.256674h604.905909l110.657734-161.225477-10.571743-24.727127h71.788022l-7.090491 18.839716-8.242376 17.623837-8.229577 17.662234-8.242376 16.49755-10.571743 17.662234-9.419858 16.484752-11.774822 15.281671-10.571743 15.281672-11.774823 15.320068-12.977902 15.281672-12.913908 12.952305-14.129787 14.116988-14.168184 12.977902-14.129787 12.913909-15.243275 11.774822-15.320068 11.774823-15.30727 10.571743-16.459154 10.622938-16.459154 9.39426-17.662234 9.394261-17.662233 8.242375-17.662234 7.090491-18.80132 7.064894-17.675032 7.052095-18.852515 5.887411-20.0044 4.684331-18.865313 4.748326-19.953205 3.506849-9.419858 1.177482-10.635736 1.164684-20.0044 2.380562-19.991601 1.164683h-47.035296l-25.891811-2.380562-25.943006-3.506849-25.891811-4.709929-24.688731-5.887411-23.549645-5.887412-23.549645-8.242375-23.549645-9.419858-22.346565-10.571743-22.346566-10.59734-10.635736-7.064894-10.571743-5.887411-21.207479-12.939506-20.0044-14.116989-20.004399-15.281671-9.368663-8.267974-8.280772-8.242375-9.368663-8.255175-8.229577-8.242376-17.662234-17.662233L116.468353 837.932207l-7.026497-9.432657-7.090491-10.59734-15.256075-19.978802-5.887411-9.432657-7.090491-10.59734-5.887411-10.597341-5.887411-11.774822-11.774823-21.143486-10.571743-23.549645-8.229577-22.372163-8.216778-24.701529-7.090491-23.536847-3.545245-12.913908-2.342166-11.774823-2.342166-12.965103-2.342166-12.926708-3.545245-24.739926-1.20308-27.069293L0 524.888311v-12.952305l1.139086-25.879012 1.20308-25.879012 3.545245-25.879012 4.684332-25.891811 5.887411-24.727127 7.090491-23.549645 8.229577-23.524048 8.229577-23.536846 10.571743-22.359364 11.774822-22.359364 5.887412-10.59734 5.887411-10.584542 12.977902-21.181882 15.256075-20.004399 14.116988-20.0044 8.293571-9.419858 8.229577-8.242376 8.229577-9.419858 9.432656-8.229577 17.598241-17.662233 17.662233-16.471953 10.635737-7.052095 9.355864-7.090491 20.0044-15.307269 10.635736-5.861814 10.571743-7.077692 10.571743-5.887412 10.635736-5.874612 22.346566-11.774823 22.346565-10.584541 23.549645-9.419858 23.549645-7.077692 23.549645-7.052095 12.913909-3.532447 11.774822-2.354964 12.977902-2.354965L434.260574 5.874613l25.943006-3.532447L486.09539 1.151885 499.009299 0h12.965104z" fill="#E50012" p-id="2143"></path></svg>