<?xml version="1.0" standalone="no"?><!DOCTYPE svg PUBLIC "-//W3C//DTD SVG 1.1//EN" "http://www.w3.org/Graphics/SVG/1.1/DTD/svg11.dtd"><svg t="1508678249391" class="icon" style="" viewBox="0 0 1024 1024" version="1.1" xmlns="http://www.w3.org/2000/svg" p-id="1265" xmlns:xlink="http://www.w3.org/1999/xlink" width="200" height="200"><defs><style type="text/css"></style></defs><path d="M225.38922667 634.44002134a49.71026963 49.71026963 0 0 0 69.90506666 0l0.85439526-0.85439526a49.71026963 49.71026963 0 0 0 0-69.90506666L93.89002903 360.7228492a49.71026963 49.71026963 0 0 0-69.90506666 0l-0.85439526 0.85439525a49.71026963 49.71026963 0 0 0 0 69.90506667z m-129.01368415-48.1568237a50.331648 50.331648 0 0 0-71.14782341 71.1478234l343.07853274 343.07853274a50.331648 50.331648 0 0 0 71.1478234 0 50.331648 50.331648 0 0 0 0-71.14782341zM939.19762963 429.5405037a50.331648 50.331648 0 0 0 71.1478234-71.1478234L667.34459259 15.31414757a50.331648 50.331648 0 0 0-71.14782341 0 50.331648 50.331648 0 0 0 0 71.1478234zM338.32474548 521.58217482a49.71026963 49.71026963 0 0 0 69.90506667 0l0.85439526-0.85439525a49.71026963 49.71026963 0 0 0 0-69.90506667L206.82554785 247.78733037a49.71026963 49.71026963 0 0 0-69.90506667 0l-0.85439526 0.85439527a49.71026963 49.71026963 0 0 0 0 69.90506666z m112.85784652-112.93551882a49.71026963 49.71026963 0 0 0 69.90506667 0l0.85439525-0.85439525a49.71026963 49.71026963 0 0 0 0-69.90506667L319.68339437 134.92948386a49.71026963 49.71026963 0 0 0-69.90506667 0l-0.85439525 0.85439526a49.71026963 49.71026963 0 0 0 0 69.90506666z m112.93551882-112.9355188a49.71026963 49.71026963 0 0 0 69.90506666 0l0.85439527-0.85439527a49.71026963 49.71026963 0 0 0 0-69.90506666L432.61891318 21.99396504a49.71026963 49.71026963 0 0 0-69.90506666 0l-0.85439527 0.85439526a49.71026963 49.71026963 0 0 0 0 69.90506667zM457.62939259 724.69522964a49.71026963 49.71026963 0 0 0-69.90506667 0l-0.85439525 0.85439526a49.71026963 49.71026963 0 0 0 0 69.90506667L589.6722963 998.56774637a49.71026963 49.71026963 0 0 0 69.90506667 0l0.85439525-0.85439525a49.71026963 49.71026963 0 0 0 0-69.90506667z m113.246208-112.78017422a49.71026963 49.71026963 0 0 0-69.90506667 0l-0.85439525 0.85439525a49.71026963 49.71026963 0 0 0 0 69.90506667l202.64702103 202.64702103a49.71026963 49.71026963 0 0 0 69.90506667 0l0.85439526-0.85439525a49.71026963 49.71026963 0 0 0 0-69.90506667z m112.93551882-112.93551882a49.71026963 49.71026963 0 0 0-69.90506666 0l-0.85439527 0.85439526a49.71026963 49.71026963 0 0 0 0 69.90506667L814.92195555 772.69670875a49.71026963 49.71026963 0 0 0 69.90506667 0l0.85439526-0.85439526a49.71026963 49.71026963 0 0 0 0-69.90506667z m112.85784651-112.93551882a49.71026963 49.71026963 0 0 0-69.90506667 0l-0.85439525 0.85439526a49.71026963 49.71026963 0 0 0 0 69.90506666l202.64702103 202.64702105a49.71026963 49.71026963 0 0 0 69.90506667 0l0.85439527-0.85439526a49.71026963 49.71026963 0 0 0 0-69.90506667z" fill="#E60012" p-id="1266"></path></svg>