<?xml version="1.0" standalone="no"?><!DOCTYPE svg PUBLIC "-//W3C//DTD SVG 1.1//EN" "http://www.w3.org/Graphics/SVG/1.1/DTD/svg11.dtd"><svg t="1508664675575" class="icon" style="" viewBox="0 0 1024 1024" version="1.1" xmlns="http://www.w3.org/2000/svg" p-id="2749" xmlns:xlink="http://www.w3.org/1999/xlink" width="200" height="200"><defs><style type="text/css"></style></defs><path d="M1020.944 489.578C1014.377 308.269 902.559 184.7 902.559 184.7 729.647-18.483 507.89 0.474 507.89 0.474c-236.82-7.59-382.456 172.924-382.456 172.924C25.8 293.025 14.55 403.256 14.55 403.256c-44.184 185.149 47.91 344.71 47.91 344.71 68.594 125.348 140.95 183.357 258.389 238.332 117.476 55.18 296.058 47.589 406.942-8.435C838.65 921.76 906.309 860.04 968.337 743.269c61.963-116.888 52.607-253.691 52.607-253.691M459.956 910.382s-186.07-10.419-288.493-190.934c0 0-88.37-127.293-51.724-285.908 36.684-158.601 122.186-222.178 139.133-238.318 16.921-16.115 126.398-82.008 201.084-80.805v189.027H381.02s-107.134 6.656-110.897 126.32V604.52s2.829 107.378 113.713 119.69h76.107v186.173m-63.922-297.274s-18.764 4.736-21.58-17.075V428.856s2.803-18.035 16.896-18.035h232.098s19.775-3.866 21.618 18.035v162.403s4.724 25.65-14.092 21.862H396.02m452.05 122.468c-75.2 115.863-218.045 169.097-284.744 174.793V724.21h88.318s94.04-18.97 99.62-117.783V407.94s-15.103-99.672-119.306-104.497h-68.632V114.468s117.463 9.46 212.36 97.841c94.91 88.306 119.32 176.624 129.688 224.137 10.316 47.5 17.855 183.267-57.305 299.143z" fill="#972030" p-id="2750"></path></svg>