<?xml version="1.0" standalone="no"?><!DOCTYPE svg PUBLIC "-//W3C//DTD SVG 1.1//EN" "http://www.w3.org/Graphics/SVG/1.1/DTD/svg11.dtd"><svg t="1508664662889" class="icon" style="" viewBox="0 0 1024 1024" version="1.1" xmlns="http://www.w3.org/2000/svg" p-id="2502" xmlns:xlink="http://www.w3.org/1999/xlink" width="200" height="200"><defs><style type="text/css"></style></defs><path d="M512 2.87774702C230.74075541 2.87774702 2.742514 230.81126151 2.742514 512S230.74075541 1021.12225298 512 1021.12225298 1021.25170681 793.18873849 1021.25170681 512c0-281.19451767-227.99246222-509.12225298-509.25170681-509.12225298z m0 971.94280184c-255.6944254 0-462.9569377-207.20356459-462.9569377-462.82054886 0-255.60542589 207.2682915-462.83788643 462.9569377-462.83788643S974.9569377 256.4003533 974.9569377 512c0 255.61698427-207.2682915 462.82054886-462.9569377 462.82054886zM305.36510759 229.91201976V903.79431957c26.58889143 13.82959859 54.66303436 24.87825157 84.53797249 32.54839083V363.65631662c-0.00693503-58.71655732-34.691314-109.68206674-84.53797249-133.74429686zM73.5549133 513.18935703c0 142.03512099 67.90777905 267.90931865 173.35254462 348.50472861V553.07038251c-7.26675189-10.84175802-21.17957079-15.94246998-33.8672017-11.37344339-21.48240028 7.97528043-36.62618638 25.55210497-41.76272931 45.72609693 0 0.56289298-8.37404444 0.56289298-8.37404445 0.56289298-1.20207125 3.74029094 4.68692205 5.34343789 1.02407225 5.34343788-1.82853531 0-11.64622109-0.27740106-12.77085122-1.68636726-18.28535309-21.14489566-20.8247286-48.63880805-20.8247286-78.41781164 0-29.99745693 10.47420162-57.16079972 28.76648973-78.55997968 0.39645235-0.22538836 0.2727777-0.43228332-0.04623351-0.61028233 1.77999013 0.81717729 3.2247873 2.08975464 3.86280973 4.06045798v-0.09477869c-0.35484219-0.86456663 7.40891992-2.13598814 6.96623408-3.43861728 4.69848043 22.44636897 20.06765489 41.80433947 43.16476049 50.13677375 12.69341008 4.78170074 26.61894321-0.38489397 33.84986413-11.39193679V164.69734265c-105.43320719 80.31107386-173.34098624 206.41528325-173.34098624 348.49201438z m82.42510109-80.09955555c0.54324373 0 0.83451484 0.32016706 1.31303167 0.41610159-1.1361885-0.2727777-2.1775983-0.41610159-1.31303167-0.41610159z m466.29962045-69.43348486v572.67945876c29.71427668-7.66898342 57.65318659-18.7176364 84.51369991-32.55417002V229.91201976c-49.79926913 24.06223013-84.51369989 75.0265837-84.51369991 133.74429686z m74.81968876-245.83512946c-57.94792522-27.72507992-122.68870886-43.46065495-190.92821333-43.46065495a439.20216043 439.20216043 0 0 0-190.94092756 43.57277121c-6.35595175 2.83526998-10.89492656 9.4628436-10.89492655 17.4161631 0 8.37404444 5.87165573 15.74251005 13.71748233 18.6898963 78.40047408 24.16163217 135.27115852 97.40822575 135.27115851 183.61985129v611.21740078c17.22776155 2.01115767 35.1166623 3.30800762 52.84721327 3.30800762 17.99061446 0 35.57206236-1.29569411 52.79866807-3.30800762V337.68233087c0-86.35263774 56.80017834-159.4455049 135.66183168-183.60251373 7.89437178-2.95316543 13.69436557-10.33318941 13.69436557-18.70607802a19.32791873 19.32791873 0 0 0-11.22665199-17.55255196z m208.87143845 423.86303774c-21.75286632 7.97181291-36.63658892 25.55326081-41.77891105 46.27743153-0.95934532 3.32072183-3.75300516 5.33881453-7.15463562 5.33881454-2.5694273 0-4.39218342-0.99402046-5.87165573-2.85260755-17.29133262-21.014286-28.03831195-48.16029122-28.03831195-77.24116882 0-29.19877305 10.74697933-56.00611781 28.03831195-77.32207746a7.04251937 7.04251937 0 0 1 5.87165573-2.77632225c3.40163048 0 6.03578469 1.79963937 6.80441679 4.9123104l0.35021883 0.10055788c5.13654293 21.2870637 20.02604473 38.59688973 41.80318364 46.60337778 14.89528099 5.69250088 30.64357023-1.89326222 36.09912437-17.06710011 0.61606151-1.574251 1.10151337-3.40278632 1.63897792-5.21282822-14.17866159-121.23582081-77.70697143-226.9995976-169.88965474-297.69988063v696.99096381c92.18268332-70.54077743 155.71099316-176.4478781 169.88965474-297.42132374-0.54324373-1.89441806-1.06452656-3.89979654-1.63897792-5.55148868-5.4786709-14.7762297-21.1980642-22.23369481-36.12224112-17.07865848z" fill="#BC1D21" p-id="2503"></path></svg>