<?xml version="1.0" standalone="no"?><!DOCTYPE svg PUBLIC "-//W3C//DTD SVG 1.1//EN" "http://www.w3.org/Graphics/SVG/1.1/DTD/svg11.dtd" ><svg xmlns="http://www.w3.org/2000/svg"><metadata></metadata><defs><font id="fonteditor" horiz-adv-x="2048"><font-face font-family="Franklin Gothic Demi Cond" font-weight="400" font-stretch="normal" units-per-em="2048" panose-1="2 11 7 6 3 4 2 2 2 4" ascent="1877" descent="-445" x-height="4" bbox="-58 -370 1792 1536" underline-thickness="102" underline-position="-154" unicode-range="U+0030-007a" /><missing-glyph horiz-adv-x="2048" d="M256 0 L256 1536 L1792 1536 L1792 0 L256 0 ZM384 128 L1664 128 L1664 1408 L384 1408 L384 128 Z" /><glyph glyph-name="zero" unicode="0" d="M979 699 Q979 329 872.5 154 Q766 -21 523 -21 Q272 -21 169.5 160.5 Q67 342 67 665 Q67 1037 173.5 1211.5 Q280 1386 523 1386 Q774 1386 876.5 1204.5 Q979 1023 979 699 ZM662 683 Q662 993 634 1080.5 Q606 1168 523 1168 Q448 1168 415.5 1094 Q383 1020 383 683 Q383 350 414.5 274 Q446 198 523 198 Q597 198 629.5 269.5 Q662 341 662 683 Z" /><glyph glyph-name="one" unicode="1" d="M505 1377 L734 1377 L734 223 L960 223 L960 0 L204 0 L204 223 L434 223 L434 1029 Q332 923 204 858 L204 1125 Q387 1221 505 1377 Z" /><glyph glyph-name="two" unicode="2" d="M330 884 L57 939 Q124 1386 509 1386 Q717 1386 825.5 1270.5 Q934 1155 934 988 Q934 816 814 651.5 Q694 487 363 267 L953 267 L931 0 L57 0 L57 267 Q432 588 525 720.5 Q618 853 618 972 Q618 1142 490 1142 Q413 1142 377.5 1075 Q342 1008 330 884 Z" /><glyph glyph-name="three" unicode="3" d="M325 986 L64 1035 Q167 1386 514 1386 Q704 1386 810.5 1287.5 Q917 1189 917 1020 Q917 804 714 716 Q944 643 944 391 Q944 189 818 84 Q692 -21 497 -21 Q322 -21 193 71 Q64 163 33 383 L298 427 Q318 223 476 223 Q549 223 592 272 Q635 321 635 412 Q635 598 425 598 L342 597 L342 818 L425 818 Q492 818 530 830.5 Q568 843 593.5 883 Q619 923 619 988 Q619 1154 482 1154 Q362 1154 325 986 Z" /><glyph glyph-name="four" unicode="4" d="M516 1386 L842 1386 L842 554 L995 554 L995 321 L842 321 L842 0 L542 0 L542 321 L51 321 L51 554 L516 1386 ZM566 538 L566 1100 L263 538 L566 538 Z" /><glyph glyph-name="five" unicode="5" d="M177 1365 L907 1365 L878 1098 L396 1098 L379 790 Q464 907 612 907 Q758 907 868.5 800 Q979 693 979 460 Q979 222 852 100.5 Q725 -21 521 -21 Q331 -21 209 84 Q87 189 69 365 L342 410 Q365 223 519 223 Q688 223 688 444 Q688 542 643 602.5 Q598 663 514 663 Q404 663 364 557 L129 602 L177 1365 Z" /><glyph glyph-name="six" unicode="6" d="M981 1023 L738 950 Q705 1168 567 1168 Q481 1168 433 1079.5 Q385 991 382 706 Q466 861 632 861 Q783 861 886 746.5 Q989 632 989 433 Q989 210 868 94.5 Q747 -21 558 -21 Q105 -21 105 665 Q105 1036 230 1211 Q355 1386 576 1386 Q737 1386 842 1294.5 Q947 1203 981 1023 ZM698 433 Q698 642 550 642 Q395 642 395 413 Q395 304 436.5 250.5 Q478 197 546 197 Q698 197 698 433 Z" /><glyph glyph-name="seven" unicode="7" d="M141 1365 L952 1365 L952 1135 Q626 714 621 0 L295 0 Q303 625 695 1098 L118 1098 L141 1365 Z" /><glyph glyph-name="eight" unicode="8" d="M775 745 Q986 621 986 391 Q986 219 865 99 Q744 -21 509 -21 Q283 -21 171.5 84 Q60 189 60 355 Q60 454 106.5 529.5 Q153 605 283 673 Q99 789 99 994 Q99 1154 207 1270 Q315 1386 534 1386 Q742 1386 845.5 1289.5 Q949 1193 949 1037 Q949 846 775 745 ZM594 835 Q691 927 691 1023 Q691 1098 651.5 1144.5 Q612 1191 539 1191 Q469 1191 425 1149 Q381 1107 381 1042 Q381 964 450.5 915 Q520 866 594 835 ZM456 575 Q325 495 325 375 Q325 289 377 237.5 Q429 186 520 186 Q605 186 655 233 Q705 280 705 345 Q705 398 663.5 450 Q622 502 456 575 Z" /><glyph glyph-name="nine" unicode="9" d="M89 312 L350 363 Q376 197 496 197 Q664 197 664 586 L663 628 Q583 505 425 505 Q247 505 152.5 640.5 Q58 776 58 941 Q58 1123 166 1254.5 Q274 1386 490 1386 Q680 1386 778 1284.5 Q876 1183 909.5 1026.5 Q943 870 943 706 Q943 -21 484 -21 Q165 -21 89 312 ZM652 958 Q652 1058 610 1113 Q568 1168 496 1168 Q435 1168 391.5 1116 Q348 1064 348 959 Q348 749 500 749 Q652 749 652 958 Z" /><glyph glyph-name="A" unicode="a" d="M370 1365 L672 1365 L1062 0 L755 0 L687 282 L303 282 L236 0 L-40 0 L370 1365 ZM630 516 L493 1073 L360 516 L630 516 Z" /><glyph glyph-name="B" unicode="b" d="M129 1365 L595 1365 Q759 1365 842.5 1339 Q926 1313 982.5 1225 Q1039 1137 1039 1006 Q1039 777 844 712 Q1076 630 1076 377 Q1076 244 1013 152.5 Q950 61 857.5 30.5 Q765 0 595 0 L129 0 L129 1365 ZM417 814 L514 814 Q659 814 696.5 866 Q734 918 734 985 Q734 1047 696.5 1095.5 Q659 1144 536 1144 L417 1144 L417 814 ZM417 235 L564 235 Q771 235 771 413 Q771 512 719.5 552.5 Q668 593 564 593 L417 593 L417 235 Z" /><glyph glyph-name="C" unicode="c" d="M793 497 L1070 480 Q1055 258 929 118.5 Q803 -21 596 -21 Q344 -21 212 166 Q80 353 80 681 Q80 1012 211 1199 Q342 1386 600 1386 Q1027 1386 1065 858 L791 838 Q780 1142 601 1142 Q507 1142 451.5 1044 Q396 946 396 664 Q396 412 447 317.5 Q498 223 600 223 Q764 223 793 497 Z" /><glyph glyph-name="D" unicode="d" d="M129 1365 L452 1365 Q662 1365 793.5 1308.5 Q925 1252 1004 1100 Q1083 948 1083 689 Q1083 505 1035 362.5 Q987 220 909 138 Q831 56 733 28 Q635 0 488 0 L129 0 L129 1365 ZM429 1131 L429 235 L480 235 Q584 235 641 275 Q698 315 732 414.5 Q766 514 766 702 Q766 876 728.5 970 Q691 1064 634.5 1097.5 Q578 1131 480 1131 L429 1131 Z" /><glyph glyph-name="E" unicode="e" d="M129 1365 L959 1365 L959 1131 L429 1131 L429 814 L841 814 L841 579 L429 579 L429 244 L959 244 L959 0 L129 0 L129 1365 Z" /><glyph glyph-name="F" unicode="f" d="M129 1365 L939 1365 L939 1131 L429 1131 L429 774 L822 774 L822 540 L429 540 L429 0 L129 0 L129 1365 Z" /><glyph glyph-name="G" unicode="g" d="M608 728 L1082 728 L1082 0 L955 0 L916 156 Q806 -21 586 -21 Q353 -21 216.5 162.5 Q80 346 80 656 Q80 993 214.5 1189.5 Q349 1386 612 1386 Q1031 1386 1082 918 L812 874 Q784 1142 618 1142 Q517 1142 456.5 1043 Q396 944 396 668 Q396 423 455 323 Q514 223 628 223 Q811 223 812 493 L608 493 L608 728 Z" /><glyph glyph-name="H" unicode="h" d="M129 1365 L429 1365 L429 814 L757 814 L757 1365 L1057 1365 L1057 0 L757 0 L757 558 L429 558 L429 0 L129 0 L129 1365 Z" /><glyph glyph-name="I" unicode="i" d="M129 1365 L429 1365 L429 0 L129 0 L129 1365 Z" /><glyph glyph-name="J" unicode="j" d="M241 1365 L541 1365 L541 459 Q541 286 515.5 189.5 Q490 93 410 36 Q330 -21 173 -21 Q105 -21 -10 0 L-10 251 Q62 237 111 237 Q190 237 215.5 279.5 Q241 322 241 459 L241 1365 Z" /><glyph glyph-name="K" unicode="k" d="M129 1365 L429 1365 L429 796 L761 1365 L1064 1365 L722 863 L1093 0 L783 0 L543 629 L429 464 L429 0 L129 0 L129 1365 Z" /><glyph glyph-name="L" unicode="l" d="M129 1365 L429 1365 L429 256 L869 256 L869 0 L129 0 L129 1365 Z" /><glyph glyph-name="M" unicode="m" d="M129 1365 L569 1365 L762 522 L979 1365 L1406 1365 L1406 0 L1125 0 L1125 1143 L846 0 L628 0 L373 1143 L373 0 L129 0 L129 1365 Z" /><glyph glyph-name="N" unicode="n" d="M118 1365 L451 1365 L802 517 L802 1365 L1034 1365 L1034 0 L766 0 L350 988 L350 0 L118 0 L118 1365 Z" /><glyph glyph-name="O" unicode="o" d="M1071 683 Q1071 -21 576 -21 Q330 -21 205 158.5 Q80 338 80 683 Q80 1386 575 1386 Q817 1386 944 1210 Q1071 1034 1071 683 ZM755 683 Q755 959 712 1050.5 Q669 1142 575 1142 Q482 1142 439 1050 Q396 958 396 683 Q396 413 438.5 318 Q481 223 575 223 Q668 223 711.5 314 Q755 405 755 683 Z" /><glyph glyph-name="P" unicode="p" d="M129 1365 L522 1365 Q701 1365 799.5 1335 Q898 1305 965 1199.5 Q1032 1094 1032 938 Q1032 788 978 690 Q924 592 828.5 548.5 Q733 505 535 505 L429 505 L429 0 L129 0 L129 1365 ZM429 1144 L429 740 L522 740 Q645 740 680.5 797 Q716 854 716 945 Q716 1022 688.5 1069.5 Q661 1117 624.5 1130.5 Q588 1144 522 1144 L429 1144 Z" /><glyph glyph-name="Q" unicode="q" d="M1021 -48 L1021 -264 Q956 -282 893 -282 Q637 -282 621 -19 Q584 -21 564 -21 Q343 -21 211.5 148.5 Q80 318 80 683 Q80 1386 575 1386 Q820 1386 945.5 1208 Q1071 1030 1071 695 Q1071 454 1015.5 291.5 Q960 129 821 39 Q822 -20 846 -41.5 Q870 -63 919 -63 Q965 -63 1021 -48 ZM755 683 Q755 959 712 1050.5 Q669 1142 575 1142 Q482 1142 439 1050 Q396 958 396 683 Q396 413 438.5 318 Q481 223 575 223 Q668 223 711.5 314 Q755 405 755 683 Z" /><glyph glyph-name="R" unicode="r" d="M129 1365 L558 1365 Q683 1365 749.5 1353.5 Q816 1342 884 1291.5 Q952 1241 990.5 1153.5 Q1029 1066 1029 957 Q1029 701 837 597 L1088 0 L761 0 L579 540 L429 540 L429 0 L129 0 L129 1365 ZM429 1144 L429 761 L561 761 Q737 761 737 958 Q737 1026 711 1069.5 Q685 1113 650.5 1128.5 Q616 1144 549 1144 L429 1144 Z" /><glyph glyph-name="S" unicode="s" d="M964 1068 L716 973 Q663 1142 522 1142 Q456 1142 417.5 1104.5 Q379 1067 379 1017 Q379 959 424.5 924.5 Q470 890 615 834 Q747 785 822.5 737 Q898 689 944.5 606.5 Q991 524 991 415 Q991 224 859.5 101.5 Q728 -21 507 -21 Q136 -21 33 354 L295 429 Q343 223 514 223 Q592 223 640.5 263.5 Q689 304 689 370 Q689 420 655 459.5 Q621 499 499 543 Q342 599 265 644.5 Q188 690 138 774.5 Q88 859 88 967 Q88 1151 206.5 1268.5 Q325 1386 520 1386 Q876 1386 964 1068 Z" /><glyph glyph-name="T" unicode="t" d="M-24 1365 L827 1365 L827 1109 L548 1109 L548 0 L248 0 L248 1109 L-24 1109 L-24 1365 Z" /><glyph glyph-name="U" unicode="u" d="M129 1365 L429 1365 L429 585 Q429 420 444 355 Q459 290 506.5 256.5 Q554 223 623 223 Q698 223 742 260 Q786 297 796 358 Q806 419 806 585 L806 1365 L1057 1365 L1057 597 Q1057 367 1030.5 254 Q1004 141 895.5 60 Q787 -21 597 -21 Q419 -21 317 38.5 Q215 98 172 205.5 Q129 313 129 585 L129 1365 Z" /><glyph glyph-name="V" unicode="v" d="M-28 1365 L287 1365 L497 325 L714 1365 L971 1365 L636 -7 L300 0 L-28 1365 Z" /><glyph glyph-name="W" unicode="w" d="M-11 1365 L296 1365 L439 420 L618 1365 L893 1365 L1061 418 L1228 1365 L1481 1365 L1188 -7 L919 -7 L737 942 L551 -7 L285 -7 L-11 1365 Z" /><glyph glyph-name="X" unicode="x" d="M10 1365 L344 1365 L507 1010 L679 1365 L966 1365 L644 748 L1008 0 L679 0 L480 446 L256 0 L-31 0 L344 700 L10 1365 Z" /><glyph glyph-name="Y" unicode="y" d="M-58 1365 L272 1365 L465 867 L671 1365 L964 1365 L585 577 L585 0 L285 0 L285 577 L-58 1365 Z" /><glyph glyph-name="Z" unicode="z" d="M44 1365 L921 1365 L921 1152 L350 244 L939 244 L939 0 L2 0 L2 209 L577 1121 L44 1121 L44 1365 Z" /><glyph glyph-name="a" unicode="a" d="M374 689 L107 715 Q126 867 236.5 949 Q347 1031 515 1031 Q657 1031 743 976.5 Q829 922 851.5 850 Q874 778 874 627 L874 224 Q874 36 891 0 L630 0 Q616 41 616 155 Q523 -21 339 -21 Q221 -21 147 49.5 Q73 120 73 255 Q73 424 185 516.5 Q297 609 593 627 L593 665 Q593 766 572.5 805 Q552 844 493 844 Q385 844 374 689 ZM593 483 Q470 469 417.5 428.5 Q365 388 365 292 Q365 164 459 164 Q510 164 551.5 221.5 Q593 279 593 433 L593 483 Z" /><glyph glyph-name="b" unicode="b" d="M104 1365 L381 1365 L381 915 Q463 1024 591 1024 Q731 1024 824 898 Q917 772 917 511 Q917 260 826 119.5 Q735 -21 560 -21 Q388 -21 324 132 Q295 80 271 0 L104 0 L104 1365 ZM381 419 Q381 280 407 227 Q433 174 499 174 Q572 174 599 249.5 Q626 325 626 504 Q626 677 600 757 Q574 837 504 837 Q381 837 381 652 L381 419 Z" /><glyph glyph-name="c" unicode="c" d="M858 638 L596 628 Q590 721 566 768.5 Q542 816 485 816 Q343 816 343 518 Q343 345 377.5 276 Q412 207 480 207 Q586 207 596 394 L858 377 Q823 -21 462 -21 Q267 -21 163.5 110.5 Q60 242 60 502 Q60 760 168.5 895 Q277 1030 473 1030 Q827 1030 858 638 Z" /><glyph glyph-name="d" unicode="d" d="M598 1365 L875 1365 L875 0 L614 0 L614 167 Q550 -14 384 -14 Q221 -14 141 128 Q61 270 61 501 Q61 764 152.5 894 Q244 1024 397 1024 Q538 1024 598 916 L598 1365 ZM598 587 Q598 736 566.5 786.5 Q535 837 475 837 Q404 837 378.5 767 Q353 697 353 477 Q353 313 381 247 Q409 181 473 181 Q527 181 562.5 225.5 Q598 270 598 408 L598 587 Z" /><glyph glyph-name="e" unicode="e" d="M881 458 L351 458 L351 402 Q351 266 388 220 Q425 174 485 174 Q614 174 630 347 L881 331 Q814 -21 480 -21 Q274 -21 167 118 Q60 257 60 490 Q60 753 173.5 891.5 Q287 1030 478 1030 Q650 1030 765.5 907.5 Q881 785 881 458 ZM615 621 Q616 639 616 649 Q616 844 484 844 Q354 844 353 621 L615 621 Z" /><glyph glyph-name="f" unicode="f" d="M422 1010 L600 1010 L600 788 L422 788 L422 0 L152 0 L152 788 L37 788 L37 1010 L152 1010 Q153 1159 175 1233 Q197 1307 270 1363 Q343 1419 469 1419 Q543 1419 611 1409 L611 1189 Q577 1193 548 1193 Q467 1193 444.5 1158.5 Q422 1124 422 1010 Z" /><glyph glyph-name="g" unicode="g" d="M963 1176 L963 992 Q931 1000 902 1000 Q814 1000 795 909 Q870 830 870 707 Q870 570 768 487.5 Q666 405 504 405 Q442 405 373 422 Q307 386 307 339 Q307 301 344 289 Q381 277 546 268 Q698 259 773.5 238 Q849 217 899.5 152 Q950 87 950 -19 Q950 -357 457 -357 Q43 -357 43 -116 Q43 17 208 72 Q76 134 76 247 Q76 377 250 469 Q100 543 100 721 Q100 872 203.5 951 Q307 1030 480 1030 Q595 1030 696 986 Q707 1094 750 1140 Q793 1186 885 1186 Q929 1186 963 1176 ZM579 716 Q579 879 490 879 Q436 879 413.5 839.5 Q391 800 391 709 Q391 556 488 556 Q537 556 558 592 Q579 628 579 716 ZM364 44 Q275 3 275 -78 Q275 -180 507 -180 Q706 -180 706 -74 Q706 -35 684.5 -10.5 Q663 14 629.5 20.5 Q596 27 489 32 Q426 36 364 44 Z" /><glyph glyph-name="h" unicode="h" d="M104 1365 L386 1365 L386 903 Q462 1031 634 1031 Q737 1031 796.5 983 Q856 935 872 861.5 Q888 788 888 648 L888 0 L606 0 L606 648 Q606 747 587.5 779.5 Q569 812 511 812 Q454 812 420 781 Q386 750 386 640 L386 0 L104 0 L104 1365 Z" /><glyph glyph-name="i" unicode="i" d="M387 1093 L101 1093 L101 1372 L387 1372 L387 1093 ZM103 1010 L385 1010 L385 0 L103 0 L103 1010 Z" /><glyph glyph-name="j" unicode="j" d="M397 1093 L111 1093 L111 1372 L397 1372 L397 1093 ZM113 1010 L395 1010 L395 33 Q395 -123 378 -201 Q361 -279 297 -324.5 Q233 -370 134 -370 Q71 -370 -17 -356 L-17 -125 Q4 -128 20 -128 Q82 -128 97.5 -97 Q113 -66 113 41 L113 1010 Z" /><glyph glyph-name="k" unicode="k" d="M104 1365 L386 1365 L386 620 L670 1010 L926 1010 L671 671 L951 0 L647 0 L489 469 L386 327 L386 0 L104 0 L104 1365 Z" /><glyph glyph-name="l" unicode="l" d="M103 1365 L385 1365 L385 0 L103 0 L103 1365 Z" /><glyph glyph-name="m" unicode="m" d="M104 1010 L371 1010 L371 872 Q443 1030 616 1030 Q796 1030 834 872 Q902 1030 1079 1030 Q1178 1030 1236.5 994 Q1295 958 1318 895.5 Q1341 833 1341 660 L1341 0 L1060 0 L1060 631 Q1060 744 1044 778 Q1028 812 973 812 Q907 812 887 767.5 Q867 723 867 588 L867 0 L585 0 L585 640 Q585 748 569.5 780 Q554 812 499 812 Q431 812 408.5 765.5 Q386 719 386 588 L386 0 L104 0 L104 1010 Z" /><glyph glyph-name="n" unicode="n" d="M104 1010 L371 1010 L371 872 Q441 1030 624 1030 Q723 1030 787.5 985.5 Q852 941 870 872 Q888 803 888 662 L888 0 L606 0 L606 662 Q606 764 580 788 Q554 812 510 812 Q434 812 410 765.5 Q386 719 386 592 L386 0 L104 0 L104 1010 Z" /><glyph glyph-name="o" unicode="o" d="M882 505 Q882 -21 472 -21 Q61 -21 61 505 Q61 1030 472 1030 Q882 1030 882 505 ZM591 505 Q591 698 564.5 766 Q538 834 472 834 Q408 834 380 769.5 Q352 705 352 505 Q352 320 376 248 Q400 176 472 176 Q541 176 566 247.5 Q591 319 591 505 Z" /><glyph glyph-name="p" unicode="p" d="M104 1010 L364 1010 L364 859 Q447 1023 594 1023 Q733 1023 825 899.5 Q917 776 917 522 Q917 256 827 121 Q737 -14 574 -14 Q457 -14 381 75 L381 -342 L104 -342 L104 1010 ZM381 413 Q381 268 404.5 224.5 Q428 181 500 181 Q564 181 595 239 Q626 297 626 520 Q626 706 599 772 Q572 838 508 838 Q455 838 418 796.5 Q381 755 381 604 L381 413 Z" /><glyph glyph-name="q" unicode="q" d="M719 1010 L874 1010 Q865 935 865 752 L865 -342 L588 -342 L588 105 Q509 -14 381 -14 Q238 -14 149.5 118.5 Q61 251 61 489 Q61 775 154.5 899.5 Q248 1024 402 1024 Q553 1024 642 879 Q687 929 719 1010 ZM588 608 Q588 748 558.5 793 Q529 838 469 838 Q400 838 375.5 782.5 Q351 727 351 529 Q351 307 377 244 Q403 181 470 181 Q525 181 556.5 232.5 Q588 284 588 459 L588 608 Z" /><glyph glyph-name="r" unicode="r" d="M104 1010 L352 1010 L352 766 Q419 1023 591 1023 Q612 1023 639 1018 L639 743 Q608 747 592 747 Q386 747 386 435 L386 0 L104 0 L104 1010 Z" /><glyph glyph-name="s" unicode="s" d="M770 767 L569 707 Q529 844 421 844 Q333 844 333 756 Q333 706 366 680 Q399 654 502 618 Q618 577 672 546 Q726 515 763 452.5 Q800 390 800 309 Q800 169 699 74 Q598 -21 417 -21 Q76 -21 39 280 L263 316 Q291 165 422 165 Q534 165 534 259 Q534 309 501 335 Q468 361 373 391 Q199 447 134 526 Q69 605 69 709 Q69 855 171.5 943 Q274 1031 428 1031 Q697 1031 770 767 Z" /><glyph glyph-name="t" unicode="t" d="M146 1320 L420 1329 L420 1010 L606 1010 L606 788 L420 788 L420 417 Q420 314 424.5 283.5 Q429 253 454.5 232.5 Q480 212 540 212 Q572 212 620 214 L620 0 Q526 -21 448 -21 Q320 -21 252 28 Q184 77 165 151 Q146 225 146 386 L146 788 L34 788 L34 1010 L146 1010 L146 1320 Z" /><glyph glyph-name="u" unicode="u" d="M90 1010 L372 1010 L372 362 Q372 264 390 231 Q408 198 468 198 Q523 198 551.5 225 Q580 252 586 299.5 Q592 347 592 495 L592 1010 L874 1010 L874 0 L609 0 L609 138 Q549 35 489.5 7 Q430 -21 349 -21 Q240 -21 182 24 Q124 69 107 138 Q90 207 90 353 L90 1010 Z" /><glyph glyph-name="v" unicode="v" d="M-22 1010 L249 1010 L388 413 L529 1010 L763 1010 L486 0 L263 0 L-22 1010 Z" /><glyph glyph-name="w" unicode="w" d="M-17 1010 L257 1010 L376 396 L489 1010 L763 1010 L855 396 L991 1010 L1212 1010 L959 0 L723 0 L593 687 L466 0 L237 0 L-17 1010 Z" /><glyph glyph-name="x" unicode="x" d="M-11 1010 L295 1010 L402 776 L532 1010 L777 1010 L516 564 L817 0 L512 0 L364 302 L195 0 L-50 0 L249 517 L-11 1010 Z" /><glyph glyph-name="y" unicode="y" d="M-28 1010 L254 1010 L390 393 L521 1010 L764 1010 L460 -16 Q416 -163 385 -222 Q354 -281 292 -319.5 Q230 -358 134 -358 Q75 -358 14 -342 L14 -120 Q56 -126 93 -126 Q175 -126 205.5 -99 Q236 -72 263 19 L-28 1010 Z" /><glyph glyph-name="z" unicode="z" d="M76 1010 L706 1010 L706 829 L331 200 L716 200 L716 0 L41 0 L41 200 L407 810 L76 810 L76 1010 Z" /></font>
</defs>
</svg>
