<?xml version="1.0" standalone="no"?>
<!DOCTYPE svg PUBLIC "-//W3C//DTD SVG 1.1//EN" "http://www.w3.org/Graphics/SVG/1.1/DTD/svg11.dtd" >
<!--
2013-9-30: Created.
-->
<svg>
<metadata>
Created by iconfont
</metadata>
<defs>

<font id="iconfont" horiz-adv-x="1024" >
  <font-face
    font-family="iconfont"
    font-weight="500"
    font-stretch="normal"
    units-per-em="1024"
    ascent="896"
    descent="-128"
  />
    <missing-glyph />
    
    <glyph glyph-name="x" unicode="x" horiz-adv-x="1001"
d="M281 543q-27 -1 -53 -1h-83q-18 0 -36.5 -6t-32.5 -18.5t-23 -32t-9 -45.5v-76h912v41q0 16 -0.5 30t-0.5 18q0 13 -5 29t-17 29.5t-31.5 22.5t-49.5 9h-133v-97h-438v97zM955 310v-52q0 -23 0.5 -52t0.5 -58t-10.5 -47.5t-26 -30t-33 -16t-31.5 -4.5q-14 -1 -29.5 -0.5
t-29.5 0.5h-32l-45 128h-439l-44 -128h-29h-34q-20 0 -45 1q-25 0 -41 9.5t-25.5 23t-13.5 29.5t-4 30v167h911zM163 247q-12 0 -21 -8.5t-9 -21.5t9 -21.5t21 -8.5q13 0 22 8.5t9 21.5t-9 21.5t-22 8.5zM316 123q-8 -26 -14 -48q-5 -19 -10.5 -37t-7.5 -25t-3 -15t1 -14.5
t9.5 -10.5t21.5 -4h37h67h81h80h64h36q23 0 34 12t2 38q-5 13 -9.5 30.5t-9.5 34.5q-5 19 -11 39h-368zM336 498v228q0 11 2.5 23t10 21.5t20.5 15.5t34 6h188q31 0 51.5 -14.5t20.5 -52.5v-227h-327z" />
    

    
    <glyph glyph-name="warn" unicode="&#58881;" d="M1015.6152256312223-7.150262701681413L543.3774325506289 821.4591573133607c-6.521102103529204 11.450332702034274-18.767029143630555 18.5004400411928-32.019328003753365 18.5004400411928-13.253460349796114 0-25.445992892943206-7.050108473425787-32.019328003753365-18.5004400411928L7.152057248670758-7.150262701681413c-6.414311975353412-11.237924143761331-6.3086844711181875-24.967876557892815 0.2646517739592331-36.10017546595344 6.573335110810163-11.132300042327886 18.660240149722025-17.971160312886777 31.701282867107132-17.971160312886777l944.4245123750451 0c12.935414078882616 0 25.07455212507544 6.838860270558892 31.701282867107132 17.971160312886777C1021.8182814638383-32.11813812530693 1021.9239089680733-18.38818571117531 1015.6152256312223-7.150262701681413zM569.67193561781 44.80046969491491L453.04311312053494 44.80046969491491l0 106.02090782003036L569.67193561781 150.8213775149452 569.67193561781 44.80046969491491zM569.67193561781 230.33763884123778L453.04311312053494 230.33763884123778 453.04311312053494 548.4015215224671 569.67193561781 548.4015215224671 569.67193561781 230.33763884123778z"  horiz-adv-x="1024" />

    
    <glyph glyph-name="qingchu" unicode="&#58926;" d="M510.4631274282928 890.3585481740329c-276.36688979713506 0-500.4236440110172-224.04337984827282-500.4236440110172-500.4236440110172 0-276.38160251419384 224.05675421388193-500.4249823624667 500.4236440110172-500.4249823624667 276.38160251419384 0 500.43835672807603 224.04337984827282 500.43835672807603 500.4249823624667C1010.9014841563686 666.3151670187759 786.8447299424869 890.3585481740329 510.4631274282928 890.3585481740329zM745.2020526726682 199.8545932775952c5.985064552134545-5.999777269193259 9.264479127040667-13.920124157122912 9.264479127040667-22.35806278437845 0-8.424564261646424-3.279414574906123-16.34223575366072-9.264479127040667-22.30055288156088-5.958315820916315-5.985064552134545-13.877325664380205-9.265816171506426-22.32863865724486-9.265816171506426-8.4392756717213 0-16.371659880794315 3.2807516193718835-22.32863865724486 9.265816171506426L510.4631274282928 345.26291413146714 320.382816542873 155.19731596310555c-5.956978776450557-5.985064552134545-13.890700029989322-9.265816171506426-22.32863865724486-9.265816171506426-8.424564261646424 0-16.356948470719434 3.2807516193718835-22.32863865724486 9.265816171506426-5.97035314205967 5.985064552134545-9.264479127040667 13.917448761207552-9.264479127040667 22.32863865724486 0 8.437938627255539 3.294125984980999 16.356948470719434 9.264479127040667 22.32863865724486l190.06693521282727 190.0803108854202L275.72553922838307 580.0071888606897c-5.97035314205967 5.958315820916315-9.264479127040667 13.892037074455084-9.264479127040667 22.343350067319747 0 8.423225910196827 3.294125984980999 16.351598985872556 9.251104761431554 22.327301612779095 5.985064552134545 5.971690186525428 13.918787112657157 9.257792597728027 22.343350067319747 9.257792597728027 8.437938627255539 0 16.356948470719434-3.286101104218763 22.32863865724486-9.257792597728027l190.0803108854202-190.07228600465797 190.0803108854202 190.07228600465797c5.971690186525428 5.971690186525428 13.890700029989322 9.257792597728027 22.32863865724486 9.257792597728027 8.45131299286465 0 16.37032283632855-3.286101104218763 22.32863865724486-9.257792597728027 5.985064552134545-5.9770396713723075 9.264479127040667-13.904074395598435 9.264479127040667-22.342013022853976 0-8.431250790959062-3.279414574906123-16.36497335148167-9.264479127040667-22.33532649354134L555.1484905184662 389.9349028560318 745.2020526726682 199.8545932775952z"  horiz-adv-x="1024" />

    
    <glyph glyph-name="xuexin" unicode="&#58891;" d="M891.6800003281251 843.69600009375l51.528000234375 14.832000421875001-51.815999812499996 14.25600028125C885.60800028125 874.34399990625 833.09600009375 888 775.208000234375 888c-99.14399971875 0-156.264000046875-39.239999859375-165.191999765625-113.472000140625-1.847999671875-15.455999671875-3.28799953125-30.264000046875-4.704000328125001-44.928000140625-11.9999998125-124.104000234375-19.91999953125-206.111999953125-278.543999671875-334.10399990625C21.53599985937501 244.464000140625 86.28800032812501 10.752000421874982 86.98399971875 8.447999859374931l24.119999859375-83.951999578125 2.78399953125 44.687999671875005c3.744000421875 26.063999718749997 12.264000328125 57.839999765624995 31.583999671875 79.2240001875 24.55199971875 28.3200001875 65.27999953125001 65.592000140625 126.93599985937502 94.320000140625-10.919999671874999-24.0959998125-16.607999953125-50.3039998125-16.607999953125-76.680000140625 0-102.57599953124999 83.44799957812499-186.02400009375 186.02400009375-186.02400009375 5.664000234375 0 11.304000421875 0.38399976562500004 17.688000093750002 0.9599999062500001 0.7679995312500001 0.120000234375 1.8959997656249998 0.28799957812500004 3.26400046875 0.528000046875 0.024000046875 0 42.311999953124996 5.256000421875 75.023999859375 25.416000421875 56.112000328125 34.53599953125 90.023999625 93.57599967187501 90.023999625 159.11999971875 0 43.19999971875-14.736000234375 84.336000328125-41.783999906249996 117.35999985937501 84.384000421875-3.07200009375 148.967999578125 20.184000046875 192.839999625 69.168000234375 41.807999953125 46.703999671874996 55.29599971875 106.65599962499999 59.184000421875 150.119999859375 0.04800009375 0.45599990625 0.0960001875 0.720000421875 0.14400028125 1.200000375 0 0 10.1760001875 83.135999953125-15.911999578124998 180.16800046875-0.5760001406249999 2.66400028125-0.9599999062500001 5.256000421875-1.6560002812499999 7.9439997656250005-1.2719995312499999 3.26400046875-2.232000421875 6.240000375-3.407999765625 9.407999671875-3.024 9.768000375-6.383999671874999 19.583999859374998-10.22400028125 29.47200046875-20.975999625 65.97599990625001-23.13599990625 115.247999671875-6.216000328125 149.44799953125C815.335999859375 809.5440003281251 845.023999765625 830.28000046875 891.6800003281251 843.69600009375zM807.655999625 402.5519998125c-3.744000421875-37.320000046875-15.696000140625-90.216-51.239999671875005-129.88799971875-35.28-39.4080001875-87.5999998125-59.3759998125-155.59199971875-59.3759998125-6.720000328125 0-13.65600009375 0.21600042187500001-20.0639998125 0.55200009375-11.616000046875 1.200000375-23.015999671875 2.16000028125-34.151999765625 2.8559996718750003l-49.44000009375 3.1200001875 39.336000046875-30.167999859375c33.40800028125-25.607999812499997 54.57600028125-62.447999906250004 59.903999859375006-103.199999765625-17.64 63.26399953125001-66.024 90.26400009375001-100.75199990624999 94.031999578125-1.2480004687500001 0.24000046875-2.3279996250000003 0.504-4.032 0.6240002343750001-0.696000375 0.04800009375-1.2480004687500001-0.0960001875-1.943999859375-0.072000140625-0.791999578125 0.024000046875-1.680000328125 0.21600042187500001-2.4239998125 0.21600042187500001-1.823999625 0-3.38399971875-0.38399976562500004-5.112000140625-0.504-21.792000234375-1.128000234375-37.320000046875-11.015999859374999-47.23199971875-20.975999625-0.720000421875-0.672000328125-1.3439996718749998-1.391999765625-2.016-2.088000140625-1.6080001875-1.7280004218749998-3.096000140625-3.3359996250000004-4.367999671874999-4.967999859375-0.9599999062500001-1.176000328125-1.87199971875-2.399999765625-2.76000046875-3.6240001875-2.640000234375-3.720000375-4.104000140625-6.264000421875-4.656000234375-7.29600046875-0.0960001875-0.16800032812500001-0.192000375-0.35999971875-0.28799957812500004-0.528000046875-0.024000046875-0.04800009375-0.192000375-0.35999971875-0.192000375-0.35999971875-0.04800009375-0.0960001875-0.024000046875-0.14400028125-0.072000140625-0.24000046875-4.967999859375-9.648000140625-7.8000004687499995-20.471999625000002-7.8000004687499995-31.752 0-38.808 31.559999625-70.36799962500001 70.36799962500001-70.36799962500001 16.152000046875 0 32.063999625 5.736000375 44.639999578125 16.36800046875 0.311999625-0.38399976562500004 0.6240002343750001-0.839999671875 0.983999953125-1.36799971875 11.136000093749999-17.328000375000002 19.29600028125-47.92800009375-5.7600004218750005-96.191999859375l-1.7280004218749998-3.096000140625c-0.839999671875-1.56000009375-1.799999578125-3.16800028125-3.407999765625-5.855999625l-1.3439996718749998-2.208000375c-17.18400009375-28.77600009375-58.943999953125-35.03999953125-60.43199990625-35.255999953125-4.68000028125-0.45599990625-9.383999625-0.7679995312500001-14.184000140625-0.7679995312500001-85.92000046875 0-155.856000234375 69.91199971875-155.856000234375 155.856000234375 0 36.167999765625 12.071999953125001 70.1520001875 34.92000028125 98.255999953125l33.3600001875 41.016000375000004-50.016000234375-17.256000234374998c-63.14400028125-21.816000281250002-109.584000421875-52.3199998125-141.911999578125-79.89599953125 71.495999859375 115.128000421875 172.056000375 128.06400009375002 357.4320001875 151.896000375l12.527999859375 1.632000234375C688.7599997187499 281.9040004218749 769.3039995312499 352.46400042187497 807.655999625 402.5519998125zM773.81600046875 793.70399990625c-24.45599953125-49.36799995312499-18.623999953125-116.592000328125 18.19200009375-210.86400037500002 12.575999953125-49.94400009375 6.023999953125-93.91200032812499-19.487999671875-130.68000028125002-52.3199998125-75.5039998125-182.112000328125-125.375999765625-385.80000046875-148.248000140625C224.288000140625 285.59999976562494 149.38399953125003 192.02400009375003 115.15999962500001 116.78399981250004c14.25600028125 72.096000046875 65.303999578125 172.63199953125 225.02400046875 251.688000375 273.62399990625 135.43199971875 282.67199985937503 228.888000140625 295.175999671875 358.24799981250004 1.36799971875 14.2080001875 2.78399953125 28.896000328124998 4.632000187499999 44.20799971875 6.911999718750001 57.672000421875 52.391999953125 86.904000421875 135.21600028125002 86.904000421875 21.384000421875 0 42.09599953125-2.06400009375 59.06400018750001-4.48799990625C806.000000328125 838.2240002343749 786.12799990625 818.59200028125 773.81600046875 793.70399990625z"  horiz-adv-x="1024" />

    
    <glyph glyph-name="zhengxinrenzheng" unicode="&#58913;" d="M533.0050619168553-116.15973122752814c-137.76682498082133 0-349.7225321600991 44.636100518929375-478.3692108659327 289.30156308830647l-18.240292549975074 34.726710816298706 612.4528998510859 0 0-47.266911944406544L116.02145097872324 160.60163073267006c170.73966151346855-278.33984881548497 469.16137087676265-231.24832429944362 529.1438713776423-218.44504202878804l9.909389702630694-46.21458737421569C634.9051577970047-108.35499066527939 590.4444447064405-116.15973122752814 533.0050619168553-116.15973122752814zM695.6769017255273-88.88698611674818L695.6769017255273 523.6536074485196l47.266911944406544 0 0-532.9147010874929c278.33984881548497 170.651967799286 231.24832429944362 468.98598344839746 218.5327357429706 529.0561776634595l46.03919994585055 9.82169598844811c14.557156554307026-68.1380159198588 69.54111534677995-418.12362922250543-277.2875242452941-600.3511672938909L695.6769017255273-88.88698611674818zM648.9361520662159-6.893363356043437L377.5241066711542-6.893363356043437l0 47.17921823022398 271.3243516808792 0L648.8484583520336-6.893363356043437zM648.9361520662159 82.7296125385459L372.876339819478 82.7296125385459l0 47.091524516041396 276.05981224673815 0L648.9361520662159 82.7296125385459zM820.7281381498756 247.41840777341702l-47.091524516041396 0L773.6366136338343 523.6536074485196l47.091524516041396 0L820.7281381498756 247.41840777341702zM18.85681566443293 250.83846262653708C4.38735282430855 319.1518659747612-50.68429968234727 669.0497855632246 296.144339909727 851.365017348793l34.63901710211613 18.152598835792496 0-612.5405935652686L283.5164450674365 256.97702261931715 283.5164450674365 789.8040299926273c-278.33984881548497-170.73966151346855-231.24832429944362-469.16137087676265-218.5327357429706-529.1438713776423L18.85681566443293 250.83846262653708zM910.4388077586473 252.24156205345855L863.2595895284235 252.24156205345855 863.2595895284235 523.6536074485196l47.17921823022398 0L910.4388077586473 252.24156205345855zM652.7946754902495 253.03080548110154L375.59484495913773 253.03080548110154 375.59484495913773 521.9874268790506 652.7946754902495 521.9874268790506 652.7946754902495 253.03080548110154zM422.7740631893616 300.21002371132533l182.92908778484608 0L605.7031509742079 474.89590236300927 422.7740631893616 474.89590236300927 422.7740631893616 300.21002371132533zM252.82364510353636 256.88932890513513L205.64442687331217 256.88932890513513 205.64442687331217 533.1245285802372l47.17921823022398 0L252.82364510353636 256.88932890513513zM163.20066920894726 256.88932890513513L116.02145097872324 256.88932890513513 116.02145097872324 528.3013743001961l47.17921823022398 0L163.20066920894726 256.88932890513513zM990.4154750931532 569.1666451092748L377.87488152788444 569.1666451092748 377.87488152788444 616.4335570536813l533.0900885158578 0c-170.91504894183373 278.2521551013024-469.16137087676265 231.33601801362613-529.3192588060074 218.5327357429706L371.8240152492869 881.0931864566853c68.22570963404138 14.469462840124457 418.2113229366881 69.45342163259741 600.4388610080734-277.2875242452941L990.4154750931532 569.1666451092748zM654.0223874888053 647.1263570175818L377.87488152788444 647.1263570175818 377.87488152788444 694.3055752478057l276.1475059609207 0L654.0223874888053 647.1263570175818zM649.2869269229465 736.7493329121708L377.87488152788444 736.7493329121708 377.87488152788444 783.9285511423948 649.2869269229465 783.9285511423948 649.2869269229465 736.7493329121708z"  horiz-adv-x="1024" />

    
    <glyph glyph-name="warning" unicode="&#58896;" d="M512 886.3172756077433c-277.42229740024436 0-502.31727560774334-224.89497943469112-502.31727560774334-502.31727560774334s224.89497943469112-502.31727560774334 502.31727560774334-502.31727560774334 502.31727560774334 224.89497943469112 502.31727560774334 502.31727560774334S789.4222974002444 886.3172756077433 512 886.3172756077433zM512 46.00828614243892c-43.927646011386926 2.3106589727463627-67.05684429724474 20.799703142954996-69.33108634710409 55.46461799419808 2.2754974672852537 36.94041231852834 25.403440335717182 57.74011546148335 69.33108634710409 62.39785155705508 43.873647108577345-4.657737322763748 68.13933809705588-25.457439238526728 72.79833083724552-62.39785155705508C580.139338097056 66.80798805820177 555.8736471085775 48.32020175980301 512 46.00828614243892zM584.7983308372454 645.7273939476004c-2.3294963700948217-9.243893762795366-2.3294963700948217-15.058216602954193 0-17.33245742562154l-41.599405058718-357.0571664331368c-2.3294963700948217-39.323907591432736-12.728720232859372-56.65636501705428-31.19892577852754-51.99862892148255-18.52420567566974-4.657737322763748-28.924684955860183 12.674720102857796-31.19892577852754 51.99862892148255l-38.132160568576545 357.0571664331368c-4.657737322763748 13.866468352905995-6.933234790049003 26.541189682955807-6.933234790049003 38.132160568576545 0 32.35425587849672 25.403440335717182 50.806880671434364 76.26431990996112 55.46461799419808 48.53263984876699-4.657737322763748 73.93608018448415-23.110362115701363 76.26431990996112-55.46461799419808C588.2643199099612 661.8681031231738 587.0725728871049 654.9348695603167 584.7983308372454 645.7273939476004z"  horiz-adv-x="1024" />

    
    <glyph glyph-name="chenggong" unicode="&#59109;" d="M512 893.74169297c-278.13296645 0-504.40724138-226.29104897-504.40724138-504.40724137S233.86815181-115.07278976999999 512-115.07278976999999s504.40724138 226.29104897 504.40724138 504.40724137S790.13184819 893.74169297 512 893.74169297zM465.4340843 152.24873429000002l-237.162878 230.00929948 59.70224317 49.51926897 137.04073561-104.3995283s156.40135853 178.71309816 347.8616259 299.04463102l22.85410099-28.2978434c0 0.00111827-217.81008299-192.85698764-330.29582767-445.87582777z"  horiz-adv-x="1024" />

    
    <glyph glyph-name="user-solid2" unicode="&#58914;" d="M501.70492665 691.8472937399999m-205.40398636 0a205.40398637 205.40398637 0 1 1 410.80797275 0 205.40398637 205.40398637 0 1 1-410.80797275 0ZM785.38787126-124.00732043999994h-541.06415923c-54.10641592 0-98.31837153 44.2119556-98.31837152 98.31837153v77.65272656c0 202.89905971 165.95139142 368.85045114 368.85045113 368.85045115S883.70624279 254.86283735999996 883.70624279 51.96377765v-77.65272656c0-54.10641592-44.2119556-98.31837153-98.31837153-98.31837153z"  horiz-adv-x="1024" />

    
    <glyph glyph-name="verification" unicode="&#58915;" d="M892.3195905 766.0642619299999H866.71700241c-229.65135538 0-328.07336484 101.89572741-328.07336485 101.89572743l-25.47393184 27.14646274-25.47393187-23.80140097s-98.42200946-101.89572741-328.07336483-101.89572746h-54.67889412v-458.27346097c0-122.22341042 40.14074111-295.26602834 401.02144242-431.12699829l7.33340463-3.34506172 10.93577881 3.34506172c357.27832712 132.38725192 401.02144243 308.90358779 401.02144243 431.12699829V766.0642619299999h-32.93599269zM480.36236925 192.38617023999996L276.18494571 379.19500384l54.67889413 44.12908399 109.3577883-81.43938821s149.49852937 162.87877642 298.86840255 237.62804112l21.87155764-23.80140098c-3.60237421 0-189.51061429-156.18865291-280.59921908-363.32516952z m0 0"  horiz-adv-x="1024" />

    
    <glyph glyph-name="checkbox-checked" unicode="&#58916;" d="M898-128H126C56.7-128 0-71.29999999999995 0-2V770C0 839.3 56.7 896 126 896h772c69.3 0 126-56.7 126-126v-772c0-69.3-56.7-126-126-126zM837 692.6C628.5 563.2 477.3 399.9 409.3 317.9L242.9 450l-73.5-60L457 93.70000000000005c49.5 128.4 206.3 379.4 397.7 557.7L837 692.6z m0 0"  horiz-adv-x="1024" />

    
    <glyph glyph-name="checkbox-unchecked" unicode="&#58917;" d="M898 828c15.4 0 29.9-6.1 40.9-17.1 11-11 17.1-25.6 17.1-40.9v-772c0-15.4-6.1-29.9-17.1-40.9-11-11-25.6-17.1-40.9-17.1H126c-15.4 0-29.9 6.1-40.9 17.1-11 11-17.1 25.6-17.1 40.9V770c0 15.4 6.1 29.9 17.1 40.9 11 11 25.6 17.1 40.9 17.1h772m0 68H126C56.7 896 0 839.3 0 770v-772c0-69.3 56.7-126 126-126h772c69.3 0 126 56.7 126 126V770c0 69.3-56.7 126-126 126z"  horiz-adv-x="1024" />

    
    <glyph glyph-name="fangan" unicode="&#58918;" d="M619.69714084 130.16563586999996H236.47039921c-17.82739884 0-32.66278669 6.10868914-44.88016493 18.32606735-12.21737821 12.21737821-18.32606734 27.05276608-18.32606733 44.88016492s6.10868914 32.66278669 18.32606733 45.37883342c12.21737821 12.71604672 27.05276608 18.82473584 44.88016493 18.82473584h383.22674163c17.82739884 0 32.66278669-6.10868914 45.37883341-18.82473584S683.90071011 211.19926698999996 683.90071011 193.37186813999995c0-12.71604672-3.61534663-25.05809208-11.22004124-35.77946482l139.87651403 144.863199v337.84790822H663.57996877c-18.82473584 0-35.1561292 4.11401514-48.99418003 12.71604671-13.83805085 8.72669874-24.43475647 18.82473584-33.16145522 31.66544971-8.72669874 12.71604672-14.83538786 26.55409758-18.82473581 41.38948543-4.11401514 14.83538786-6.10868914 29.04744009-6.10868911 41.88815391V895.62178207h-391.45477187c-15.83272485 0-30.66811272-4.11401514-44.88016492-12.71604671-14.33671934-8.72669874-27.05276608-19.44807148-38.27280731-32.16411819-11.22004121-12.71604672-19.94673996-26.55409758-26.55409759-42.38682246-6.60735762-15.83272485-9.72403573-30.66811272-9.72403576-44.88016491v-694.52055221c0-16.83006183 4.61268362-33.66012368 13.21471527-49.49284853 8.72669874-15.83272485 19.94673996-30.16944422 33.16145517-42.38682245 13.21471524-12.21737821 27.55143457-21.94141396 42.88549092-29.54610856 15.33405633-7.60469461 29.54610856-11.22004121 42.38682243-11.22004125H459.49988548l197.97139419 206.1994244c-10.22270424-8.22803022-22.93875097-12.34204536-37.77413883-12.34204533zM191.59023428 494.06897312c12.21737821 12.71604672 27.05276608 18.82473584 44.88016493 18.82473586h383.22674163c17.82739884 0 32.66278669-6.10868914 45.37883341-18.82473586s18.82473584-27.55143457 18.82473586-45.3788334c0-17.82739884-6.10868914-32.66278669-18.82473586-44.88016492s-27.55143457-18.32606734-45.37883341-18.32606735H236.47039921c-17.82739884 0-32.66278669 6.10868914-44.88016493 18.32606735-12.21737821 12.21737821-18.32606734 27.05276608-18.32606733 44.88016492-0.12466711 17.82739884 5.98402199 32.53811957 18.32606733 45.3788334z m0 0M630.91718208 731.3105116300001c3.61534663-6.60735762 7.60469461-12.71604672 12.71604672-17.82739887 5.11135212-5.11135212 11.22004121-7.60469461 18.82473585-7.6046946h149.97455111v16.33139336c0 4.11401514-0.49866851 8.72669874-1.99467398 14.33671933-1.49600549 5.61002062-5.11135212 12.21737821-10.72137275 19.94673998-5.61002062 7.60469461-14.33671934 17.32873034-25.05809206 28.54877157-10.72137273 11.22004121-25.55676058 25.05809208-43.88282794 41.38948545-16.83006183 14.83538786-31.1667812 27.05276608-42.38682243 36.2781333-11.22004121 9.22536724-20.94407697 16.33139336-28.54877158 21.44274547-7.60469461 5.11135212-14.33671934 8.22803022-19.94673996 9.72403573-5.61002062 1.49600549-11.22004121 1.99467401-17.32873034 1.994674h-1.99467401v-125.53979469c0-4.61268362 0.99733698-10.72137273 2.49334251-17.82739883 1.74533977-7.48002749 4.23868224-14.5860536 7.85402886-21.1934112z m99.98303406-619.4709431c-12.21737821-12.21737821-24.43475647-24.43475647-36.7768018-37.27547032-12.21737821-12.71604672-23.43741945-23.93608795-33.66012368-34.15879221l-25.55676057-25.55676055-13.21471525-13.21471526c-6.60735762-6.60735762-12.21737821-14.83538786-16.33139335-23.43741944-1.49600549-2.49334249-3.11667812-7.60469461-5.6100206-15.33405635-2.49334249-7.60469461-5.11135212-15.33405633-7.60469463-23.93608796-2.49334249-8.72669874-5.11135212-16.83006183-7.10602611-25.05809208-1.99467401-8.1033631-3.61534663-14.33671934-4.11401511-18.32606734-1.49600549-8.1033631-0.49866851-13.71338369 1.99467397-17.32873038 2.49334249-3.61534663 8.22803022-4.61268362 16.33139338-3.11667811 4.11401514 0.49866851 10.22270424 1.99467401 18.32606733 4.11401513 8.1033631 1.99467401 16.83006183 4.61268362 25.55676058 7.10602612s17.32873034 5.61002062 26.05542908 8.72669875c8.72669874 3.11667812 14.83538786 5.61002062 18.82473583 7.60469459 4.11401514 1.99467401 8.22803022 4.61268362 12.21737826 7.60469459 4.11401514 3.11667812 7.60469461 6.10868914 11.2200412 8.72669876 0.49866851 0.49866851 4.11401514 4.61268362 10.72137277 11.22004123s14.33671934 14.83538786 23.93608795 24.43475647l33.66012371 33.66012368 36.77680178 36.77680182 98.98569709 98.98569707-85.77098186 85.77098186c-36.52746757-35.77946482-69.81358987-68.44225152-98.86102997-97.98836007z m249.58358386 113.32241644c-4.11401514 9.72403573-10.22270424 18.32606734-17.82739886 27.05276607-7.60469461 8.72669874-15.33405633 14.33671934-21.94141396 17.82739884-6.10868914 3.61534663-13.71338369 5.61002062-23.43741946 6.60735762-9.72403573 0.99733698-18.32606734-1.99467401-26.5540976-9.72403575-3.61534663-2.49334249-7.60469461-6.60735762-12.71604674-11.22004121-4.61268362-4.11401514-9.10070011-8.22803022-13.83805081-12.21737825l86.76831883-85.77098185c1.99467401 1.49600549 4.61268362 3.61534663 7.1060261 6.10868913 1.99467401 1.99467401 4.61268362 4.61268362 7.10602614 7.6046946s5.61002062 6.10868914 9.22536725 9.72403575c7.60469461 7.60469461 10.72137273 15.33405633 10.22270421 23.43741946-1.12200411 8.22803022-2.11934113 15.45872346-4.1140151 20.57007559z m0 0"  horiz-adv-x="1024" />

    
    <glyph glyph-name="user-solid" unicode="&#58919;" d="M526.79831426 397.53113077c137.15844983 0 248.14580686 111.26139986 248.14580686 248.2828283 0 137.02142841-111.12437843 248.28282828-248.14580686 248.28282828-137.15844983 0-248.28282828-111.12437843-248.28282827-248.28282828s111.12437843-248.28282828 248.28282827-248.2828283z m0 0M902.37404955-119.86178287999996v40.14727849c0 175.11338552-142.50228554 412.84556379-317.75269251 412.84556381h-115.64608557c-175.25040695 0-317.75269252-237.73217829-317.75269246-412.84556381v-40.14727849h751.15147054z m0 0"  horiz-adv-x="1024" />

    
    <glyph glyph-name="bank-card3" unicode="&#58920;" d="M955.56658572 549.87964429h-22.69675928l-105.15207452 268.19525018c-11.49203001 31.31578175-48.98477789 48.41017639-81.30611227 36.19989454L44.82320791 581.6263771700001c-15.94519162-5.88966537-29.01737576-17.9562969-35.76894338-33.47053741-3.30395866-7.32616913-5.31506387-15.80154121-5.31506387-24.70786448 0-8.33172175 1.7238045-16.23249238 4.74046234-23.41501115l130.57819093-333.26887011v-170.94394629c0-34.90704117 28.15547352-63.20616503 62.63156355-63.20616502h753.87716824c34.47608999 0 62.63156354 28.29912384 62.63156353 63.20616502V486.52982889c0 34.90704117-28.15547352 63.3498154-62.63156353 63.3498154z m-60.90775903 0H708.48794066L870.09461258 612.65485817l24.56421411-62.77521388zM117.3666473 319.89539383l21.69120663 8.47537212V264.15904829L117.3666473 319.89539383z m21.69120663 166.63443506v-9.48092474l-72.39978902-28.15547358-25.42611638 64.64266884c-1.149203 2.87300749-1.86745487 6.17696611-1.86745485 9.62457512 0 3.73490977 0.86190226 7.32616913 2.29840601 10.63012771 3.30395866 7.32616913 9.76822552 12.92853373 17.66899613 15.08328941l699.57732646 272.21746071c2.87300749 1.149203 6.32061648 1.7238045 9.91187583 1.72380453 11.34837963 0 21.54755629-6.89521801 25.56976677-17.52534577l25.13881564-64.21171765-493.15173753-191.34229957h-124.54487515c-34.61974035-0.14365036-62.63156354-28.15547352-62.63156352-62.9188643-0.14365036 0-0.14365036-0.14365036-0.14365039-0.28730071z m764.79459674-414.00038092c9.91187588 0 17.81264649-7.9007706 17.81264652-17.81264647 0-9.76822552-7.9007706-17.81264649-17.81264652-17.81264651H269.63604489c-9.76822552 0-17.81264649 7.9007706-17.81264654 17.81264651 0 9.76822552 7.9007706 17.81264649 17.81264654 17.81264647h634.21640578zM269.77969522 391.00232945c-9.76822552 0-17.81264649 7.9007706-17.81264649 17.81264651s7.9007706 17.81264649 17.81264649 17.81264653h277.67617502c9.76822552 0 17.81264649-7.9007706 17.81264646-17.81264653s-7.9007706-17.81264649-17.81264646-17.81264651H269.77969522z m51.13953355-205.70733706c-38.06734939 0-68.80852965 30.74118026-68.95218004 68.80852967 0 37.923699 30.88483063 68.66487924 68.95218004 68.66487926h83.31721751c38.06734939 0 68.80852965-30.88483063 68.80852964-68.80852964S442.16014528 185.15134207000006 404.23644628 185.15134207000006h-83.31721751v0.14365032z m0 0"  horiz-adv-x="1024" />

    
    <glyph glyph-name="arrow" unicode="&#58921;" d="M620.380478 384.049976l-394.807223-394.307467 116.443143-116.443143 510.850561 510.75061-116.443143 115.943387L342.016398 894.900537 225.573255 778.357443l394.807223-394.307467z m-394.807223 394.307467"  horiz-adv-x="1024" />

    
    <glyph glyph-name="borrow" unicode="&#58922;" d="M378.12982366-48.223123920000035H267.0109827c-38.46844148 0-85.39994007 35.61078582-85.39994008 65.06662103V760.71324546c0 33.08285966 26.48826969 59.24139988 60.6702277 59.24139989h566.25545856c13.07927011 0 35.94051532 0 35.94051533-59.24139989V199.51363921999996c0-20.66304856 17.47566341-37.03961365 37.80898248-37.03961366s37.80898248 16.70629458 37.80898247 37.03961366V760.71324546c0 83.53147293-41.76573645 132.99089769-111.55848028 132.99089769H242.61099981c-75.50805513 0-133.98008618-58.14230154-133.98008616-132.99089769v-744.19947785c0-77.37652229 86.05939908-138.70620899 158.38006905-138.70620899h111.11884096c20.33331907 0 37.03961365 16.37656508 37.03961364 36.70988416 0 20.22340923-16.70629458 37.25943332-37.03961364 37.2594333z m0 0M681.04132285 712.3529190300001c-9.45224563 9.45224563-25.05944187 9.45224563-34.84141701 0l-131.89179937-131.89179935-131.89179934 131.89179935c-9.45224563 9.45224563-25.05944187 9.45224563-34.84141699 0-9.45224563-9.45224563-9.45224563-25.05944187 0-34.84141698l111.55848028-111.55848031H366.91902071c-13.40899961 0-24.72971239-10.88107345-24.72971238-24.29007304s10.88107345-24.29007304 24.72971238-24.29007304h123.86838156v-72.98012898H366.91902071c-13.40899961 0-24.72971239-10.88107345-24.72971238-24.29007304 0-13.40899961 10.88107345-24.29007304 24.72971238-24.29007304h123.86838156v-74.40895681c0-13.40899961 10.88107345-24.72971239 24.29007305-24.72971238 13.40899961 0 24.29007304 10.88107345 24.29007305 24.72971238v74.40895681h122.76928322c13.40899961 0 24.72971239 10.88107345 24.72971239 24.29007304 0 13.40899961-10.88107345 24.29007304-24.72971239 24.29007304H539.36754837v72.98012898h122.76928322c13.40899961 0 24.72971239 10.88107345 24.72971239 24.29007304s-10.88107345 24.29007304-24.72971239 24.29007304h-92.21434971l111.55848029 111.55848031c9.34233578 9.78197511 9.34233578 25.38917137-0.43963932 34.84141698z m-250.59441878-615.93470299h362.15289904l-62.86842435 62.86842437a36.8835417 36.8835417 0 0 0 0 52.31708041c14.50809792 14.50809792 37.80898248 14.50809792 52.31708042 0l120.24135709-120.24135708c10.88107345-6.15495063 17.80539291-17.80539291 17.80539289-31.544122 0-12.7495406-6.59458997-23.63061404-16.37656507-30.11529419l-120.90081609-120.90081609c-7.25404895-7.25404895-16.70629458-10.88107345-26.1585402-10.88107344-9.45224563 0-18.90449124 3.62702449-26.1585402 10.88107344a36.8835417 36.8835417 0 0 0 0 52.31708041l62.42878504 62.42878503H430.44690407c-20.33331907 0-37.03961365 16.37656508-37.03961366 36.70988414 0.32972949 19.7837699 16.70629458 36.16033498 37.03961366 36.160335z m0 0"  horiz-adv-x="1024" />

    
    <glyph glyph-name="user" unicode="&#58929;" d="M513.18351534 805.44113453c56.71347372 0 110.01974263-22.53151572 150.24674144-63.52788335 40.5567283-41.32609715 62.9783342-96.50083318 62.97833417-155.19268392s-22.31169605-113.75667694-62.97833417-155.1926839c-40.22699881-40.99636764-93.64317755-63.52788336-150.24674144-63.52788336-56.71347372 0-110.01974263 22.53151572-150.24674143 63.52788336-40.5567283 41.32609715-62.9783342 96.50083318-62.9783342 155.1926839s22.31169605 113.75667694 62.9783342 155.19268392c40.11708897 40.99636764 93.53326771 63.52788336 150.24674143 63.52788335m0 74.7386863c-159.03952806 0-287.96376193-131.3422502-287.96376192-293.45925357s128.92423387-293.45925356 287.96376192-293.45925356 287.96376193 131.3422502 287.96376192 293.45925356-128.92423387 293.45925356-287.96376192 293.45925357zM945.67870738-104.83210068999995c-15.3873766 145.74043828-100.45758717 274.22503283-227.51335387 343.68804714l35.83060547 65.61617019c148.59809395-81.22336644 248.06649262-231.25028819 265.98179538-401.39070936l-74.29904698-7.91350797zM513.18351534 293.26131369999996v74.7386863c-125.95666838 0-246.85748446-47.15131827-340.39075217-132.66116818-92.76389887-84.63057125-151.67556925-200.36562518-165.96384752-325.66283457l74.29904697-8.46305713C106.517134 124.65963019000003 292.26475142 293.26131369999996 513.18351534 293.26131369999996z"  horiz-adv-x="1024" />

    
    <glyph glyph-name="credit" unicode="&#58930;" d="M511.78018034-122.02487020000001c-92.76389887 0-183.43951093 25.16935171-262.35477089 72.76030931-16.70629458 10.11170462-22.09187639 31.76394168-11.98017177 48.36032644 10.11170462 16.70629458 31.76394168 21.98196657 48.47023626 11.98017177 67.92427666-40.99636764 145.96025796-62.53869486 225.8647064-62.53869487 241.03226331 0 437.11140502 195.52959255 437.11140502 435.90239688 0 240.37280432-196.0791417 435.90239688-437.11140502 435.90239687-241.03226331-0.21981966-437.22131485-195.74941221-437.22131488-436.01230671 0-84.85039092 24.39998288-167.06294585 70.67202249-237.73496833 10.66125378-16.26665525 6.0450408-38.13871198-10.33152427-48.69005593-16.37656508-10.66125378-38.24862181-6.0450408-48.90987559 10.22161447-53.74590825 82.21255493-82.21255493 177.72419964-82.21255494 276.20340979 0.10990983 135.18909434 52.97653941 262.35477089 148.92782345 357.97632542C248.54613079 837.92760945 376.15144665 890.57441936 511.78018034 890.57441936S774.90432006 837.92760945 870.85560408 742.3060549100001c95.84137419-95.62155452 148.70800378-222.78723108 148.70800377-358.08623525 0-135.18909434-52.86662958-262.35477089-148.70800377-357.97632542-95.95128404-95.62155452-223.44669007-148.26836443-359.07542374-148.26836444z m0 0M291.41096558 652.7295411800001c13.18917993 11.98017177 35.28105633 2.52792617 35.28105632-15.71710609v-502.3978457c0-11.87026194-9.45224563-20.77295839-20.77295838-20.7729584h-1.31891802c-11.32071278 0-20.77295839 8.79278662-20.77295839 20.7729584V588.6521086800001c-13.18917993-11.98017177-25.82881071-24.5098927-39.01799065-36.38015467-8.79278662-7.58377846-21.4324174-6.92431946-29.01619584 0.659459-4.39639331 5.0558523-6.26486047 9.45224563-6.26486047 15.7171061 0 5.60540147 2.52792617 10.66125378 6.92431946 14.39818808l74.95850597 69.68283399z m460.96183874-15.71710609c11.32071278 0 20.77295839-9.45224563 20.7729584-20.7729584v-1.20900814c0-11.32071278-9.45224563-20.77295839-20.7729584-20.7729584H392.74783142c-11.32071278 0-20.77295839 9.45224563-20.77295841 20.7729584v1.20900814c0 11.32071278 9.45224563 20.77295839 20.77295841 20.7729584h158.70979856v25.16935172c0 11.98017177 9.45224563 20.77295839 20.77295839 20.7729584h0.65945901c11.32071278 0 20.77295839-8.79278662 20.77295839-20.7729584v-25.16935172h158.70979855zM382.08657763 278.48656052c0 8.79278662 1.86846716 17.58557325 5.05585231 25.71890087 11.32071278 24.5098927 34.07204815 41.43600697 61.76932604 41.43600697h247.51694345c18.24503225 0 34.62159733-7.58377846 47.26122811-20.11349939C756.21964848 312.99824801 763.69351709 296.07213376000004 763.69351709 278.48656052v-97.92966103c0-27.58736804-16.37656508-50.88825258-41.54591679-61.54950637-7.58377846-3.73693431-16.37656508-5.0558523-25.8288107-5.0558523H448.80184615c-36.49006449 0-66.7152685 29.56574503-66.71526852 66.60535867V278.48656052z m355.77812877 256.19982025c11.32071278 0 20.77295839-9.45224563 20.77295838-20.7729584v-1.20900816c0-10.66125378-9.45224563-20.77295839-20.77295838-20.7729584H407.25592935c-11.32071278 0-20.77295839 10.00179478-20.7729584 20.7729584v1.20900816c0 11.32071278 9.45224563 20.77295839 20.7729584 20.7729584h330.60877705z m0-100.45758718c11.32071278 0 20.77295839-10.00179478 20.77295838-20.77295838v-1.20900819c0-11.32071278-9.45224563-20.77295839-20.77295838-20.77295838H407.25592935c-11.32071278 0-20.77295839 9.45224563-20.7729584 20.77295838v1.20900819c0 10.66125378 9.45224563 20.77295839 20.7729584 20.77295838h330.60877705zM424.95141243 180.44698964999998c0-14.39818811 9.45224563-24.5098927 23.96034355-24.50989269h247.51694345c14.50809792 0 24.61980254 10.00179478 24.61980255 24.50989269V278.48656052c0 13.84863893-10.11170462 23.85043372-24.61980255 23.85043371H448.80184615c-14.50809792 0-23.96034354-10.00179478-23.96034356-23.85043371l0.10990984-98.03957087z m0 0"  horiz-adv-x="1024" />

    
    <glyph glyph-name="wenhao" unicode="&#58931;" d="M512.133507 896C229.231812 896 0 666.768188 0 384S229.231812-128 512.133507-128C794.901695-128 1024.133507 101.23181199999999 1024.133507 384S794.901695 896 512.133507 896z m0-934.416688c-233.237027 0-422.416688 189.179661-422.416688 422.416688S278.762973 806.416688 512.133507 806.416688c233.237027 0 422.416688-189.179661 422.416689-422.416688S745.370535-38.41668800000002 512.133507-38.41668800000002z m0 0M497.314211 159.84145999999998c-16.287875 0-30.039113-5.473794-40.986701-16.421382-10.947588-10.947588-16.421382-24.698827-16.421382-40.986701s5.473794-30.039113 16.421382-40.986702c10.947588-10.947588 24.698827-16.421382 40.986701-16.421382s30.039113 5.473794 40.986702 16.421382c10.947588 10.947588 16.421382 24.698827 16.421382 40.986702s-5.473794 30.039113-16.421382 40.986701c-11.081095 10.947588-24.698827 16.421382-40.986702 16.421382z m0 0M637.897262 652.349413c-14.952803 13.484224-32.842764 23.497262-53.669883 30.039114-20.827119 6.408344-43.389831 9.479009-67.554628 8.811473-24.832334-0.534029-48.062581-4.405737-69.690743-11.34811-21.628162-7.07588-40.58618-16.421382-56.607041-28.30352-16.02086-11.882138-28.704042-26.033898-38.049543-42.722294-9.345502-16.554889-13.884746-34.845372-13.884746-54.470926 0-14.15176 3.604694-24.832334 10.947588-32.175228 7.342894-7.342894 19.492047-11.214602 36.31395-11.882138 13.484224 0 26.701434 3.604694 39.65163 10.947588 12.950196 7.342894 19.492047 18.290482 19.492047 32.976271s7.07588 25.366362 21.094133 32.041721c14.018253 6.808866 30.172621 10.413559 48.196089 10.947588 18.023468 0.534029 33.5103-3.204172 46.460495-11.34811 12.950196-8.143937 19.35854-23.764276 19.35854-46.861017 0-9.612516-0.801043-18.156975-2.536636-25.766884-1.735593-7.609909-4.539244-15.219817-8.410952-22.829726-4.005215-7.609909-9.479009-15.620339-16.554889-24.031291-7.07588-8.410952-15.620339-17.756454-25.766884-27.902998-13.484224-12.950196-25.366362-26.834941-35.512908-41.787745-10.146545-14.952803-18.557497-29.905606-25.366362-44.724902-6.808866-14.952803-12.015645-28.971056-15.620339-42.188266-3.738201-13.21721-5.473794-24.431812-5.473794-33.376793 0-17.489439 5.073272-30.039113 15.219817-37.649022 10.146545-7.609909 22.562712-11.34811 37.114994-11.348109 14.685789 0 26.968449 4.138722 37.114993 12.282659 10.146545 8.143937 15.219817 20.426597 15.219818 36.714472 0 10.680574 0.667536 20.560104 2.136115 29.505085 1.468579 8.94498 4.672751 18.156975 9.746023 27.502477 5.073272 9.345502 12.416167 19.759061 22.028683 31.240678 9.612516 11.481617 22.562712 25.232855 38.850587 40.986702 24.164798 23.096741 40.452673 44.591395 48.59661 64.61747 8.143937 20.026076 12.549674 41.253716 13.083703 63.816428 0.534029 25.900391-3.204172 48.730117-11.34811 68.489179-8.01043 19.759061-19.625554 36.31395-34.578357 49.798174z m0 0"  horiz-adv-x="1024" />

    
    <glyph glyph-name="phone" unicode="&#58936;" d="M818.65082964-123.20707920999996H262.90517223c-53.15281046 0-96.45085924 43.29804877-96.45085924 96.45085924V335.7732053h79.67679676v-362.52942527c0-9.12089648 7.65316601-16.77406248 16.77406248-16.77406247h555.74565741c9.12089648 0 16.77406248 7.65316601 16.77406248 16.77406247v828.21933477c0 9.12089648-7.65316601 16.77406248-16.77406248 16.77406247H262.90517223c-9.12089648 0-16.77406248-7.65316601-16.77406248-16.77406247v-224.56276141h-79.67679676V801.4631148c0 53.15281046 43.29804877 96.45085924 96.45085924 96.45085923h555.74565741c53.15281046 0 96.45085924-43.29804877 96.45085924-96.45085923v-828.21933477c0-53.15281046-43.29804877-96.45085924-96.45085924-96.45085924zM82.47916272 543.56190422H299.17908233v-54.51570305H82.47916272zM82.47916272 441.86915047H299.17908233v-54.51570305H82.47916272zM246.02627186 739.6087594200001h594.74535267v-54.51570305H246.02627186zM246.02627186 120.33134037000002h594.74535267v-54.51570305H246.02627186zM540.83041988 9.517690140000013m-41.62064252 0a41.62064252 41.62064252 0 1 1 83.24128504 0 41.62064252 41.62064252 0 1 1-83.24128504 0Z"  horiz-adv-x="1024" />

    
    <glyph glyph-name="bank-card2" unicode="&#58937;" d="M915.79914424-4.933411510000042H108.20085576c-58.75504402 0-106.62112236 47.86607833-106.62112235 106.62112237v100.60950587h86.20431169V101.68771086000004c0-11.11581913 9.30099152-20.41681066 20.41681066-20.41681067h807.59828848c11.11581913 0 20.41681066 9.30099152 20.41681066 20.41681067V671.0898749c0 11.11581913-9.30099152 20.41681066-20.41681066 20.41681067H108.20085576c-11.11581913 0-20.41681066-9.30099152-20.41681066-20.41681067v-307.72670738H1.57973341V671.0898749c0 58.75504402 47.86607833 106.62112236 106.62112235 106.62112236h807.59828848c58.75504402 0 106.62112236-47.86607833 106.62112235-106.62112236v-569.40216404c0-58.75504402-47.86607833-106.62112236-106.62112235-106.62112237zM68.50150168 596.22823581h871.11725499v-86.2043117H68.50150168zM791.3700259 143.99587961999998H574.38469926L658.32047642 280.90193779000003h216.98532666z"  horiz-adv-x="1024" />

    
    <glyph glyph-name="shenfen" unicode="&#58938;" d="M512-114.60325005000004c-68.0341865 0-133.98008618 13.29908977-196.18905154 39.56753981-60.0107687 25.38917137-113.86658678 61.65941619-160.1386264 107.93145581-46.2720396 46.2720396-82.54228442 100.12785769-107.93145578 160.13862639-26.26845005 62.20896536-39.56753981 128.15486505-39.56753982 196.18905154 0 68.0341865 13.29908977 133.98008618 39.56753982 196.18905153 25.38917137 60.0107687 61.65941619 113.86658678 107.93145578 160.13862639s100.12785769 82.54228442 160.1386264 107.9314558c62.20896536 26.26845005 128.15486505 39.56753981 196.18905154 39.56753981 104.08461165 0 203.99264967-31.43421218 288.95295042-91.00534155l-47.92068711-68.36391601C682.14042117 783.4699937400001 598.8287679 809.73844377 512 809.73844377c-231.79983737 0-420.40511044-188.60527308-420.40511044-420.40511044S280.20016263-31.07177710999997 512-31.07177710999997 932.40511044 157.53349595999998 932.40511044 389.33333333c0 84.19093192-24.72971239 165.30438852-71.66121097 234.76740285l69.24319466 46.71167893c56.16392456-83.31165325 85.94948925-180.69176511 85.94948925-281.47908178 0-68.0341865-13.29908977-133.98008618-39.56753981-196.18905154-25.38917137-60.0107687-61.65941619-113.86658678-107.93145581-160.1386264-46.2720396-46.2720396-100.12785769-82.65219426-160.13862639-107.93145578-62.31887519-26.37835986-128.26477486-39.67744963-196.29896137-39.67744966zM383.73522514 370.53875193c-68.47382584 0-124.19811105 55.72428521-124.19811108 124.19811106s55.72428521 124.19811105 124.19811108 124.19811106 124.19811105-55.72428521 124.19811105-124.19811106-55.72428521-124.19811105-124.19811105-124.19811106z m0 186.84671575c-34.5116875 0-62.64860468-28.1369172-62.64860471-62.64860469s28.1369172-62.64860468 62.64860471-62.64860471 62.64860468 28.1369172 62.64860467 62.64860471-28.1369172 62.64860468-62.64860467 62.64860469zM605.20353821 195.34247844000004h-61.54950636c0 88.14768589-71.77112082 159.91880673-159.91880671 159.91880674s-159.91880673-71.77112082-159.91880673-159.91880674h-61.54950637c0 122.10982422 99.35848883 221.46831308 221.4683131 221.46831308s221.46831308-99.35848883 221.46831307-221.46831308zM626.3062261 559.5836643299999h218.72056728v-61.54950635H626.3062261zM626.3062261 421.20718484h218.72056728v-61.54950636H626.3062261zM626.3062261 282.72079552h218.72056728v-61.54950636H626.3062261z"  horiz-adv-x="1024" />

    
    <glyph glyph-name="tongxunlu" unicode="&#58940;" d="M818.82638276 894.79531223H205.50858054c-66.32273339 0-120.14017025-56.05052553-120.14017025-125.27627417v-96.69273926h122.59656779v-101.49387987H85.36841029v-130.85899585h122.59656779v-101.4938799H85.36841029v-130.85899583h122.59656779v-101.49387989H85.36841029v-96.69273926c0-69.11409422 53.81743686-125.27627419 120.14017025-125.27627419h613.42945664c66.32273339 0 120.14017025 56.16217996 120.14017025 125.27627419V769.51903806c-0.11165443 69.22574865-53.81743686 125.27627419-120.25182467 125.27627417zM782.20372862 128.28762752c-1.56316208-0.22330886-3.01466968-0.44661773-4.46617733-0.44661772-11.27709776 0-21.43765119 8.3740825-23.55908543 20.43276128C735.8671388 249.32103323 650.89811504 322.67799591999994 552.195596 322.67799591999994c-98.36755576 0-183.33657951-73.02199938-201.75956101-173.6226438-2.56805198-13.62184087-15.07334849-22.44254109-28.13691719-19.87448912-13.0635687 2.56805198-21.54930563 15.74327509-19.0929081 29.36511594 19.09290809 103.72696854 95.68784935 183.0016162 191.15238985 206.56070164-51.9193115 23.44743099-88.43031118 77.37652229-88.4303112 140.1263138 0 84.18744273 65.6528068 152.74326478 146.37896207 152.74326479s146.37896207-68.55582206 146.37896207-152.74326479c0-62.74979153-36.51099969-116.67888282-88.5419656-140.1263138 95.79950379-23.55908543 172.39444504-103.16869638 191.26404426-207.34228268 2.34474308-13.73349529-6.14099383-26.90871842-19.20456253-29.47677038zM650.56315174 505.12133996c0 56.49714326-44.10350117 102.61042423-98.36755574 102.61042422-54.26405458 0-98.36755576-46.00162651-98.36755575-102.61042422 0-56.49714326 44.10350117-102.61042423 98.36755575-102.61042422 54.26405458 0.11165443 98.36755576 46.11328097 98.36755574 102.61042422z m0 0"  horiz-adv-x="1024" />

    
    <glyph glyph-name="yunying" unicode="&#58941;" d="M826.57474655 509.56470921c-27.65451601-109.58101978-104.1653437-189.20298052-195.65570089-189.20298051-169.72959215 0-207.06318877 184.13298591-207.0631888 184.13298591s-115.11192299 178.1411741 2.76545163 128.82395385c13.82725801 134.81576566 99.44103056 239.32679082 204.29773717 239.3267908 103.12829937 0 187.93548187-100.82375636 203.83682857-231.95225318 0 0.4609086 0.57613575 1.84363441 0.57613574 1.84363438 0.92181719-0.11522714 1.84363441-0.4609086 2.7654516-0.92181719v0.92181719c91.14467576 7.83544623 22.93020289-103.58920797-11.52271502-132.97213125zM377.76499682 293.62902988999997c-112.46169854-57.95925651-167.42504913-205.68046298-180.67617141-387.50890588h-95.4080803c-24.42815582 0-47.81926731 9.67908061-65.10333983 26.96315312-17.28407253 17.28407253-26.96315314 40.675184-26.96315314 65.1033398V458.40385456c0 50.8151732 41.25131975 92.06649296 92.06649297 92.06649296h184.13298591c50.8151732 0 92.06649296-41.25131975 92.06649296-92.06649296v-164.77482467z m-114.99669583 118.79919178H124.72617514c-12.67498648 0-23.04543003-10.25521636-23.04543003-23.04543003 0-12.67498648 10.25521636-23.04543003 23.04543003-23.04543003h138.04212585c12.67498648 0 23.04543003 10.25521636 23.04543003 23.04543003s-10.3704435 23.04543003-23.04543003 23.04543003z m0-92.06649297H124.72617514c-12.67498648 0-23.04543003-10.25521636-23.04543003-23.04543002 0-12.67498648 10.25521636-23.04543003 23.04543003-23.04543003h138.04212585c12.67498648 0 23.04543003 10.25521636 23.04543003 23.04543003s-10.3704435 23.04543003-23.04543003 23.04543002zM469.83148978 274.38609579l138.04212583-230.1086188V182.31960286000003l-45.97563288 92.06649293 45.97563288 45.97563291 23.04543005-11.52271502 23.04543001 11.52271502 45.97563291-45.97563291-45.97563291-92.06649293v-138.04212587l138.04212588 230.1086188S957.12710766 291.43971402 1022.11522034-93.76464886999997h-782.39234938c0-0.11522714 26.50224455 387.39367874 230.10861882 368.15074466z m0 0"  horiz-adv-x="1024" />

    
    <glyph glyph-name="zhengxi" unicode="&#58947;" d="M519.33865233 893.18423496c10.90314061-0.20967577 21.38692966-4.08867773 29.7739609-11.00797851 76.84617371-59.96727336 215.96605438-102.74113267 360.85201902-135.24087871 21.07241599-4.92738085 35.95939643-22.95949802 36.06423432-43.82223822v-390.8356557c0-274.15108359-434.34338025-426.58537636-434.34338024-426.58537634S77.34210609 38.126400229999945 77.34210609 296.97115181000004V698.1857586799999c-0.52418945 21.80628121 14.88698045 40.88677729 36.79809955 45.49964447C265.21160581 774.92709451 411.35562514 821.68479366 489.56469143 882.91012169c8.38703124 6.70962499 18.87082029 10.27411327 29.7739609 10.27411327z m67.2010878-351.52144677v-311.26369683h-59.75759757V475.92943086h-51.58024212v-245.5303395h-42.98353509V180.70593127999996h321.32813431v49.69316008H639.69255059V378.95438217000003h91.62831628v47.28188861h-91.62831628V541.66278819h102.21694322v49.16897064H446.89567001v-49.16897064h139.64407012z m-207.47418526 76.0074706c-21.28209176-44.76577924-54.09635148-83.34612293-98.12826548-116.37005842l16.14503514-50.21734956c60.70113859 43.82223821 103.26532212 92.04766783 128.00706426 145.61982988l-46.02383392 20.9675781zM395.3154279 491.0260871c-24.32239059-47.70124017-60.70113859-89.63639636-109.76527133-124.65225179l16.14503514-49.16897062c15.30633201 10.90314061 30.08847458 22.22563278 44.55610345 34.07231439v-187.97433762h51.58024211V403.27677276c17.71760349 21.38692966 32.39490816 43.82223821 43.50772455 67.2010878L395.3154279 491.0260871z m0 0"  horiz-adv-x="1024" />

    
    <glyph glyph-name="jd-logo" unicode="&#58950;" d="M828.59703015-113.15467572L199.67452518-114.41273042c-103.78951157-0.20967577-188.91787863 84.49933972-189.12755442 188.28885131L9.39375397 702.79862586c-0.20967577 103.78951157 84.49933972 188.91787863 188.28885129 189.12755441L826.60511023 893.07939708c103.78951157 0.20967577 188.91787863-84.49933972 189.12755443-188.28885131l1.25805469-628.92250497c0.10483789-103.78951157-84.60417762-188.81304075-188.3936892-189.02271652zM773.76681344 658.13768451s-6.6047871-12.16119529-7.23381445-13.31441209-4.92738085-0.41935157-4.92738085-0.41935156l1.25805468 13.83860154 10.27411327 0.73386523 0.62902735-0.83870312zM744.7966069 741.06637231a40.25774993999999 17.92727927 9.92200000000001 1 1 79.31124801 13.87341193 40.25774993999999 17.92727927 9.92200000000001 1 1-79.31124801-13.87341193ZM720.37470943 744.83153499a40.25774993999999 17.92727927 9.92200000000001 1 1 79.31124906 13.87341192 40.25774993999999 17.92727927 9.92200000000001 1 1-79.31124906-13.87341192ZM713.77777888 735.62013302a40.25774993999999 17.92727927 9.92200000000001 1 1 79.311248 13.87341192 40.25774993999999 17.92727927 9.92200000000001 1 1-79.311248-13.87341192ZM726.56461525 727.64324124a40.25774993999999 17.92727927 9.92200000000001 1 1 79.31124802 13.87341191 40.25774993999999 17.92727927 9.92200000000001 1 1-79.31124802-13.87341191ZM459.14830412 714.75014537a28.30623043 22.015957 90 1 1 44.031914 0 28.30623043 22.015957 90 1 1-44.031914 0ZM446.46291937 638.21848532a120.87808772 28.30623042999999 0 1 1 241.75617544 0 120.87808772 28.30623042999999 0 1 1-241.75617544 0ZM528.6558255 654.9925478a120.87808772 28.30623042999999 0 1 1 241.75617544 0 120.87808772 28.30623042999999 0 1 1-241.75617544 0ZM577.09093089 489.03416717s0.94354101-16.66922458 67.09624992-6.91930078c0 0-7.96767967-181.57922631 4.92738085-240.9174723 0 0-4.92738085-16.77406248-20.75790232 41.51580463-15.72568358 58.2898671-19.70952341 72.02363076-26.62882418 75.06392958-6.91930076 2.93546093-38.4755058-17.82244138-54.30602725-51.37056634-15.72568358-33.54812495-24.74174215-74.01555068-24.74174217-74.01555068s-10.48378905-7.96767967-10.69346482 4.92738086c-0.20967577 12.89506053 8.70154491 79.99131044 8.70154491 79.99131043s-18.24179294-46.96737493-21.38692966-71.60427919-9.54024803-2.51610937-8.28219335 5.03221873c1.25805468 7.54832811 8.59670702 41.30612885-0.20967578 61.53984171 0 0-8.07251757 3.77416406-60.59630069-75.37844324 0 0-4.40319141-11.74184374-9.54024804-6.81446289-5.03221875 4.92738085 0.62902734 12.58054685 5.66124608 25.16109372 5.03221875 12.68538475 27.25785152 64.58014054 34.17715231 70.97525185 0 0-20.86274021-3.77416406-32.29007027 1.88708203-11.42733006 5.66124609-25.37076949 16.45954881-16.45954881 58.28986711 3.56448827 16.77406248 3.87900195 0.20967577 2.51610938-12.05635741-2.93546093-25.99979684 7.54832811-40.78193939 27.4675273-36.48358588 20.86274021 4.50802929 31.45136715 21.17725387 31.45136714 21.17725387l103.89434945 129.99898419z m245.84485318 259.57861683s-22.015957-22.33047067-68.1446288-21.70144334c-21.38692966 0.20967577-34.80617964 1.46773047-37.5319648 9.85476171-4.19351561 13.2095742 32.29007027 32.49974604 77.99939051 29.98363667 0 0-40.57226361 21.38692966-167.84546265 11.42733007-127.37803693-9.8547617-301.09442145-87.85415222-301.09442144-87.85415222s1.04837891-6.91930076-15.72568358 4.92738085-37.53196479 20.75790231-43.40288666 19.70952341c-5.97575976-1.04837891-16.77406248 0-18.76598239-25.68528317l-52.73345891-128.32157794s34.91101753-25.68528317 76.32198427-9.8547617c41.41096675 15.72568358 41.51580463 69.08816982 31.55620502 86.91061121 0 0 5.97575976 1.04837891 11.84668163-8.9112207 5.97575976-9.8547617 71.08008974-47.3867265 93.82991198-57.2414882 22.74982223-9.8547617 146.03918143-53.15281046 175.70830443-60.70113859 29.66912301-7.44349022 64.16078897-1.57256835 77.99939052 11.32249218 13.83860154 12.89506053 85.8622323 91.83799206 103.68467368 122.45065607 0 0-222.4660036-36.58842377-285.47357576-9.8547617 0 0-9.64508593-4.92738085-14.67730467-1.99191992-4.92738085 2.93546093 1.04837891 20.65306442 5.97575976 18.76598238 4.92738085-1.99191992 8.70154491-6.91930076 8.70154491-6.91930076s72.23330653-26.62882418 292.39287653 12.89506053c0 0 65.10432999 63.11241007 49.37864642 90.78961316z m-347.8521206-46.54802338c-12.26603319-1.36289258-12.47570897 19.08049607-7.33865233 31.76588082 3.56448827 8.70154491 22.33047067 12.16119529 21.9111191-2.3064336-0.52418945-18.45146873-3.04029883-28.09655466-14.57246677-29.45944722z m0 0M509.994681 69.26325370999996v64.05595107H269.70623602v-64.26562686h102.11210533v-61.22532804c0-11.32249217-1.99191992-16.98373826-5.87092186-20.33855074-3.87900195-3.45965039-9.95959959-5.24189452-17.82244139-5.34673243v-19.08049605c20.65306442 0.62902734 35.74972066 5.13705664 45.28996868 13.41924997 9.54024803 8.28219335 14.362791 21.07241599 14.362791 38.16099214v54.41086515H509.994681v0.20967579z m-34.70134176 19.81436129H304.30273988v24.2175527h170.99059936v-24.2175527z m0 0M407.88257567 181.85914807999995h-36.06423432v-15.09665623H260.89985322v-20.02403708h257.79637269v20.02403708H407.88257567v15.09665623z m0 0M260.89985322-36.308501999999976h20.44338865c43.71740033 38.05615425 55.14473038 92.15250573 55.14473038 92.15250572h-39.52388471c-4.71770507-38.37066792-20.86274021-70.66073818-36.06423432-92.15250572z m0 0M443.21294477 55.844003720000046s11.32249217-54.20118937 55.03989249-92.15250572h20.44338865c-15.09665623 21.49176755-31.24169136 53.78183781-36.06423433 92.15250572h-39.41904681z m0 0M556.64754226-36.308501999999976H577.09093089c43.71740033 38.05615425 55.0398925 92.15250573 55.03989251 92.15250572h-39.41904681c-4.82254296-38.37066792-20.9675781-70.66073818-36.06423433-92.15250572z m0 0M738.85579591 55.844003720000046s11.42733006-54.20118937 55.0398925-92.15250572h20.44338865c-15.09665623 21.49176755-31.24169136 53.78183781-36.06423434 92.15250572h-39.41904681z m0 0M647.22747964 166.76249184999995l7.12897653 15.20149412h-36.1690722l-7.12897656-15.20149412h-54.51570305v-20.02403708h45.1851308l-36.2739101-77.68487685h104.62821469v-61.22532804c0-11.84668162-1.99191992-16.98373826-5.87092186-20.33855074-3.98383984-3.45965039-9.95959959-5.24189452-17.82244139-5.34673243v-19.08049605c20.54822653 0.62902734 35.64488276 5.13705664 45.28996869 13.41924997 9.54024803 8.28219335 14.362791 21.07241599 14.362791 38.16099214v54.41086515h99.59599596v20.02403708h-99.59599596v42.9835351h-35.95939644v-42.9835351h-58.60438077l26.73366207 57.76567765h176.33733178v20.02403708H647.22747964z m0 0"  horiz-adv-x="1024" />

    
    <glyph glyph-name="xuexin3" unicode="&#58951;" d="M827.45721244-113.15467572L198.53470747-114.41273042c-103.78951157-0.20967577-188.91787863 84.49933972-189.12755441 188.28885131L8.25393625 702.79862586c-0.20967577 103.78951157 84.49933972 188.91787863 188.28885131 189.12755441L825.46529253 893.07939708c103.78951157 0.20967577 188.91787863-84.49933972 189.12755441-188.28885131l1.25805469-628.92250497c0.10483789-103.78951157-84.60417762-188.81304075-188.39368919-189.02271652zM855.97311866 482.32454219v-125.80546858l26.52398628-26.52398629-55.24956828-57.45116398-55.87859562 55.77375773 38.26583003 34.80617964v99.28148228c-162.49873024-66.99141201-214.39348603-87.74931433-250.45772036-104.10402524-35.95939643-16.24987303-61.95919327-16.24987303-97.70891392-2.72578516s-205.79677901 75.48328114-290.29611873 115.95070687c-56.29794718 27.04817575-60.07211125 44.03191401 0.94354101 66.99141202 79.46712098 30.19331246 211.03867353 78.52357997 280.7558707 105.04756625 41.20129095 16.77406248 63.11241007 25.79012106 100.85405064 6.70962499 67.62043935-27.99171675 222.15148992-85.96707019 298.89282575-117.62811311 66.99141201-29.04009566 21.91111911-38.58034369 3.3548125-50.32218742M566.83021672 308.60815766999997c39.31420893 16.24987303 92.25734362 42.9835351 149.91818338 67.72527724v-198.66780245s-74.7494159-79.46712098-206.00645478-79.46712098c-141.42631425 0-217.74829852 79.46712098-217.74829853 79.46712098V363.12386071000003c44.55610345-18.13695505 94.6686151-33.75780074 155.26491579-54.41086516 37.42712691-13.41924998 84.81385339-18.03211716 118.57165414-0.10483788"  horiz-adv-x="1024" />

    
    <glyph glyph-name="yunyingshang" unicode="&#58953;" d="M612.286604 555.5638630000001c19.140187 23.725857 33.794393 51.638629 44.161994 83.937695C666.616822 671.800623 671.900312 706.392523 671.900312 743.476636c28.510903-10.766355 47.451713-20.934579 56.623052-30.70405 9.17134-9.76947 13.757009-23.426791 13.75701-40.872274 0-30.305296-7.277259-59.813084-21.732087-88.722742-14.654206-29.109034-29.707165-43.563863-45.358256-43.563863-6.080997 0-14.056075 1.395639-24.224299 3.887851-10.068536 2.691589-23.028037 6.778816-38.679128 12.062305m-441.619937-490.267913c-44.560748 56.323988-76.859813 109.258567-96.398754 159.501558-19.738318 50.242991-29.507788 103.476636-29.507788 159.501557 0 61.607477 11.962617 120.82243 35.588785 178.143303 23.725857 57.320872 57.520249 107.862928 101.283489 151.925233 43.962617 43.76324 94.404984 77.657321 151.52648 101.283489C390.180685 839.277259 449.694704 851.140187 511.601246 851.140187c62.105919 0 121.619938-11.663551 178.143302-35.190031 56.523364-23.426791 106.766355-57.520249 151.127726-101.682243 43.962617-43.962617 77.856698-94.404984 101.682243-151.52648 23.825545-57.121495 35.788162-116.535826 35.788162-178.342679 0-61.208723-11.962617-120.423676-35.788162-177.943925-23.825545-57.420561-57.719626-107.962617-101.682243-151.52648-43.962617-44.062305-94.404984-77.856698-151.725857-101.682243-57.320872-23.825545-116.535826-35.788162-177.545171-35.788162-74.866044 0-134.878505 11.862928-179.838006 35.987539-45.158879 24.024922-67.588785 55.725857-67.588785 94.604361 0 8.373832 1.595016 16.647975 4.485981 24.623053 3.090343 7.975078 7.975078 16.34891 15.05296 25.619938 6.778816-6.479751 12.859813-11.165109 18.542056-14.255452 5.482866-3.090343 10.367601-4.485981 14.654205-4.485981 6.778816 0 17.146417 5.88162 31.501558 17.64486 14.056075 11.862928 28.211838 26.915888 42.267913 45.358255 11.563863 15.65109 21.333333 33.196262 29.507788 52.93458 8.274143 19.538941 12.361371 32 12.361371 37.582554 0 3.28972-4.884735 10.766355-14.454829 22.23053-9.76947 11.563863-14.654206 23.028037-14.654206 34.990654 0 15.65109 4.485981 36.386293 13.457944 62.00623 8.971963 25.819315 21.931464 56.523364 39.077882 92.11215 19.937695 40.074766 35.987539 68.186916 48.448598 84.436137 12.261682 16.249221 25.021807 26.517134 38.080997 31.102804 2.890966 1.196262 7.975078 2.193146 14.853582 2.890965 22.529595 2.392523 39.277259 12.161994 50.442368 29.109035 10.168224 17.146417 19.140187 39.277259 26.816199 66.292835 7.576324 26.816199 11.464174 49.64486 11.464175 68.386292 0 15.252336-2.392523 25.619938-7.277259 30.903427-4.685358 5.283489-14.654206 7.975078-30.105919 7.975078-24.024922 0-44.361371-1.794393-61.208722-5.084112-16.847352-3.588785-29.507788-8.373832-38.280374-15.052959-10.766355-7.676012-27.813084-26.218069-51.239876-56.124611-23.426791-29.707165-47.451713-63.700935-71.975078-101.88162-44.560748-69.781931-81.345794-144.249221-109.856697-223.302181-28.610592-78.853583-42.866044-138.068536-42.866044-177.744548 0-7.875389 1.794393-15.850467 5.084112-24.423676 3.588785-8.672897 9.570093-19.937695 18.342679-33.993769-11.962617-14.853583-20.735202-29.707165-26.417445-44.161994-5.682243-14.454829-8.573209-29.109034-8.573209-43.962617 0-49.246106 26.616822-89.520249 79.551402-120.82243 53.133956-31.302181 123.214953-46.953271 210.143302-46.953271 66.890966 0 131.788162 13.158879 195.090343 39.277259 63.202492 26.018692 118.82866 62.903427 166.978193 110.853582 48.149533 48.049844 85.233645 103.576324 111.252336 166.579439 26.218069 62.903427 39.277259 128.199377 39.277259 195.887851s-12.859813 132.58567-38.878505 194.791277c-26.018692 62.105919-63.102804 117.632399-111.65109 166.579439-48.249221 48.647975-103.376947 85.632399-165.981308 111.451714C645.183801 883.140187 579.88785 896 511.501558 896 443.41433 896 378.317757 883.140187 316.012461 857.121495c-62.604361-26.018692-117.732087-63.202492-165.781931-111.252336C102.280374 698.11838 65.29595 642.791277 39.277259 579.8878500000001 13.05919 516.685358 0 451.588785 0 384.299065 0 325.28348900000003 8.971963 270.35514 26.915888 220.11215000000004c17.943925-50.442368 44.361371-95.401869 79.551402-134.679128 7.277259-8.373832 14.454829-14.853583 21.53271-19.140187 7.077882-4.485981 13.757009-6.579439 19.738318-6.579439 1.894081 0 4.884735 0.598131 8.573208 1.395638 3.987539 0.797508 8.672897 2.392523 14.355141 4.186916m171.862928-2.193146c29.109034 20.934579 52.934579 44.959502 71.975078 71.775701 18.94081 27.015576 32.299065 56.722741 40.274143 89.121495 20.336449-13.457944 33.993769-24.224299 41.071651-32.498442 7.077882-8.174455 10.566978-16.548287 10.566978-25.420561 0-23.227414-11.76324-50.841121-35.588785-82.542056-23.626168-31.601246-46.155763-47.551402-67.389408-47.551402-6.479751 0-14.853583 2.392523-25.221183 6.878505-10.46729 4.785047-22.23053 11.464174-35.688474 20.23676"  horiz-adv-x="1027" />

    
    <glyph glyph-name="zhengxin" unicode="&#58954;" d="M532.290473-128c-140.830579 0-353.625684 44.777927-484.761042 292.755689l-19.19054 35.182657h619.194774v-47.97635H109.998638c172.814813-283.160419 473.56656-235.184068 534.336604-222.390375l9.59527-46.377139c-19.19054-3.198423-63.968467-11.194482-121.640039-11.194482z m163.219543 27.186599V521.579796h47.97635v-540.833401c281.561207 172.814813 233.584857 475.165772 220.791164 537.535027l46.377139 9.595271c14.392905-68.766102 70.365314-423.990998-279.961996-609.599505l-35.182657-19.090589zM649.132877-17.554442999999992H373.968516v47.976351h273.565149l1.599212-47.976351z m0 91.155066H369.170881v47.976351h278.362784v-47.976351h1.599212z m172.814813 168.017178h-47.976351V521.579796h47.976351v-279.961995z m-809.600916 3.198423C-2.046131 313.58232699999996-58.01854 668.807222 292.30877 854.415729l35.182657 19.19054v-620.793986h-47.976351V790.34731C-2.046131 617.6324480000001 45.930219 315.18153800000005 58.723913 254.41149399999995l-46.377139-9.59527z m900.755982 1.599212h-47.976351V521.579796h47.976351v-275.16436z m-260.771456 0H372.369305V519.980585h279.961995v-273.565149z m-231.985645 47.97635H605.954162V472.004234H420.345655v-177.612448z m-172.814812-43.178715h-47.976351V531.175067h47.976351v-279.961996z m-89.555855 0h-47.97635V526.377432h47.97635v-275.164361zM994.762503 567.9569349999999H373.968516v47.976351h539.13424C740.287943 897.594444 439.536196 849.618093 378.766151 836.8244l-9.59527 46.377139c68.766102 15.992117 422.391786 70.365314 606.401081-279.961996l19.190541-35.282608z m-340.831991 78.461324H373.968516v47.97635h278.362784v-47.97635h1.599212z m-4.797635 91.155066H373.968516v47.97635h273.565149v-47.97635h1.599212z m0 0"  horiz-adv-x="1024" />

    
    <glyph glyph-name="xuexin2" unicode="&#58955;" d="M980.1 522v-169.1l35.6-35.6-74.3-77.2-75.2 75 51.5 46.8V495.3c-218.4-90-288.3-118-336.8-139.9-48.4-21.8-83.3-21.8-131.3-3.6-48 18.1-276.7 101.5-390.2 155.8-75.8 36.3-80.7 59.2 1.3 90C167.6 638.2 344.3 703.3 438 738.7c55.4 22.5 84.8 34.7 135.7 9.1 90.9-37.5 298.6-115.5 401.8-158.1 90-39.1 29.5-52 4.6-67.7M591.5 288.5c52.8 21.8 124 57.8 201.6 91v-267S692.7 5.7000000000000455 516.2 5.7000000000000455c-190.1 0-292.8 106.8-292.8 106.8V361.79999999999995c59.9-24.4 127.2-45.4 208.7-73.2 50.2-18 113.8-24.1 159.4-0.1"  horiz-adv-x="1024" />

    
    <glyph glyph-name="bank-card" unicode="&#58956;" d="M868.88035289-19.249819229999957H158.64791976c-84.429878 0-153.21868222 68.7888042-153.21868222 153.2186822V628.73752429c0 84.429878 68.7888042 153.21868222 153.21868222 153.2186822h710.23243313c84.429878 0 153.21868222-68.7888042 153.21868221-153.2186822v-494.76866132c0-84.429878-68.7888042-153.21868222-153.21868221-153.2186822zM158.64791976 734.0753683c-58.09541701 0-105.337844-47.24242699-105.33784405-105.33784401v-494.76866132c0-58.09541701 47.24242699-105.337844 105.33784405-105.33784401h710.23243313c58.09541701 0 105.337844 47.24242699 105.33784402 105.33784401V628.73752429c0 58.09541701-47.24242699 105.337844-105.33784402 105.33784401H158.64791976zM43.73390808 592.0288816699999h954.42470791v-137.25840281H43.73390808zM860.90021319 106.83638800000006H639.05232956l73.41728524 130.87429106h220.25185568z"  horiz-adv-x="1024" />

    
    <glyph glyph-name="identity" unicode="&#58957;" d="M932.19764588 8.003925770000023H89.58568407c-51.40199496 0-93.28510195 41.883107-93.28510196 93.28510197V658.1439731099999c0 51.40199496 41.883107 93.28510195 93.28510196 93.28510195h842.61196181c51.40199496 0 93.28510195-41.883107 93.28510197-93.28510195v-556.85494537c0-51.40199496-41.883107-93.28510195-93.28510197-93.28510197zM89.58568407 694.31574733c-19.98966471 0-36.17177424-16.18210953-36.17177419-36.17177422v-556.85494537c0-19.98966471 16.18210953-36.17177424 36.17177419-36.17177424h842.61196181c19.98966471 0 36.17177424 16.18210953 36.17177424 36.17177424V658.1439731099999c0 19.98966471-16.18210953 36.17177424-36.17177424 36.17177422H89.58568407zM473.38724642 496.32287789h-342.67996637c-18.46664263 0-33.69686337 15.03984299-33.69686337 33.69686335 0 18.46664263 15.23022073 33.69686337 33.69686337 33.69686336h342.67996637c18.46664263 0 33.69686337-15.23022073 33.69686339-33.69686336s-15.23022073-33.69686337-33.69686339-33.69686335zM447.68624895 350.68389214H130.70728005c-18.46664263 0-33.69686337 15.03984299-33.69686337 33.69686337 0 18.46664263 15.23022073 33.69686337 33.69686337 33.69686336H447.68624895c18.46664263 0 33.69686337-15.03984299 33.69686339-33.69686336 0-18.46664263-15.23022073-33.69686337-33.69686339-33.69686337zM353.83001372 205.23528421000003H130.70728005c-18.46664263 0-33.69686337 15.23022073-33.69686337 33.69686335s15.23022073 33.69686337 33.69686337 33.69686337h222.9323559c18.46664263 0 33.69686337-15.23022073 33.69686337-33.69686337 0-18.65702039-15.03984299-33.69686337-33.5064856-33.69686335zM714.21511171 322.12722828999995c-80.14903659 0-145.25823021 65.10919362-145.25823019 145.25823019s65.10919362 145.25823021 145.25823019 145.25823022 145.25823021-65.10919362 145.25823017-145.25823022-65.10919362-145.25823021-145.25823017-145.25823019z m0 233.59351042c-48.54632855 0-88.14490245-39.59857389-88.14490245-88.14490246s39.59857389-88.14490245 88.14490245-88.14490245 88.14490245 39.59857389 88.14490246 88.14490245-39.40819611 88.14490245-88.14490246 88.14490246zM928.77084621 164.87519927000005h-57.11332773c0 86.81225814-70.63014861 157.44240677-157.44240677 157.44240676s-157.44240677-70.63014861-157.44240679-157.44240676h-57.11332774c0 118.22458839 96.14076836 214.5557345 214.55573453 214.55573453S928.77084621 283.09978765999995 928.77084621 164.87519927000005z"  horiz-adv-x="1024" />

    
    <glyph glyph-name="cards" unicode="&#58958;" d="M769.47896436 21.32228158999999H95.4075589c-49.80823193 0-90.3927172 40.58448527-90.3927172 90.3927172v372.63936478c0 49.80823193 40.58448527 90.3927172 90.3927172 90.39271723h674.07140546c49.80823193 0 90.3927172-40.58448527 90.39271719-90.39271723v-372.63936478c0-49.80823193-40.58448527-90.3927172-90.39271719-90.3927172z m-674.07140546 498.08231929c-19.36986798 0-35.0502373-15.68036932-35.0502373-35.05023731v-372.63936478c0-19.36986798 15.68036932-35.0502373 35.0502373-35.05023729h674.07140546c19.36986798 0 35.0502373 15.68036932 35.0502373 35.05023729v372.63936478c0 19.36986798-15.68036932 35.0502373-35.0502373 35.05023731H95.4075589zM934.2150796 194.72871866000003h-31.91416343v55.34247994H934.2150796c19.36986798 0 35.0502373 15.68036932 35.05023729 35.05023727v372.63936481c0 19.36986798-15.68036932 35.0502373-35.05023729 35.05023731H260.14367414c-19.36986798 0-35.0502373-15.68036932-35.05023729-35.05023731V618.283165h-55.34247993v39.47763568c0 49.80823193 40.58448527 90.3927172 90.39271722 90.39271721H934.2150796c49.80823193 0 90.3927172-40.58448527 90.39271717-90.39271721v-372.63936481c0-49.80823193-40.58448527-90.3927172-90.39271717-90.39271721zM32.68608166 452.25572523H819.84062108v-50.36165672H32.68608166zM32.68608166 323.30774700999996H819.84062108v-50.36165673H32.68608166z"  horiz-adv-x="1024" />

    
    <glyph glyph-name="wait" unicode="&#58959;" d="M512-127.17443149999997c-136.52916009 0-264.95913268 53.22323188-361.45516617 149.71926533S0.8255685 247.47083991 0.8255685 384s53.22323188 264.95913268 149.71926533 361.45516617S375.47083991 895.1744315 512 895.1744315s264.95913268-53.22323188 361.45516617-149.71926533S1023.1744315 520.52916009 1023.1744315 384s-53.22323188-264.95913268-149.71926533-361.45516617S648.52916009-127.17443149999997 512-127.17443149999997z m0 952.92725619c-243.66983991 0-441.75282469-198.08298478-441.75282469-441.75282469S268.33016009-57.75282469000001 512-57.75282469000001 953.75282469 140.33016009000005 953.75282469 384 755.66983991 825.75282469 512 825.75282469zM525.88432135 330.77676812000004c-24.29756238 0-43.96701766 19.66945526-43.96701765 43.96701765V669.7856147c0 24.29756238 19.66945526 43.96701766 43.96701765 43.96701767s43.96701766-19.66945526 43.9670177-43.96701767V374.74378577000004c0-24.29756238-19.66945526-43.96701766-43.9670177-43.96701765zM482.61151979 363.63632865c0 24.29756238 19.66945526 43.96701766 43.96701764 43.96701766H775.8021059c24.29756238 0 43.96701766-19.66945526 43.96701765-43.96701766s-19.66945526-43.96701766-43.96701765-43.96701764H526.57853743c-24.29756238 0-43.96701766 19.90086062-43.96701764 43.96701764z"  horiz-adv-x="1024" />

    
    <glyph glyph-name="double-arrow" unicode="&#58962;" d="M3.06393038 636.74030503l463.56121324-206.53717418v-57.83040881l-463.56121324-207.45511719v68.84572472L380.33850193 400.82895488 3.06393038 568.81252329v67.92778174zM558.41944331 636.74030503l463.56121317-206.53717418v-57.83040881l-463.56121317-207.45511719v68.84572472L935.69401482 400.82895488 558.41944331 568.81252329v67.92778174z"  horiz-adv-x="1024" />

    
    <glyph glyph-name="news" unicode="&#58969;" d="M723.00767428 45.44835917H213.505591c-112.72169984 0-202.89905971 90.17735987-202.89905971 202.89905971V613.56572636c0 112.72169984 90.17735987 202.89905971 202.89905971 202.89905972h507.24764929c112.72169984 0 202.89905971-90.17735987 202.89905971-202.89905972v-268.27764562h-90.17735988V613.56572636c0 63.1241519-49.59754793 112.72169984-112.72169983 112.72169985H213.505591c-63.1241519 0-112.72169984-49.59754793-112.72169984-112.72169985v-365.21830748c0-63.1241519 49.59754793-112.72169984 112.72169984-112.72169985h507.24764929v-90.17735986zM123.32823112 672.18101028l344.92840151-344.9284015 344.92840152 342.6739675-126.24830382 2.254434-218.6800977-218.6800977-218.68009768 216.4256637M720.75324029 135.62571903000003H934.92446997v-90.17735986h-214.17122968zM858.27371408 257.36515486999997l-47.34311392-47.34311394 114.97613383-117.23056783-119.48500184-119.48500183 47.34311394-47.34311394 169.08254976 166.82811577z"  horiz-adv-x="1024" />

    
    <glyph glyph-name="youhui" unicode="&#58970;" d="M355.41265067 543.07286282h69.59437748l82.02194488-159.07286282 82.02194489 159.07286282h69.59437749L556.73924267 359.14486518h69.59437748v-32.31167526H536.85513482v-44.73924267h86.99297185v-32.31167525H536.85513482v-79.53643141h-59.65232357v79.53643141h-86.99297184v32.31167525h86.99297184v44.73924267h-86.99297184V359.14486518h69.59437748l-104.39156622 183.92799764zM792.86302341-41.02280532999998H231.13697659c-124.27567408 0-223.69621333 99.42053925-223.69621334 223.69621333v94.4495123l34.79718875 12.4275674c34.79718875 12.42756741 59.65232355 47.22475615 59.65232355 84.50745838s-24.85513482 72.07989097-59.65232355 84.50745837l-34.79718875 12.4275674v116.81913363c0 124.27567408 99.42053925 223.69621333 223.69621334 223.69621334h559.24053333c124.27567408 0 223.69621333-99.42053925 223.69621333-223.69621334v-116.81913363l-34.79718873-12.4275674c-37.28270222-12.42756741-59.65232355-47.22475615-59.65232355-84.50745837s24.85513482-72.07989097 59.65232355-84.50745838l34.79718873-12.4275674v-94.4495123c2.48551348-124.27567408-99.42053925-223.69621333-221.21069984-223.69621333zM106.86130252 210.0140563v-27.3406483c0-69.59437748 54.68129659-124.27567408 124.27567407-124.27567408h559.24053333c69.59437748 0 124.27567408 54.68129659 124.27567408 124.27567408V210.0140563c-57.16681008 32.31167525-94.4495123 94.4495123-94.4495123 164.04388978 0 67.108864 37.28270222 129.24670103 94.4495123 164.04388977v49.71026963c0 69.59437748-54.68129659 124.27567408-124.27567408 124.27567407H231.13697659c-69.59437748 0-124.27567408-54.68129659-124.27567407-124.27567407v-49.71026963c57.16681008-32.31167525 94.4495123-94.4495123 94.4495123-164.04388977S164.02811259 242.32573155 106.86130252 210.0140563z"  horiz-adv-x="1024" />

    
    <glyph glyph-name="jilu" unicode="&#58971;" d="M649.59092487-113.10269630000005H290.07915344c-110.96042328 0-199.7287619 88.76833862-199.7287619 199.72876191V585.94797037c0 110.96042328 88.76833862 199.7287619 199.7287619 199.7287619h264.0858074v-88.76833862H290.07915344c-62.13783703 0-110.96042328-48.82258624-110.96042328-110.96042328v-499.32190476c0-62.13783703 48.82258624-110.96042328 110.96042328-110.96042328h359.51177143c62.13783703 0 110.96042328 48.82258624 110.96042327 110.96042328V494.96042328h88.76833864v-410.55356614c0-108.74121481-88.76833862-197.50955344-199.72876191-197.50955344zM372.18986667 275.25878519H312.2712381c-24.41129313 0-44.38416932 19.97287619-44.38416932 44.3841693s19.97287619 44.38416932 44.38416932 44.38416932h59.91862857c24.41129313 0 44.38416932-19.97287619 44.38416931-44.38416932s-19.97287619-44.38416932-44.38416931-44.3841693zM580.79546243 95.50289946999999h-266.30501587c-24.41129313 0-44.38416932 19.97287619-44.38416931 44.38416931s19.97287619 44.38416932 44.38416931 44.38416932h268.52422434c24.41129313 0 44.38416932-19.97287619 44.38416931-44.38416932-2.21920846-24.41129313-22.19208465-44.38416932-46.60337778-44.38416931zM531.97287619 472.76833862v99.86438095h-62.13783703V406.19208465h166.44063492v66.57625397zM946.96485926 783.45752381l-99.86438096 99.86438095c-17.75366773 17.75366773-48.82258624 17.75366773-68.79546243 0l-310.68918519-310.68918519 46.60337778-46.60337777L796.0586836 805.64960846c6.6576254 6.6576254 17.75366773 6.6576254 24.41129312 0l44.38416931-44.3841693c6.6576254-6.6576254 6.6576254-17.75366773 0-24.41129313L585.23387937 457.23387937l51.04179471-51.04179472 310.68918518 310.68918519c17.75366773 17.75366773 17.75366773 48.82258624 0 66.57625397z"  horiz-adv-x="1024" />

    
    <glyph glyph-name="problem" unicode="&#58972;" d="M519.88651607 408.33895572v117.4464049h-71.48911607v-194.04188637h191.48870369v76.59548147zM997.33168389 765.7845359099999l-114.89322219 114.89322223c-20.42546172 20.42546172-56.17001973 20.42546172-79.1486642 0l-357.44558021-357.4455802 53.61683702-53.61683706L826.26844196 791.31636307c7.65954814 7.65954814 20.42546172 7.65954814 28.08500985 0l48.5104716-48.5104716c7.65954814-7.65954814 7.65954814-20.42546172 0-28.08500988L581.16290122 390.46667669l58.72320247-58.72320244 357.4455802 357.44558019c20.42546172 20.42546172 20.42546172 56.17001973 0 76.59548147zM532.65242962 112.16976068999998h-357.44558019c-91.91457777 0-165.95687652 74.04229875-165.95687654 165.95687653S83.29227164 444.08351375 175.20684943 444.08351375h217.02053083v-102.12730867h-217.02053083c-35.74455802 0-63.82956789-28.08500988-63.8295679-63.82956786s28.08500988-63.82956789 63.8295679-63.8295679h357.44558019v-102.12730863zM849.24708638-117.61668373999998H359.03600496v102.12730863H849.24708638c35.74455802 0 63.82956789 28.08500988 63.82956791 63.82956789S884.99164441 112.16976068999998 849.24708638 112.16976068999998H491.80150616v102.12730863h357.44558022c91.91457777 0 165.95687652-74.04229875 165.95687654-165.95687654S941.16166415-117.61668373999998 849.24708638-117.61668373999998z"  horiz-adv-x="1024" />

    
    <glyph glyph-name="help" unicode="&#58973;" d="M512-125.80267448999996c-122.64120943 0-242.87768925 45.68986234-336.66214353 127.45066864-19.23783677 16.83310717-21.64256637 48.09459194-4.80945918 67.33242869 16.83310717 19.23783677 48.09459194 21.64256637 67.33242871 4.8094592 74.54661749-67.33242871 173.14053096-103.40337265 271.7344444-103.40337265 228.44931169 0 413.61349061 185.16417895 413.61349062 413.61349061S740.44931169 797.61349061 512 797.61349061 98.38650939 612.4493116900001 98.38650939 384c0-62.52296951 14.42837758-122.64120943 40.88040314-177.94999015 12.02364799-24.04729597 2.4047296-52.90405112-21.64256637-64.9276991s-52.90405112 0-64.92769911 21.64256636c-33.66621436 69.73715831-48.09459194 141.87904621-48.09459193 218.83039329C2.19732551 665.3533628 230.6466372 893.80267449 512 893.80267449c281.3533628 0 509.80267449-228.44931169 509.80267449-509.80267449S793.3533628-125.80267448999996 512-125.80267448999996zM605.78445427 362.35743362999995c26.45202557 16.83310717 103.40337265 52.90405112 103.40337266 149.09323499 0 93.78445427-79.35607669 158.71215338-146.6885054 173.14053095-67.33242871 14.42837758-139.4743166 4.8094592-189.97363813-50.49932152-45.68986234-50.49932153-55.30878073-88.97499508-55.30878073-177.94999015h103.40337266v19.23783677c0 45.68986234 4.8094592 96.18918386 72.1418879 108.21283185 36.07094395 7.21418879 69.73715831-4.8094592 91.37972467-24.04729596 24.04729597-21.64256637 24.04729597-74.54661749-14.42837758-98.59391346L512 422.47567354c-33.66621436-21.64256637-45.68986234-45.68986234-45.68986234-81.76080628v-117.83175023h103.40337266v79.35607669c-2.4047296 24.04729597 7.21418879 43.28513274 36.07094395 60.11823991zM463.90540806 131.50339237000003s24.04729597-52.90405112 52.90405114-52.90405114c28.85675516 0 50.49932153 24.04729597 50.49932153 52.90405114 0 28.85675516-21.64256637 52.90405112-50.49932153 52.90405111-28.85675516 0-52.90405112-52.90405112-52.90405114-52.90405111z m0 0"  horiz-adv-x="1024" />

    


  </font>
</defs>
</svg>
